<?xml version="1.0" encoding="utf-8"?>
<!-- Generator: Adobe Illustrator 16.0.0, SVG Export Plug-In . SVG Version: 6.00 Build 0)  -->
<!DOCTYPE svg PUBLIC "-//W3C//DTD SVG 1.1//EN" "http://www.w3.org/Graphics/SVG/1.1/DTD/svg11.dtd">
<svg version="1.1" id="Layer_1" xmlns="http://www.w3.org/2000/svg" xmlns:xlink="http://www.w3.org/1999/xlink" x="0px" y="0px"
	 width="72px" height="72px" viewBox="0 0 72 72" enable-background="new 0 0 72 72" xml:space="preserve">
<g id="Arrow_x5F_Left_x5F_2_4_">
	<g>
		<path fill="#FFFFFF" d="M53.125,33.389h-13c-0.18,0-0.299-0.093-0.356-0.15c-0.093-0.093-0.144-0.217-0.144-0.35
			c0-0.18,0.092-0.299,0.16-0.367l4.167-4.332c0.756-0.755,1.172-1.76,1.172-2.828s-0.416-2.072-1.172-2.828
			c-0.755-0.756-1.759-1.172-2.828-1.172c-1.068,0-2.072,0.416-2.816,1.16L26.59,33.854c-0.944,0.943-1.465,2.199-1.465,3.535
			s0.521,2.592,1.465,3.536c0.051,0.051,0.106,0.095,0.165,0.132l11.541,11.16c0.756,0.756,1.76,1.172,2.828,1.172
			c1.069,0,2.073-0.416,2.828-1.172c0.756-0.755,1.172-1.76,1.172-2.828s-0.416-2.073-1.158-2.814l-4.194-4.359
			c-0.055-0.055-0.146-0.173-0.146-0.354c0-0.133,0.051-0.257,0.146-0.353c0.055-0.055,0.174-0.147,0.354-0.147h13
			c2.196,0,3.99-1.786,4-3.99v-0.037C57.096,35.155,55.309,33.389,53.125,33.389z M53.125,39.361h-13c-0.67,0-1.3,0.263-1.771,0.736
			c-0.471,0.47-0.729,1.097-0.729,1.764c0,0.668,0.26,1.295,0.719,1.754l4.194,4.359c0.378,0.378,0.586,0.88,0.586,1.414
			s-0.208,1.036-0.586,1.414c-0.756,0.756-2.061,0.768-2.84-0.012l-11.706-11.32c-0.036-0.035-0.074-0.067-0.115-0.095
			c-0.486-0.549-0.752-1.248-0.752-1.987c0-0.801,0.312-1.555,0.867-2.109L39.71,23.947c0.756-0.756,2.072-0.756,2.828,0
			c0.378,0.378,0.586,0.88,0.586,1.414s-0.208,1.036-0.6,1.428l-4.167,4.332c-0.473,0.472-0.732,1.1-0.732,1.768
			c0,0.667,0.259,1.294,0.727,1.762c0.474,0.476,1.104,0.738,1.773,0.738h13c1.098,0,1.995,0.893,2,1.982
			C55.12,38.468,54.223,39.361,53.125,39.361z"/>
	</g>
</g>
</svg>
