<?xml version="1.0" encoding="utf-8"?>
<!-- Generator: Adobe Illustrator 16.0.0, SVG Export Plug-In . SVG Version: 6.00 Build 0)  -->
<!DOCTYPE svg PUBLIC "-//W3C//DTD SVG 1.1//EN" "http://www.w3.org/Graphics/SVG/1.1/DTD/svg11.dtd">
<svg version="1.1" id="Layer_1" xmlns="http://www.w3.org/2000/svg" xmlns:xlink="http://www.w3.org/1999/xlink" x="0px" y="0px"
	 width="72px" height="72px" viewBox="0 0 72 72" enable-background="new 0 0 72 72" xml:space="preserve">
<path fill="#F2643E" d="M66.003,58.001c0,6.627-5.373,12-12,12H16.67c-6.628,0-12-5.373-12-12V13.668c0-6.628,5.372-12,12-12h37.333
	c6.627,0,12,5.372,12,12V58.001z"/>
<path fill="#FFFFFF" d="M14.663,40.21c0,0-6.064-15.365,16.174-22.643c0,0,12.736-4.852,19.003,8.896
	c0,0,13.546,17.993-12.736,26.484c0,0-12.332,2.021-17.588-5.863c0,0,5.66-3.032,2.021-7.479
	C21.537,39.604,19.718,36.975,14.663,40.21z"/>
<circle fill="#F2643E" cx="22.548" cy="30.506" r="2.83"/>
<circle fill="#F2643E" cx="31.847" cy="26.058" r="3.437"/>
<circle fill="#F2643E" cx="41.248" cy="26.563" r="2.932"/>
<path fill="#F2643E" stroke="#FFFFFF" stroke-miterlimit="10" d="M21.941,57.394c0,0,4.043-12.13,7.885-10.513
	c0,0,4.447,1.415,2.628,4.448C32.454,51.329,30.635,57.596,21.941,57.394z"/>
<path fill="#F2643E" stroke="#FFFFFF" stroke-miterlimit="10" d="M32.05,45.87c0,0,10.513-13.141,17.79-19.61
	c0,0,12.332-10.917,12.535-6.671c0,0,0.201,2.426-4.853,8.289c0,0-20.823,20.823-22.845,21.025
	C34.678,48.902,31.848,49.308,32.05,45.87z"/>
</svg>
