<?xml version="1.0" encoding="utf-8"?>
<!-- Generator: Adobe Illustrator 16.0.0, SVG Export Plug-In . SVG Version: 6.00 Build 0)  -->
<!DOCTYPE svg PUBLIC "-//W3C//DTD SVG 1.1//EN" "http://www.w3.org/Graphics/SVG/1.1/DTD/svg11.dtd">
<svg version="1.1" id="Layer_1" xmlns="http://www.w3.org/2000/svg" xmlns:xlink="http://www.w3.org/1999/xlink" x="0px" y="0px"
	 width="72px" height="72px" viewBox="0 0 72 72" enable-background="new 0 0 72 72" xml:space="preserve">
<path fill="#424143" d="M13.663,43.96c0,0-6.064-15.365,16.174-22.643c0,0,12.736-4.852,19.003,8.896
	c0,0,13.546,17.993-12.736,26.484c0,0-12.332,2.021-17.588-5.863c0,0,5.66-3.032,2.021-7.479
	C20.537,43.354,18.718,40.725,13.663,43.96z"/>
<circle fill="#FFFFFF" cx="21.548" cy="34.256" r="2.83"/>
<circle fill="#FFFFFF" cx="30.847" cy="29.808" r="3.437"/>
<circle fill="#FFFFFF" cx="40.248" cy="30.313" r="2.932"/>
<path fill="#FFFFFF" stroke="#424143" stroke-miterlimit="10" d="M20.941,61.144c0,0,4.043-12.13,7.885-10.513
	c0,0,4.447,1.415,2.628,4.448C31.454,55.079,29.635,61.346,20.941,61.144z"/>
<path fill="#FFFFFF" stroke="#424143" stroke-miterlimit="10" d="M31.05,49.62c0,0,10.513-13.141,17.79-19.61
	c0,0,12.332-10.917,12.535-6.671c0,0,0.201,2.426-4.853,8.289c0,0-20.823,20.823-22.845,21.025
	C33.678,52.652,30.848,53.058,31.05,49.62z"/>
</svg>
