<?xml version="1.0" encoding="utf-8"?>
<!-- Generator: Adobe Illustrator 16.0.0, SVG Export Plug-In . SVG Version: 6.00 Build 0)  -->
<!DOCTYPE svg PUBLIC "-//W3C//DTD SVG 1.1//EN" "http://www.w3.org/Graphics/SVG/1.1/DTD/svg11.dtd">
<svg version="1.1" id="Layer_1" xmlns="http://www.w3.org/2000/svg" xmlns:xlink="http://www.w3.org/1999/xlink" x="0px" y="0px"
	 width="72px" height="72px" viewBox="0 0 72 72" enable-background="new 0 0 72 72" xml:space="preserve">
<path fill="#F2643E" d="M66.332,57.917c0,6.627-5.373,12-12,12H16.999c-6.628,0-12-5.373-12-12V13.584c0-6.627,5.372-12,12-12
	h37.333c6.627,0,12,5.373,12,12V57.917z"/>
<g>
	<path fill="#FFFFFF" d="M22.077,39.16v-10.5h2.25c0.484,0,0.918,0.051,1.301,0.152s0.718,0.256,1.005,0.463s0.508,0.48,0.662,0.82
		s0.231,0.736,0.231,1.189c0,0.656-0.139,1.155-0.416,1.497s-0.705,0.593-1.283,0.753c0.625,0.207,1.094,0.511,1.406,0.911
		s0.469,0.972,0.469,1.714c0,0.925-0.269,1.658-0.806,2.195s-1.269,0.805-2.194,0.805H22.077z M23.577,33.161h0.75
		c1.25,0,1.875-0.625,1.875-1.875c0-0.207-0.025-0.39-0.076-0.548s-0.111-0.29-0.182-0.396s-0.177-0.194-0.319-0.267
		s-0.272-0.128-0.39-0.167s-0.284-0.067-0.501-0.085s-0.397-0.028-0.542-0.032s-0.35-0.006-0.615-0.006V33.161z M23.577,38.035h0.75
		c0.648,0,1.123-0.148,1.424-0.447s0.451-0.775,0.451-1.427s-0.15-1.128-0.451-1.427s-0.775-0.448-1.424-0.448h-0.75V38.035z"/>
	<path fill="#FFFFFF" d="M28.728,39.16v-7.5h1.5v1.002c0.152-0.297,0.374-0.556,0.665-0.776s0.614-0.331,0.97-0.331
		c0.012,0,0.092,0.008,0.24,0.023v1.658c-0.277-0.109-0.555-0.164-0.832-0.164c-0.312,0-0.564,0.094-0.756,0.281
		s-0.287,0.436-0.287,0.744v5.062H28.728z"/>
	<path fill="#FFFFFF" d="M36.567,38.562c-0.348,0.469-0.924,0.703-1.729,0.703s-1.381-0.234-1.729-0.703s-0.521-1.145-0.521-2.027
		v-2.25c0-0.883,0.174-1.559,0.521-2.027s0.924-0.703,1.729-0.703s1.381,0.234,1.729,0.703s0.521,1.145,0.521,2.027v2.25
		C37.089,37.418,36.915,38.094,36.567,38.562z M34.561,37.988c0.08,0.031,0.173,0.047,0.278,0.047s0.198-0.016,0.278-0.047
		s0.146-0.068,0.199-0.113s0.097-0.111,0.132-0.199s0.062-0.166,0.082-0.232s0.033-0.162,0.041-0.287s0.013-0.223,0.015-0.295
		s0.003-0.181,0.003-0.325v-2.25c0-0.145-0.001-0.253-0.003-0.325s-0.007-0.171-0.015-0.296s-0.021-0.221-0.041-0.287
		s-0.047-0.144-0.082-0.231s-0.079-0.154-0.132-0.199s-0.119-0.083-0.199-0.114s-0.173-0.047-0.278-0.047s-0.198,0.016-0.278,0.047
		s-0.146,0.069-0.199,0.114s-0.097,0.111-0.132,0.199s-0.062,0.165-0.082,0.231s-0.033,0.162-0.041,0.287s-0.013,0.224-0.015,0.296
		s-0.003,0.181-0.003,0.325v2.25c0,0.145,0.001,0.253,0.003,0.325s0.007,0.17,0.015,0.295s0.021,0.221,0.041,0.287
		s0.047,0.145,0.082,0.232s0.079,0.154,0.132,0.199S34.48,37.957,34.561,37.988z"/>
	<path fill="#FFFFFF" d="M38.319,39.16v-7.5h1.5v0.809c0.223-0.203,0.404-0.358,0.545-0.466s0.335-0.209,0.583-0.305
		s0.513-0.144,0.794-0.144c0.32,0,0.58,0.117,0.779,0.352s0.299,0.521,0.299,0.861v6.392h-1.5v-5.625
		c0-0.262-0.037-0.452-0.111-0.571s-0.225-0.179-0.451-0.179c-0.129,0-0.257,0.026-0.384,0.079s-0.222,0.102-0.284,0.146
		s-0.152,0.116-0.27,0.214v5.935H38.319z"/>
	<path fill="#FFFFFF" d="M43.546,39.16l1.5-3.75v-0.152l-1.5-3.598h1.447l1.002,2.865l1.002-2.865h1.424l-1.5,3.598v0.152l1.5,3.75
		h-1.5l-0.891-2.888l-0.984,2.888H43.546z"/>
</g>
</svg>
