<?xml version="1.0" encoding="utf-8"?>
<!-- Generator: Adobe Illustrator 16.0.0, SVG Export Plug-In . SVG Version: 6.00 Build 0)  -->
<!DOCTYPE svg PUBLIC "-//W3C//DTD SVG 1.1//EN" "http://www.w3.org/Graphics/SVG/1.1/DTD/svg11.dtd">
<svg version="1.1" id="Layer_1" xmlns="http://www.w3.org/2000/svg" xmlns:xlink="http://www.w3.org/1999/xlink" x="0px" y="0px"
	 width="72px" height="72px" viewBox="0 0 72 72" enable-background="new 0 0 72 72" xml:space="preserve">
<path fill="none" stroke="#414042" stroke-miterlimit="10" d="M66.5,58.244c0,6.627-5.373,12-12,12H17.167c-6.628,0-12-5.373-12-12
	V13.912c0-6.627,5.372-12,12-12H54.5c6.627,0,12,5.373,12,12V58.244z"/>
<g>
	<path fill="#414042" d="M15.744,40.16v-10.5h2.25c0.484,0,0.918,0.051,1.301,0.152s0.718,0.256,1.005,0.463s0.508,0.48,0.662,0.82
		s0.231,0.736,0.231,1.189c0,0.656-0.139,1.155-0.416,1.497s-0.705,0.593-1.283,0.753c0.625,0.207,1.094,0.511,1.406,0.911
		s0.469,0.972,0.469,1.713c0,0.926-0.269,1.658-0.806,2.195s-1.269,0.805-2.194,0.805H15.744z M17.244,34.161h0.75
		c1.25,0,1.875-0.625,1.875-1.875c0-0.207-0.025-0.39-0.076-0.548s-0.111-0.29-0.182-0.396s-0.177-0.194-0.319-0.267
		s-0.272-0.128-0.39-0.167s-0.284-0.067-0.501-0.085s-0.397-0.028-0.542-0.032s-0.35-0.006-0.615-0.006V34.161z M17.244,39.035h0.75
		c0.648,0,1.123-0.148,1.424-0.447s0.451-0.775,0.451-1.428c0-0.652-0.15-1.127-0.451-1.426s-0.775-0.448-1.424-0.448h-0.75V39.035z
		"/>
	<path fill="#414042" d="M22.395,40.16v-7.5h1.5v1.002c0.152-0.297,0.374-0.556,0.665-0.776s0.614-0.331,0.97-0.331
		c0.012,0,0.092,0.008,0.24,0.023v1.658c-0.277-0.109-0.555-0.164-0.832-0.164c-0.312,0-0.564,0.094-0.756,0.281
		s-0.287,0.436-0.287,0.744v5.062H22.395z"/>
	<path fill="#414042" d="M30.234,39.562c-0.348,0.469-0.924,0.703-1.729,0.703s-1.381-0.234-1.729-0.703s-0.521-1.145-0.521-2.027
		v-2.25c0-0.883,0.174-1.559,0.521-2.027s0.924-0.703,1.729-0.703s1.381,0.234,1.729,0.703s0.521,1.145,0.521,2.027v2.25
		C30.756,38.418,30.582,39.094,30.234,39.562z M28.228,38.988c0.08,0.031,0.173,0.047,0.278,0.047s0.198-0.016,0.278-0.047
		s0.146-0.068,0.199-0.113s0.097-0.111,0.132-0.199s0.062-0.166,0.082-0.232s0.033-0.162,0.041-0.287s0.013-0.223,0.015-0.295
		s0.003-0.182,0.003-0.326v-2.25c0-0.145-0.001-0.253-0.003-0.325s-0.007-0.171-0.015-0.296s-0.021-0.221-0.041-0.287
		s-0.047-0.144-0.082-0.231s-0.079-0.154-0.132-0.199s-0.119-0.083-0.199-0.114s-0.173-0.047-0.278-0.047s-0.198,0.016-0.278,0.047
		s-0.146,0.069-0.199,0.114s-0.097,0.111-0.132,0.199s-0.062,0.165-0.082,0.231s-0.033,0.162-0.041,0.287s-0.013,0.224-0.015,0.296
		s-0.003,0.181-0.003,0.325v2.25c0,0.145,0.001,0.254,0.003,0.326s0.007,0.17,0.015,0.295s0.021,0.221,0.041,0.287
		s0.047,0.145,0.082,0.232s0.079,0.154,0.132,0.199S28.147,38.957,28.228,38.988z"/>
	<path fill="#414042" d="M35.824,39.562c-0.348,0.469-0.924,0.703-1.729,0.703s-1.381-0.234-1.729-0.703s-0.521-1.145-0.521-2.027
		v-2.25c0-0.883,0.174-1.559,0.521-2.027s0.924-0.703,1.729-0.703s1.381,0.234,1.729,0.703s0.521,1.145,0.521,2.027v2.25
		C36.346,38.418,36.172,39.094,35.824,39.562z M33.817,38.988c0.08,0.031,0.173,0.047,0.278,0.047s0.198-0.016,0.278-0.047
		s0.146-0.068,0.199-0.113s0.097-0.111,0.132-0.199s0.062-0.166,0.082-0.232s0.033-0.162,0.041-0.287s0.013-0.223,0.015-0.295
		s0.003-0.182,0.003-0.326v-2.25c0-0.145-0.001-0.253-0.003-0.325s-0.007-0.171-0.015-0.296s-0.021-0.221-0.041-0.287
		s-0.047-0.144-0.082-0.231s-0.079-0.154-0.132-0.199s-0.119-0.083-0.199-0.114s-0.173-0.047-0.278-0.047s-0.198,0.016-0.278,0.047
		s-0.146,0.069-0.199,0.114s-0.097,0.111-0.132,0.199s-0.062,0.165-0.082,0.231s-0.033,0.162-0.041,0.287s-0.013,0.224-0.015,0.296
		s-0.003,0.181-0.003,0.325v2.25c0,0.145,0.001,0.254,0.003,0.326s0.007,0.17,0.015,0.295s0.021,0.221,0.041,0.287
		s0.047,0.145,0.082,0.232s0.079,0.154,0.132,0.199S33.737,38.957,33.817,38.988z"/>
	<path fill="#414042" d="M37.576,40.16v-10.5h1.5v5.771l1.875-2.771h1.5L40.77,35.28l1.682,4.88h-1.5l-1.125-3.626l-0.75,1.001
		v2.625H37.576z"/>
	<path fill="#414042" d="M43.213,40.16v-10.5h1.5v10.5H43.213z"/>
	<path fill="#414042" d="M45.855,42.035V40.91c0.297,0,0.534-0.02,0.712-0.059s0.312-0.107,0.401-0.207s0.147-0.209,0.173-0.328
		s0.038-0.285,0.038-0.496l-1.699-7.16h1.5c0.582,3.215,0.896,4.964,0.943,5.25c0.082-0.527,0.175-1.083,0.278-1.667
		s0.221-1.229,0.352-1.934s0.231-1.255,0.302-1.649h1.5l-1.875,7.875c-0.125,0.543-0.389,0.93-0.791,1.158s-0.963,0.342-1.682,0.342
		H45.855z"/>
	<path fill="#414042" d="M51.158,40.16v-7.5h1.5v0.809c0.223-0.203,0.404-0.358,0.545-0.466s0.335-0.209,0.583-0.305
		s0.513-0.144,0.794-0.144c0.32,0,0.58,0.117,0.779,0.352s0.299,0.521,0.299,0.861v6.392h-1.5v-5.625
		c0-0.262-0.037-0.452-0.111-0.571s-0.225-0.179-0.451-0.179c-0.129,0-0.257,0.026-0.384,0.079s-0.222,0.102-0.284,0.146
		s-0.152,0.116-0.27,0.214v5.935H51.158z"/>
</g>
</svg>
