<?xml version="1.0" encoding="utf-8"?>
<!-- Generator: Adobe Illustrator 16.0.0, SVG Export Plug-In . SVG Version: 6.00 Build 0)  -->
<!DOCTYPE svg PUBLIC "-//W3C//DTD SVG 1.1//EN" "http://www.w3.org/Graphics/SVG/1.1/DTD/svg11.dtd">
<svg version="1.1" id="Layer_1" xmlns="http://www.w3.org/2000/svg" xmlns:xlink="http://www.w3.org/1999/xlink" x="0px" y="0px"
	 width="72px" height="72px" viewBox="0 0 72 72" enable-background="new 0 0 72 72" xml:space="preserve">
<path fill="#F2643E" d="M66.667,57.334c0,6.627-5.373,12-12,12H17.334c-6.628,0-12-5.373-12-12V13c0-6.627,5.372-12,12-12h37.333
	c6.627,0,12,5.373,12,12V57.334z"/>
<g>
	<path fill="#FFFFFF" d="M14.848,32.811c-0.945,0-1.667-0.277-2.165-0.832s-0.776-1.312-0.835-2.273l1.5-0.375
		c0.074,1.5,0.574,2.25,1.5,2.25c0.75,0,1.125-0.375,1.125-1.125c0-0.223-0.03-0.429-0.091-0.618s-0.153-0.363-0.278-0.521
		s-0.238-0.285-0.34-0.381s-0.24-0.214-0.416-0.354l-1.875-1.5c-0.344-0.27-0.618-0.612-0.823-1.028s-0.308-0.89-0.308-1.421
		c0-0.773,0.24-1.389,0.721-1.846s1.117-0.686,1.91-0.686c0.852,0,1.528,0.208,2.03,0.624s0.812,1.005,0.929,1.767
		c0.012,0.082,0.025,0.195,0.041,0.34l-1.5,0.375c-0.004-0.066-0.014-0.166-0.029-0.299c-0.066-0.477-0.216-0.858-0.448-1.146
		s-0.573-0.431-1.022-0.431c-0.359,0-0.637,0.101-0.832,0.302s-0.293,0.481-0.293,0.841c0,0.59,0.25,1.084,0.75,1.482l1.875,1.5
		c1,0.809,1.5,1.775,1.5,2.9c0,0.77-0.237,1.371-0.712,1.805S15.648,32.811,14.848,32.811z"/>
	<path fill="#FFFFFF" d="M19.576,32.811c-0.328,0-0.592-0.116-0.791-0.349s-0.299-0.521-0.299-0.864v-6.393h1.5v5.936
		c0,0.156,0.048,0.283,0.144,0.381s0.22,0.146,0.372,0.146c0.082,0,0.162-0.01,0.24-0.029s0.155-0.054,0.231-0.103
		s0.136-0.088,0.179-0.117s0.104-0.079,0.185-0.149s0.13-0.113,0.149-0.129v-5.936h1.5v7.5h-1.5v-0.809
		c-0.148,0.129-0.257,0.223-0.325,0.281s-0.173,0.138-0.313,0.237s-0.265,0.172-0.372,0.217s-0.241,0.086-0.401,0.123
		S19.748,32.811,19.576,32.811z"/>
	<path fill="#FFFFFF" d="M26.66,34.949c-0.188,0-0.34-0.001-0.457-0.003s-0.277-0.007-0.48-0.015s-0.373-0.022-0.51-0.044
		s-0.293-0.049-0.469-0.082s-0.321-0.077-0.437-0.132s-0.226-0.119-0.331-0.193s-0.185-0.165-0.237-0.272s-0.079-0.228-0.079-0.36
		c0-0.391,0.104-0.725,0.313-1.002s0.479-0.498,0.812-0.662c-0.203-0.055-0.379-0.138-0.527-0.249s-0.223-0.247-0.223-0.407
		c0-0.066,0.008-0.137,0.023-0.211s0.033-0.142,0.053-0.202s0.051-0.13,0.094-0.208s0.077-0.14,0.103-0.185s0.067-0.107,0.126-0.188
		s0.099-0.135,0.12-0.164s0.063-0.082,0.126-0.158s0.098-0.12,0.105-0.132c-0.5-0.594-0.75-1.344-0.75-2.25
		c0-0.52,0.082-0.982,0.246-1.389s0.419-0.731,0.765-0.976s0.759-0.366,1.239-0.366c0.277,0,0.52,0.039,0.727,0.117
		s0.376,0.177,0.507,0.296s0.259,0.276,0.384,0.472c0.297-0.551,0.719-0.844,1.266-0.879c0.012,0,0.023,0,0.035,0s0.026,0,0.044,0
		s0.03,0,0.038,0v1.225c-0.02,0-0.051,0-0.094,0c-0.168,0-0.295,0.002-0.381,0.006s-0.182,0.021-0.287,0.05
		s-0.189,0.075-0.252,0.138c0.07,0.152,0.132,0.354,0.185,0.606s0.079,0.485,0.079,0.7c0,0.523-0.079,0.986-0.237,1.389
		s-0.41,0.725-0.756,0.967s-0.765,0.363-1.257,0.363l-0.756-0.088c-0.008,0.02-0.027,0.054-0.059,0.103s-0.056,0.089-0.073,0.12
		s-0.034,0.071-0.05,0.12s-0.023,0.095-0.023,0.138c0,0.102,0.049,0.188,0.146,0.258s0.232,0.122,0.404,0.155
		s0.337,0.058,0.495,0.073s0.335,0.028,0.53,0.038s0.33,0.021,0.404,0.032c0.223,0.031,0.421,0.067,0.595,0.108
		s0.352,0.101,0.533,0.179s0.331,0.172,0.448,0.281s0.214,0.25,0.29,0.422s0.114,0.369,0.114,0.592c0,0.273-0.048,0.518-0.144,0.732
		s-0.224,0.393-0.384,0.533s-0.354,0.257-0.58,0.349s-0.465,0.157-0.715,0.196S26.945,34.949,26.66,34.949z M26.66,33.842
		c0.105,0,0.2-0.002,0.284-0.006s0.181-0.012,0.29-0.023s0.204-0.03,0.284-0.056s0.156-0.058,0.229-0.097s0.128-0.091,0.167-0.155
		s0.059-0.138,0.059-0.22c0-0.418-0.4-0.674-1.201-0.768l-1.236-0.146c-0.152,0.109-0.282,0.268-0.39,0.475s-0.161,0.424-0.161,0.65
		c0,0.062,0.021,0.116,0.064,0.161s0.106,0.079,0.19,0.103s0.17,0.043,0.258,0.059s0.192,0.025,0.313,0.029s0.225,0.006,0.311,0.006
		s0.187-0.002,0.302-0.006S26.617,33.842,26.66,33.842z M26.285,29.424c0.625,0,0.938-0.531,0.938-1.594
		c0-0.215-0.014-0.413-0.041-0.595s-0.074-0.359-0.141-0.533s-0.164-0.311-0.293-0.41s-0.283-0.149-0.463-0.149
		c-0.184,0-0.34,0.05-0.469,0.149s-0.226,0.236-0.29,0.41s-0.11,0.352-0.138,0.533s-0.041,0.38-0.041,0.595
		C25.348,28.893,25.66,29.424,26.285,29.424z"/>
	<path fill="#FFFFFF" d="M31.998,34.949c-0.188,0-0.34-0.001-0.457-0.003s-0.277-0.007-0.48-0.015s-0.373-0.022-0.51-0.044
		s-0.293-0.049-0.469-0.082s-0.321-0.077-0.437-0.132s-0.226-0.119-0.331-0.193s-0.185-0.165-0.237-0.272s-0.079-0.228-0.079-0.36
		c0-0.391,0.104-0.725,0.313-1.002s0.479-0.498,0.812-0.662c-0.203-0.055-0.379-0.138-0.527-0.249s-0.223-0.247-0.223-0.407
		c0-0.066,0.008-0.137,0.023-0.211s0.033-0.142,0.053-0.202s0.051-0.13,0.094-0.208s0.077-0.14,0.103-0.185s0.067-0.107,0.126-0.188
		s0.099-0.135,0.12-0.164s0.063-0.082,0.126-0.158s0.098-0.12,0.105-0.132c-0.5-0.594-0.75-1.344-0.75-2.25
		c0-0.52,0.082-0.982,0.246-1.389s0.419-0.731,0.765-0.976s0.759-0.366,1.239-0.366c0.277,0,0.52,0.039,0.727,0.117
		s0.376,0.177,0.507,0.296s0.259,0.276,0.384,0.472c0.297-0.551,0.719-0.844,1.266-0.879c0.012,0,0.023,0,0.035,0s0.026,0,0.044,0
		s0.03,0,0.038,0v1.225c-0.02,0-0.051,0-0.094,0c-0.168,0-0.295,0.002-0.381,0.006s-0.182,0.021-0.287,0.05
		s-0.189,0.075-0.252,0.138c0.07,0.152,0.132,0.354,0.185,0.606s0.079,0.485,0.079,0.7c0,0.523-0.079,0.986-0.237,1.389
		s-0.41,0.725-0.756,0.967s-0.765,0.363-1.257,0.363l-0.756-0.088c-0.008,0.02-0.027,0.054-0.059,0.103s-0.056,0.089-0.073,0.12
		s-0.034,0.071-0.05,0.12s-0.023,0.095-0.023,0.138c0,0.102,0.049,0.188,0.146,0.258s0.232,0.122,0.404,0.155
		s0.337,0.058,0.495,0.073s0.335,0.028,0.53,0.038s0.33,0.021,0.404,0.032c0.223,0.031,0.421,0.067,0.595,0.108
		s0.352,0.101,0.533,0.179s0.331,0.172,0.448,0.281s0.214,0.25,0.29,0.422s0.114,0.369,0.114,0.592c0,0.273-0.048,0.518-0.144,0.732
		s-0.224,0.393-0.384,0.533s-0.354,0.257-0.58,0.349s-0.465,0.157-0.715,0.196S32.283,34.949,31.998,34.949z M31.998,33.842
		c0.105,0,0.2-0.002,0.284-0.006s0.181-0.012,0.29-0.023s0.204-0.03,0.284-0.056s0.156-0.058,0.229-0.097s0.128-0.091,0.167-0.155
		s0.059-0.138,0.059-0.22c0-0.418-0.4-0.674-1.201-0.768l-1.236-0.146c-0.152,0.109-0.282,0.268-0.39,0.475s-0.161,0.424-0.161,0.65
		c0,0.062,0.021,0.116,0.064,0.161s0.106,0.079,0.19,0.103s0.17,0.043,0.258,0.059s0.192,0.025,0.313,0.029s0.225,0.006,0.311,0.006
		s0.187-0.002,0.302-0.006S31.955,33.842,31.998,33.842z M31.623,29.424c0.625,0,0.938-0.531,0.938-1.594
		c0-0.215-0.014-0.413-0.041-0.595s-0.074-0.359-0.141-0.533s-0.164-0.311-0.293-0.41s-0.283-0.149-0.463-0.149
		c-0.184,0-0.34,0.05-0.469,0.149s-0.226,0.236-0.29,0.41s-0.11,0.352-0.138,0.533s-0.041,0.38-0.041,0.595
		C30.686,28.893,30.998,29.424,31.623,29.424z"/>
	<path fill="#FFFFFF" d="M37.166,32.811c-0.363,0-0.679-0.062-0.946-0.188s-0.48-0.288-0.639-0.489s-0.286-0.459-0.384-0.773
		s-0.165-0.629-0.202-0.943s-0.06-0.681-0.067-1.099c-0.012-0.328-0.012-0.656,0-0.984c0.012-0.391,0.038-0.737,0.079-1.04
		s0.112-0.597,0.214-0.882s0.233-0.52,0.396-0.703s0.375-0.331,0.639-0.442s0.571-0.167,0.923-0.167c0.32,0,0.603,0.042,0.847,0.126
		s0.447,0.211,0.609,0.381s0.297,0.358,0.404,0.565s0.188,0.458,0.243,0.753s0.093,0.585,0.114,0.87s0.032,0.613,0.032,0.984v0.176
		h-3v0.375c0,0.051,0,0.131,0,0.24c-0.008,0.145-0.009,0.294-0.003,0.448s0.013,0.306,0.021,0.454s0.029,0.29,0.064,0.425
		s0.078,0.253,0.129,0.354s0.122,0.182,0.214,0.24s0.2,0.088,0.325,0.088c0.156,0,0.285-0.03,0.387-0.091s0.177-0.151,0.226-0.272
		s0.083-0.242,0.103-0.363s0.031-0.273,0.035-0.457V30.08h1.488v0.299c-0.035,0.801-0.232,1.406-0.592,1.816
		S37.912,32.811,37.166,32.811z M36.428,28.205h1.488v-0.451c-0.004-0.199-0.016-0.373-0.035-0.521s-0.054-0.297-0.103-0.445
		s-0.124-0.262-0.226-0.34s-0.227-0.117-0.375-0.117c-0.152,0-0.28,0.041-0.384,0.123s-0.18,0.2-0.229,0.354
		s-0.083,0.306-0.103,0.454s-0.031,0.326-0.035,0.533V28.205z"/>
	<path fill="#FFFFFF" d="M42.48,32.811c-0.617,0-1.112-0.184-1.485-0.551s-0.628-0.844-0.765-1.43l1.125-0.375
		c0.27,0.75,0.645,1.125,1.125,1.125c0.238,0,0.423-0.065,0.554-0.196s0.196-0.315,0.196-0.554c0-0.348-0.125-0.637-0.375-0.867
		l-1.5-1.125c-0.168-0.113-0.309-0.22-0.422-0.319s-0.229-0.222-0.346-0.366s-0.206-0.307-0.267-0.486s-0.091-0.375-0.091-0.586
		c0-0.641,0.204-1.131,0.612-1.471s0.954-0.51,1.638-0.51c0.324,0,0.617,0.052,0.879,0.155s0.481,0.249,0.659,0.437
		s0.324,0.396,0.439,0.624s0.206,0.483,0.272,0.765l-1.125,0.375c-0.055-0.148-0.109-0.276-0.164-0.384s-0.128-0.224-0.22-0.349
		s-0.2-0.222-0.325-0.29s-0.264-0.103-0.416-0.103c-0.238,0-0.423,0.065-0.554,0.196s-0.196,0.315-0.196,0.554
		c0,0.234,0.125,0.445,0.375,0.633l1.5,1.125c0.168,0.133,0.312,0.261,0.431,0.384s0.235,0.266,0.349,0.428s0.199,0.343,0.258,0.542
		s0.088,0.412,0.088,0.639c0,0.641-0.204,1.131-0.612,1.471S43.164,32.811,42.48,32.811z"/>
	<path fill="#FFFFFF" d="M47.725,32.811c-0.59,0-1.019-0.15-1.286-0.451s-0.405-0.756-0.413-1.365V26.33h-0.75v-1.125h0.75V22.58
		h1.5v2.625h1.125v1.125h-1.125v4.377c0,0.301,0.041,0.521,0.123,0.662s0.248,0.211,0.498,0.211c0.109,0,0.277-0.02,0.504-0.059
		v1.219C48.275,32.787,47.967,32.811,47.725,32.811z"/>
	<path fill="#FFFFFF" d="M51.826,32.811c-0.363,0-0.679-0.062-0.946-0.188s-0.48-0.288-0.639-0.489s-0.286-0.459-0.384-0.773
		s-0.165-0.629-0.202-0.943s-0.06-0.681-0.067-1.099c-0.012-0.328-0.012-0.656,0-0.984c0.012-0.391,0.038-0.737,0.079-1.04
		s0.112-0.597,0.214-0.882s0.233-0.52,0.396-0.703s0.375-0.331,0.639-0.442s0.571-0.167,0.923-0.167c0.32,0,0.603,0.042,0.847,0.126
		s0.447,0.211,0.609,0.381s0.297,0.358,0.404,0.565s0.188,0.458,0.243,0.753s0.093,0.585,0.114,0.87s0.032,0.613,0.032,0.984v0.176
		h-3v0.375c0,0.051,0,0.131,0,0.24c-0.008,0.145-0.009,0.294-0.003,0.448s0.013,0.306,0.021,0.454s0.029,0.29,0.064,0.425
		s0.078,0.253,0.129,0.354s0.122,0.182,0.214,0.24s0.2,0.088,0.325,0.088c0.156,0,0.285-0.03,0.387-0.091s0.177-0.151,0.226-0.272
		s0.083-0.242,0.103-0.363s0.031-0.273,0.035-0.457V30.08h1.488v0.299c-0.035,0.801-0.232,1.406-0.592,1.816
		S52.572,32.811,51.826,32.811z M51.088,28.205h1.488v-0.451c-0.004-0.199-0.016-0.373-0.035-0.521s-0.054-0.297-0.103-0.445
		s-0.124-0.262-0.226-0.34s-0.227-0.117-0.375-0.117c-0.152,0-0.28,0.041-0.384,0.123s-0.18,0.2-0.229,0.354
		s-0.083,0.306-0.103,0.454s-0.031,0.326-0.035,0.533V28.205z"/>
	<path fill="#FFFFFF" d="M56.924,32.811c-0.332,0-0.622-0.094-0.87-0.281s-0.439-0.441-0.574-0.762s-0.235-0.653-0.302-0.999
		s-0.107-0.718-0.123-1.116c-0.008-0.184-0.008-0.633,0-1.348c0.008-0.258,0.02-0.491,0.035-0.7s0.042-0.427,0.079-0.653
		s0.084-0.427,0.141-0.601s0.132-0.342,0.226-0.504s0.203-0.296,0.328-0.401s0.275-0.189,0.451-0.252S56.686,25.1,56.9,25.1
		c0.168,0,0.325,0.022,0.472,0.067s0.286,0.115,0.419,0.211s0.239,0.181,0.319,0.255s0.185,0.18,0.313,0.316v-3.738h1.5v10.494h-1.5
		v-0.68c-0.227,0.234-0.457,0.424-0.691,0.568S57.229,32.811,56.924,32.811z M57.299,31.58c0.363,0,0.738-0.078,1.125-0.234v-4.717
		c-0.336-0.199-0.711-0.299-1.125-0.299c-0.148,0-0.273,0.036-0.375,0.108s-0.178,0.178-0.229,0.316s-0.088,0.281-0.111,0.428
		s-0.037,0.319-0.041,0.519c-0.016,0.875-0.016,1.568,0,2.08c0.004,0.25,0.018,0.473,0.041,0.668s0.062,0.384,0.114,0.565
		s0.13,0.321,0.231,0.419S57.154,31.58,57.299,31.58z"/>
	<path fill="#FFFFFF" d="M15.779,47.105v-10.5h2.326c1.098,0,1.872,0.225,2.323,0.674s0.677,1.225,0.677,2.326v4.125
		c0,1.152-0.229,2.003-0.688,2.552s-1.233,0.823-2.323,0.823H15.779z M17.279,45.98h0.826c0.246,0,0.457-0.022,0.633-0.067
		s0.318-0.127,0.428-0.246s0.195-0.232,0.258-0.34s0.106-0.274,0.132-0.501s0.04-0.413,0.044-0.56s0.006-0.374,0.006-0.683
		c0-0.102,0-0.178,0-0.229V39.98c0-0.191-0.001-0.344-0.003-0.457s-0.008-0.247-0.018-0.401s-0.024-0.276-0.044-0.366
		s-0.047-0.19-0.082-0.302s-0.079-0.198-0.132-0.261s-0.117-0.128-0.193-0.196s-0.164-0.119-0.264-0.152s-0.216-0.061-0.349-0.082
		s-0.281-0.032-0.445-0.032h-0.797V45.98z"/>
	<path fill="#FFFFFF" d="M26.191,46.508c-0.348,0.469-0.924,0.703-1.729,0.703s-1.381-0.234-1.729-0.703s-0.521-1.145-0.521-2.027
		v-2.25c0-0.883,0.174-1.559,0.521-2.027s0.924-0.703,1.729-0.703s1.381,0.234,1.729,0.703s0.521,1.145,0.521,2.027v2.25
		C26.713,45.363,26.539,46.039,26.191,46.508z M24.185,45.934c0.08,0.031,0.173,0.047,0.278,0.047s0.198-0.016,0.278-0.047
		s0.146-0.069,0.199-0.114s0.097-0.111,0.132-0.199s0.062-0.165,0.082-0.231s0.033-0.162,0.041-0.287s0.013-0.224,0.015-0.296
		s0.003-0.181,0.003-0.325v-2.25c0-0.145-0.001-0.253-0.003-0.325s-0.007-0.171-0.015-0.296s-0.021-0.221-0.041-0.287
		s-0.047-0.144-0.082-0.231s-0.079-0.154-0.132-0.199s-0.119-0.083-0.199-0.114s-0.173-0.047-0.278-0.047s-0.198,0.016-0.278,0.047
		s-0.146,0.069-0.199,0.114s-0.097,0.111-0.132,0.199s-0.062,0.165-0.082,0.231s-0.033,0.162-0.041,0.287s-0.013,0.224-0.015,0.296
		s-0.003,0.181-0.003,0.325v2.25c0,0.145,0.001,0.253,0.003,0.325s0.007,0.171,0.015,0.296s0.021,0.221,0.041,0.287
		s0.047,0.144,0.082,0.231s0.079,0.154,0.132,0.199S24.104,45.902,24.185,45.934z"/>
	<path fill="#FFFFFF" d="M27.943,47.105v-7.5h1.5v0.809c0.223-0.203,0.404-0.358,0.545-0.466s0.335-0.209,0.583-0.305
		s0.513-0.144,0.794-0.144c0.32,0,0.58,0.117,0.779,0.352s0.299,0.521,0.299,0.861v6.393h-1.5V41.48
		c0-0.262-0.037-0.452-0.111-0.571s-0.225-0.179-0.451-0.179c-0.129,0-0.257,0.026-0.384,0.079s-0.222,0.102-0.284,0.146
		s-0.152,0.116-0.27,0.214v5.936H27.943z"/>
	<path fill="#FFFFFF" d="M35.062,47.211c-0.418,0-0.772-0.181-1.063-0.542s-0.437-0.769-0.437-1.222c0-0.363,0.062-0.693,0.185-0.99
		s0.253-0.534,0.39-0.712s0.365-0.361,0.686-0.551s0.562-0.319,0.727-0.39s0.449-0.186,0.855-0.346
		c0.07-0.027,0.123-0.049,0.158-0.064v-0.539c0-0.379-0.053-0.673-0.158-0.882s-0.303-0.313-0.592-0.313
		c-0.258,0-0.442,0.089-0.554,0.267s-0.175,0.423-0.19,0.735c-0.004,0.043-0.006,0.107-0.006,0.193h-1.5
		c0.008-0.719,0.209-1.291,0.604-1.717s0.943-0.639,1.646-0.639c0.699,0,1.249,0.216,1.649,0.647s0.601,1.001,0.601,1.708v3.375
		c0,0.781,0.064,1.406,0.193,1.875h-1.494l-0.199-1.125c-0.078,0.156-0.142,0.277-0.19,0.363s-0.12,0.192-0.214,0.319
		s-0.188,0.225-0.281,0.293s-0.211,0.128-0.352,0.179S35.23,47.211,35.062,47.211z M35.812,45.98c0.105,0,0.208-0.031,0.308-0.094
		s0.175-0.123,0.226-0.182s0.113-0.137,0.188-0.234c0.012-0.02,0.021-0.033,0.029-0.041v-2.074
		c-0.062,0.043-0.166,0.109-0.311,0.199s-0.26,0.163-0.346,0.22s-0.189,0.135-0.311,0.234s-0.215,0.195-0.281,0.287
		s-0.125,0.204-0.176,0.337s-0.076,0.271-0.076,0.416C35.062,45.67,35.312,45.98,35.812,45.98z"/>
	<path fill="#FFFFFF" d="M41.232,47.211c-0.59,0-1.019-0.15-1.286-0.451s-0.405-0.756-0.413-1.365V40.73h-0.75v-1.125h0.75V36.98
		h1.5v2.625h1.125v1.125h-1.125v4.377c0,0.301,0.041,0.521,0.123,0.662s0.248,0.211,0.498,0.211c0.109,0,0.277-0.02,0.504-0.059
		v1.219C41.783,47.188,41.475,47.211,41.232,47.211z"/>
	<path fill="#FFFFFF" d="M43.318,38.48v-1.5h1.5v1.5H43.318z M43.318,47.105v-7.5h1.5v7.5H43.318z"/>
	<path fill="#FFFFFF" d="M50.092,46.508c-0.348,0.469-0.924,0.703-1.729,0.703s-1.381-0.234-1.729-0.703s-0.521-1.145-0.521-2.027
		v-2.25c0-0.883,0.174-1.559,0.521-2.027s0.924-0.703,1.729-0.703s1.381,0.234,1.729,0.703s0.521,1.145,0.521,2.027v2.25
		C50.613,45.363,50.439,46.039,50.092,46.508z M48.085,45.934c0.08,0.031,0.173,0.047,0.278,0.047s0.198-0.016,0.278-0.047
		s0.146-0.069,0.199-0.114s0.097-0.111,0.132-0.199s0.062-0.165,0.082-0.231s0.033-0.162,0.041-0.287s0.013-0.224,0.015-0.296
		s0.003-0.181,0.003-0.325v-2.25c0-0.145-0.001-0.253-0.003-0.325s-0.007-0.171-0.015-0.296s-0.021-0.221-0.041-0.287
		s-0.047-0.144-0.082-0.231s-0.079-0.154-0.132-0.199s-0.119-0.083-0.199-0.114s-0.173-0.047-0.278-0.047s-0.198,0.016-0.278,0.047
		s-0.146,0.069-0.199,0.114s-0.097,0.111-0.132,0.199s-0.062,0.165-0.082,0.231s-0.033,0.162-0.041,0.287s-0.013,0.224-0.015,0.296
		s-0.003,0.181-0.003,0.325v2.25c0,0.145,0.001,0.253,0.003,0.325s0.007,0.171,0.015,0.296s0.021,0.221,0.041,0.287
		s0.047,0.144,0.082,0.231s0.079,0.154,0.132,0.199S48.005,45.902,48.085,45.934z"/>
	<path fill="#FFFFFF" d="M51.844,47.105v-7.5h1.5v0.809c0.223-0.203,0.404-0.358,0.545-0.466s0.335-0.209,0.583-0.305
		s0.513-0.144,0.794-0.144c0.32,0,0.58,0.117,0.779,0.352s0.299,0.521,0.299,0.861v6.393h-1.5V41.48
		c0-0.262-0.037-0.452-0.111-0.571s-0.225-0.179-0.451-0.179c-0.129,0-0.257,0.026-0.384,0.079s-0.222,0.102-0.284,0.146
		s-0.152,0.116-0.27,0.214v5.936H51.844z"/>
</g>
</svg>
