<?xml version="1.0" encoding="utf-8"?>
<!-- Generator: Adobe Illustrator 15.1.0, SVG Export Plug-In . SVG Version: 6.00 Build 0)  -->
<!DOCTYPE svg PUBLIC "-//W3C//DTD SVG 1.1//EN" "http://www.w3.org/Graphics/SVG/1.1/DTD/svg11.dtd">
<svg version="1.1" id="Layer_1" xmlns="http://www.w3.org/2000/svg" xmlns:xlink="http://www.w3.org/1999/xlink" x="0px" y="0px"
	 width="72px" height="72px" viewBox="0 0 72 72" enable-background="new 0 0 72 72" xml:space="preserve">
<path fill="#F2633E" d="M66.731,58.166c0,6.627-5.373,12-12,12H17.398c-6.628,0-12-5.373-12-12V13.833c0-6.627,5.372-12,12-12
	h37.333c6.627,0,12,5.373,12,12V58.166z"/>
<path fill="#FFFFFF" d="M36,7.255c-10.409,0-18.847,8.438-18.847,18.847c0,4.758,1.766,9.106,4.677,12.428
	c0.545,0.621,1.138,1.208,1.76,1.76c0.558,0.487,1.145,0.944,1.761,1.367c3.027,2.077,6.694,3.298,10.649,3.298
	c4.008,0,7.722-1.25,10.778-3.386c0.616-0.429,1.203-0.892,1.761-1.391c0.628-0.558,1.215-1.156,1.76-1.79
	c2.834-3.297,4.548-7.586,4.548-12.28C54.847,15.692,46.409,7.255,36,7.255z M40.724,34.973l-3.832-2.253
	c-0.551-0.322-1.232-0.322-1.783,0l-3.832,2.253c-1.338,0.787-2.969-0.422-2.604-1.93l0.681-2.805l0.346-1.426
	c0.029-0.112,0.041-0.224,0.047-0.335c0.023-0.528-0.188-1.044-0.593-1.402l-0.393-0.346l-3.134-2.753
	c-1.155-1.021-0.54-2.928,0.998-3.074l4.688-0.44c0.65-0.058,1.214-0.48,1.46-1.085l1.603-3.891c0.598-1.455,2.658-1.455,3.257,0
	l1.602,3.891c0.246,0.604,0.81,1.021,1.461,1.085l4.688,0.44c1.537,0.146,2.152,2.054,0.997,3.074l-3.122,2.747l-0.398,0.352
	c-0.405,0.358-0.616,0.874-0.593,1.402c0.006,0.111,0.018,0.223,0.047,0.335l0.347,1.426l0.681,2.805
	C43.692,34.557,42.067,35.76,40.724,34.973z"/>
<path fill="#FFFFFF" d="M27.292,46.708c-0.662-0.281-1.313-0.593-1.941-0.933v16.98c0,1.203,0.979,1.989,2.001,1.989
	c0.517,0,1.038-0.199,1.449-0.651l5.797-6.343c0.394-0.429,0.927-0.646,1.467-0.646c0.534,0,1.074,0.217,1.467,0.646l5.797,6.343
	c0.411,0.452,0.934,0.651,1.449,0.651c1.021,0,2.001-0.786,2.001-1.989V45.705c-0.668,0.369-1.361,0.704-2.07,1.003
	c-2.758,1.168-5.692,1.761-8.708,1.761S30.05,47.876,27.292,46.708z"/>
</svg>
