<?xml version="1.0" encoding="utf-8"?>
<!-- Generator: Adobe Illustrator 16.0.0, SVG Export Plug-In . SVG Version: 6.00 Build 0)  -->
<!DOCTYPE svg PUBLIC "-//W3C//DTD SVG 1.1//EN" "http://www.w3.org/Graphics/SVG/1.1/DTD/svg11.dtd">
<svg version="1.1" id="Layer_1" xmlns="http://www.w3.org/2000/svg" xmlns:xlink="http://www.w3.org/1999/xlink" x="0px" y="0px"
	 width="72px" height="72px" viewBox="0 0 72 72" enable-background="new 0 0 72 72" xml:space="preserve">
<g>
	<defs>
		<rect id="SVGID_11_" x="10.231" y="13.766" width="50.002" height="49.132"/>
	</defs>
	<clipPath id="SVGID_2_">
		<use xlink:href="#SVGID_11_"  overflow="visible"/>
	</clipPath>
	<path clip-path="url(#SVGID_2_)" fill="#FFFFFF" d="M24.294,26.049c-0.861,0-1.561-0.688-1.561-1.536v-6.142
		c0-0.847,0.699-1.535,1.561-1.535h6.252c0.861,0,1.562,0.688,1.562,1.535v6.142c0,0.848-0.701,1.536-1.562,1.536H24.294z
		 M13.356,21.442c0-0.847,0.701-1.535,1.562-1.535h4.689v3.07h-4.689C14.058,22.978,13.356,22.29,13.356,21.442 M57.108,21.442
		c0,0.848-0.7,1.535-1.562,1.535H35.233v-3.07h20.312C56.408,19.907,57.108,20.596,57.108,21.442 M34.946,26.049h20.6
		c2.584,0,4.688-2.067,4.688-4.606c0-2.54-2.104-4.606-4.688-4.606h-20.6c-0.648-1.782-2.367-3.07-4.4-3.07h-6.252
		c-2.033,0-3.752,1.288-4.398,3.07h-4.977c-2.584,0-4.688,2.066-4.688,4.606c0,2.539,2.104,4.606,4.688,4.606h4.977
		c0.646,1.782,2.365,3.071,4.398,3.071h6.252C32.579,29.12,34.298,27.831,34.946,26.049"/>
	<path clip-path="url(#SVGID_2_)" fill="#FFFFFF" d="M30.544,59.827c-0.859,0-1.561-0.688-1.561-1.535v-6.143
		c0-0.847,0.701-1.535,1.561-1.535h6.252c0.861,0,1.562,0.688,1.562,1.535v6.143c0,0.847-0.701,1.535-1.562,1.535H30.544z
		 M13.356,55.221c0-0.848,0.701-1.536,1.562-1.536h10.939v3.071H14.919C14.058,56.756,13.356,56.067,13.356,55.221 M57.108,55.221
		c0,0.847-0.7,1.535-1.562,1.535H41.483v-3.071h14.062C56.408,53.685,57.108,54.373,57.108,55.221 M41.196,59.827h14.35
		c2.586,0,4.688-2.066,4.688-4.606s-2.102-4.606-4.688-4.606h-14.35c-0.648-1.782-2.367-3.07-4.4-3.07h-6.252
		c-2.033,0-3.752,1.288-4.398,3.07H14.919c-2.584,0-4.688,2.066-4.688,4.606s2.104,4.606,4.688,4.606h11.227
		c0.646,1.782,2.365,3.07,4.398,3.07h6.252C38.829,62.897,40.548,61.609,41.196,59.827"/>
	<path clip-path="url(#SVGID_2_)" fill="#FFFFFF" d="M13.356,38.332c0-0.848,0.701-1.536,1.562-1.536h23.439v3.071H14.919
		C14.058,39.867,13.356,39.179,13.356,38.332 M57.108,38.332c0,0.847-0.7,1.535-1.562,1.535h-1.562v-3.071h1.562
		C56.408,36.796,57.108,37.484,57.108,38.332 M53.695,42.938h1.851c2.586,0,4.688-2.066,4.688-4.605
		c0-2.541-2.102-4.606-4.688-4.606h-1.851c-0.647-1.783-2.365-3.07-4.399-3.07h-6.25c-2.035,0-3.752,1.287-4.398,3.07H14.919
		c-2.584,0-4.686,2.065-4.686,4.606c0,2.539,2.102,4.605,4.686,4.605h23.727c0.648,1.782,2.365,3.07,4.4,3.07h6.25
		C51.33,46.008,53.048,44.72,53.695,42.938"/>
</g>
</svg>
