<?xml version="1.0" encoding="utf-8"?>
<!-- Generator: Adobe Illustrator 16.0.0, SVG Export Plug-In . SVG Version: 6.00 Build 0)  -->
<!DOCTYPE svg PUBLIC "-//W3C//DTD SVG 1.1//EN" "http://www.w3.org/Graphics/SVG/1.1/DTD/svg11.dtd">
<svg version="1.1" id="Layer_1" xmlns="http://www.w3.org/2000/svg" xmlns:xlink="http://www.w3.org/1999/xlink" x="0px" y="0px"
	 width="72px" height="72px" viewBox="0 0 72 72" enable-background="new 0 0 72 72" xml:space="preserve">
<path fill="none" stroke="#414042" stroke-miterlimit="10" d="M66.667,57.168c0,6.627-5.373,12-12,12H17.334
	c-6.628,0-12-5.373-12-12V12.834c0-6.627,5.372-12,12-12h37.333c6.627,0,12,5.373,12,12V57.168z"/>
<g>
	<path fill="#414042" d="M26.994,31.329v-10.5h4.125v1.125h-2.625v3.375h1.875v1.125h-1.875v4.875H26.994z"/>
	<path fill="#414042" d="M31.506,31.329v-7.5h1.5v1.002c0.152-0.297,0.374-0.556,0.665-0.776s0.614-0.331,0.97-0.331
		c0.012,0,0.092,0.008,0.24,0.023v1.658c-0.277-0.109-0.555-0.164-0.832-0.164c-0.312,0-0.564,0.094-0.756,0.281
		s-0.287,0.436-0.287,0.744v5.062H31.506z"/>
	<path fill="#414042" d="M37.629,31.434c-0.363,0-0.679-0.062-0.946-0.188s-0.48-0.288-0.639-0.489s-0.286-0.459-0.384-0.773
		s-0.165-0.629-0.202-0.943s-0.06-0.681-0.067-1.099c-0.012-0.328-0.012-0.656,0-0.984c0.012-0.391,0.038-0.737,0.079-1.04
		s0.112-0.597,0.214-0.882s0.233-0.52,0.396-0.703s0.375-0.331,0.639-0.442s0.571-0.167,0.923-0.167c0.32,0,0.603,0.042,0.847,0.126
		s0.447,0.211,0.609,0.381s0.297,0.358,0.404,0.565s0.188,0.458,0.243,0.753s0.093,0.585,0.114,0.87s0.032,0.613,0.032,0.984v0.176
		h-3v0.375c0,0.051,0,0.131,0,0.24c-0.008,0.145-0.009,0.294-0.003,0.448s0.013,0.306,0.021,0.454s0.029,0.29,0.064,0.425
		s0.078,0.253,0.129,0.354s0.122,0.182,0.214,0.24s0.2,0.088,0.325,0.088c0.156,0,0.285-0.03,0.387-0.091s0.177-0.151,0.226-0.272
		s0.083-0.242,0.103-0.363s0.031-0.273,0.035-0.457v-0.316h1.488v0.299c-0.035,0.801-0.232,1.406-0.592,1.816
		S38.375,31.434,37.629,31.434z M36.891,26.829h1.488v-0.451c-0.004-0.199-0.016-0.373-0.035-0.521s-0.054-0.297-0.103-0.445
		s-0.124-0.262-0.226-0.34s-0.227-0.117-0.375-0.117c-0.152,0-0.28,0.041-0.384,0.123s-0.18,0.2-0.229,0.354
		s-0.083,0.306-0.103,0.454s-0.031,0.326-0.035,0.533V26.829z"/>
	<path fill="#414042" d="M43.096,31.434c-0.363,0-0.679-0.062-0.946-0.188s-0.48-0.288-0.639-0.489s-0.286-0.459-0.384-0.773
		s-0.165-0.629-0.202-0.943s-0.06-0.681-0.067-1.099c-0.012-0.328-0.012-0.656,0-0.984c0.012-0.391,0.038-0.737,0.079-1.04
		s0.112-0.597,0.214-0.882s0.233-0.52,0.396-0.703s0.375-0.331,0.639-0.442s0.571-0.167,0.923-0.167c0.32,0,0.603,0.042,0.847,0.126
		s0.447,0.211,0.609,0.381s0.297,0.358,0.404,0.565s0.188,0.458,0.243,0.753s0.093,0.585,0.114,0.87s0.032,0.613,0.032,0.984v0.176
		h-3v0.375c0,0.051,0,0.131,0,0.24c-0.008,0.145-0.009,0.294-0.003,0.448s0.013,0.306,0.021,0.454s0.029,0.29,0.064,0.425
		s0.078,0.253,0.129,0.354s0.122,0.182,0.214,0.24s0.2,0.088,0.325,0.088c0.156,0,0.285-0.03,0.387-0.091s0.177-0.151,0.226-0.272
		s0.083-0.242,0.103-0.363s0.031-0.273,0.035-0.457v-0.316h1.488v0.299c-0.035,0.801-0.232,1.406-0.592,1.816
		S43.842,31.434,43.096,31.434z M42.357,26.829h1.488v-0.451c-0.004-0.199-0.016-0.373-0.035-0.521s-0.054-0.297-0.103-0.445
		s-0.124-0.262-0.226-0.34s-0.227-0.117-0.375-0.117c-0.152,0-0.28,0.041-0.384,0.123s-0.18,0.2-0.229,0.354
		s-0.083,0.306-0.103,0.454s-0.031,0.326-0.035,0.533V26.829z"/>
	<path fill="#414042" d="M11.595,45.729l2.25-10.5h1.5l2.25,10.5h-1.5l-0.562-2.625h-1.875l-0.562,2.625H11.595z M13.845,41.979h1.5
		l-0.75-4.5L13.845,41.979z"/>
	<path fill="#414042" d="M20.126,45.834c-0.332,0-0.622-0.094-0.87-0.281s-0.439-0.441-0.574-0.762s-0.235-0.652-0.302-0.998
		s-0.107-0.719-0.123-1.117c-0.008-0.184-0.008-0.633,0-1.348c0.008-0.258,0.02-0.49,0.035-0.699s0.042-0.428,0.079-0.654
		s0.084-0.426,0.141-0.6s0.132-0.342,0.226-0.504s0.203-0.297,0.328-0.402s0.275-0.189,0.451-0.252s0.371-0.094,0.586-0.094
		c0.168,0,0.325,0.023,0.472,0.068s0.286,0.115,0.419,0.211s0.239,0.18,0.319,0.254s0.185,0.18,0.313,0.316v-3.738h1.5v10.494h-1.5
		v-0.68c-0.227,0.234-0.457,0.424-0.691,0.568S20.431,45.834,20.126,45.834z M20.501,44.604c0.363,0,0.738-0.078,1.125-0.234v-4.717
		c-0.336-0.199-0.711-0.299-1.125-0.299c-0.148,0-0.273,0.037-0.375,0.109s-0.178,0.178-0.229,0.316s-0.088,0.281-0.111,0.428
		s-0.037,0.318-0.041,0.518c-0.016,0.875-0.016,1.568,0,2.08c0.004,0.25,0.018,0.473,0.041,0.668s0.062,0.385,0.114,0.566
		s0.13,0.32,0.231,0.418S20.356,44.604,20.501,44.604z"/>
	<path fill="#414042" d="M24.526,45.729v-7.5h1.5v0.85c0.535-0.637,1.158-0.955,1.869-0.955c0.359,0,0.623,0.08,0.791,0.238
		s0.281,0.408,0.34,0.752c0.246-0.324,0.512-0.57,0.797-0.738s0.645-0.252,1.078-0.252c0.125,0,0.237,0.014,0.337,0.039
		s0.187,0.055,0.261,0.09s0.14,0.09,0.196,0.162s0.104,0.139,0.141,0.199s0.068,0.146,0.094,0.26s0.044,0.207,0.056,0.281
		s0.021,0.184,0.029,0.328s0.012,0.258,0.012,0.34s0,0.205,0,0.369c0,0.035,0,0.062,0,0.082v5.455h-1.5v-5.473
		c0-0.02,0-0.051,0-0.094c0-0.129-0.002-0.229-0.006-0.299s-0.017-0.15-0.038-0.242s-0.06-0.16-0.114-0.203
		s-0.127-0.064-0.217-0.064c-0.152,0-0.305,0.031-0.457,0.092s-0.271,0.119-0.354,0.176s-0.188,0.135-0.313,0.236v5.871h-1.5v-5.443
		c0-0.023,0-0.059,0-0.105c0-0.109,0-0.191,0-0.246s-0.007-0.125-0.021-0.213s-0.032-0.154-0.056-0.197s-0.061-0.082-0.111-0.117
		s-0.113-0.053-0.188-0.053c-0.367,0-0.742,0.158-1.125,0.475v5.9H24.526z"/>
	<path fill="#414042" d="M33.403,37.104v-1.5h1.5v1.5H33.403z M33.403,45.729v-7.5h1.5v7.5H33.403z"/>
	<path fill="#414042" d="M38.308,45.834c-0.617,0-1.112-0.184-1.485-0.551s-0.628-0.844-0.765-1.43l1.125-0.375
		c0.27,0.75,0.645,1.125,1.125,1.125c0.238,0,0.423-0.064,0.554-0.195s0.196-0.316,0.196-0.555c0-0.348-0.125-0.637-0.375-0.867
		l-1.5-1.125c-0.168-0.113-0.309-0.219-0.422-0.318s-0.229-0.223-0.346-0.367s-0.206-0.307-0.267-0.486s-0.091-0.375-0.091-0.586
		c0-0.641,0.204-1.131,0.612-1.471s0.954-0.51,1.638-0.51c0.324,0,0.617,0.053,0.879,0.156s0.481,0.248,0.659,0.436
		s0.324,0.396,0.439,0.625s0.206,0.482,0.272,0.764l-1.125,0.375c-0.055-0.148-0.109-0.275-0.164-0.383s-0.128-0.225-0.22-0.35
		s-0.2-0.221-0.325-0.289s-0.264-0.104-0.416-0.104c-0.238,0-0.423,0.066-0.554,0.197s-0.196,0.314-0.196,0.553
		c0,0.234,0.125,0.445,0.375,0.633l1.5,1.125c0.168,0.133,0.312,0.262,0.431,0.385s0.235,0.266,0.349,0.428s0.199,0.342,0.258,0.541
		s0.088,0.412,0.088,0.639c0,0.641-0.204,1.131-0.612,1.471S38.991,45.834,38.308,45.834z"/>
	<path fill="#414042" d="M43.44,45.834c-0.617,0-1.112-0.184-1.485-0.551s-0.628-0.844-0.765-1.43l1.125-0.375
		c0.27,0.75,0.645,1.125,1.125,1.125c0.238,0,0.423-0.064,0.554-0.195s0.196-0.316,0.196-0.555c0-0.348-0.125-0.637-0.375-0.867
		l-1.5-1.125c-0.168-0.113-0.309-0.219-0.422-0.318s-0.229-0.223-0.346-0.367s-0.206-0.307-0.267-0.486s-0.091-0.375-0.091-0.586
		c0-0.641,0.204-1.131,0.612-1.471s0.954-0.51,1.638-0.51c0.324,0,0.617,0.053,0.879,0.156s0.481,0.248,0.659,0.436
		s0.324,0.396,0.439,0.625s0.206,0.482,0.272,0.764l-1.125,0.375c-0.055-0.148-0.109-0.275-0.164-0.383s-0.128-0.225-0.22-0.35
		s-0.2-0.221-0.325-0.289s-0.264-0.104-0.416-0.104c-0.238,0-0.423,0.066-0.554,0.197s-0.196,0.314-0.196,0.553
		c0,0.234,0.125,0.445,0.375,0.633l1.5,1.125c0.168,0.133,0.312,0.262,0.431,0.385s0.235,0.266,0.349,0.428s0.199,0.342,0.258,0.541
		s0.088,0.412,0.088,0.639c0,0.641-0.204,1.131-0.612,1.471S44.124,45.834,43.44,45.834z"/>
	<path fill="#414042" d="M46.669,37.104v-1.5h1.5v1.5H46.669z M46.669,45.729v-7.5h1.5v7.5H46.669z"/>
	<path fill="#414042" d="M53.442,45.131c-0.348,0.469-0.924,0.703-1.729,0.703s-1.381-0.234-1.729-0.703s-0.521-1.145-0.521-2.027
		v-2.25c0-0.883,0.174-1.559,0.521-2.027s0.924-0.703,1.729-0.703s1.381,0.234,1.729,0.703s0.521,1.145,0.521,2.027v2.25
		C53.964,43.986,53.79,44.662,53.442,45.131z M51.436,44.557c0.08,0.031,0.173,0.047,0.278,0.047s0.198-0.016,0.278-0.047
		s0.146-0.068,0.199-0.113s0.097-0.111,0.132-0.199s0.062-0.166,0.082-0.232s0.033-0.162,0.041-0.287s0.013-0.223,0.015-0.295
		s0.003-0.182,0.003-0.326v-2.25c0-0.145-0.001-0.252-0.003-0.324s-0.007-0.172-0.015-0.297s-0.021-0.221-0.041-0.287
		s-0.047-0.143-0.082-0.23s-0.079-0.154-0.132-0.199s-0.119-0.084-0.199-0.115s-0.173-0.047-0.278-0.047s-0.198,0.016-0.278,0.047
		s-0.146,0.07-0.199,0.115s-0.097,0.111-0.132,0.199s-0.062,0.164-0.082,0.23s-0.033,0.162-0.041,0.287s-0.013,0.225-0.015,0.297
		s-0.003,0.18-0.003,0.324v2.25c0,0.145,0.001,0.254,0.003,0.326s0.007,0.17,0.015,0.295s0.021,0.221,0.041,0.287
		s0.047,0.145,0.082,0.232s0.079,0.154,0.132,0.199S51.355,44.525,51.436,44.557z"/>
	<path fill="#414042" d="M55.194,45.729v-7.5h1.5v0.809c0.223-0.203,0.404-0.357,0.545-0.465s0.335-0.209,0.583-0.305
		s0.513-0.145,0.794-0.145c0.32,0,0.58,0.117,0.779,0.352s0.299,0.521,0.299,0.861v6.393h-1.5v-5.625
		c0-0.262-0.037-0.451-0.111-0.57s-0.225-0.18-0.451-0.18c-0.129,0-0.257,0.027-0.384,0.08s-0.222,0.102-0.284,0.146
		s-0.152,0.115-0.27,0.213v5.936H55.194z"/>
</g>
</svg>
