<?xml version="1.0" encoding="utf-8"?>
<!-- Generator: Adobe Illustrator 16.0.0, SVG Export Plug-In . SVG Version: 6.00 Build 0)  -->
<!DOCTYPE svg PUBLIC "-//W3C//DTD SVG 1.1//EN" "http://www.w3.org/Graphics/SVG/1.1/DTD/svg11.dtd">
<svg version="1.1" id="Layer_1" xmlns="http://www.w3.org/2000/svg" xmlns:xlink="http://www.w3.org/1999/xlink" x="0px" y="0px"
	 width="72px" height="72px" viewBox="0 0 72 72" enable-background="new 0 0 72 72" xml:space="preserve">
<g>
	<path fill="#FFFFFF" stroke="#414042" stroke-width="0.75" stroke-miterlimit="10" d="M8.625,38.25L8.5,23.75
		c0,0-0.125-3,2.5-3.125c0,0,1.75,0,1.75,3.25l0.125,6.875V16.875c0,0,0-3.625,2.75-3.5c0,0,2.5,0.125,2.375,3.5v14
		c0,0-0.75-16.875,0.25-17.25c0,0,3.125-4,5.125,0.375l-0.125,2.625v14L23.5,15.75c0,0,3.625-5.375,5.25,1v18.375
		c0,0,0-7.125,0.75-8.375c0,0,4.375-4.5,4.5,6.5c0,0,1.625,17.25-10.5,18c0,0-6.875,1.125-12.125-4.25
		C11.375,47,8.25,43.25,8.625,38.25z"/>
	<path fill="#414042" d="M8.875,25.75c0,0,2.375-0.125,2.625,2.5c0,0,1,2,1-3c0,0,0.375-7.375-3.75-3L8.875,25.75z"/>
	<path fill="#414042" d="M12.875,19.5c0,0,0.5,6.125,2,3.375c0,0-0.125-3.75,2-2.75c0,0,0.25,5,0.5,3.875s1.5-9.625-0.875-10
		C16.5,14,12.75,11,12.875,19.5z"/>
	<path fill="#414042" d="M18.375,18.375c0,0,3.125,0.25,3.75,1.875c0,0,1.25,2,1.125-3c0,0,1.125-5.25-2.75-5.25
		C20.5,12,16.25,13.625,18.375,18.375z"/>
	<path fill="#414042" d="M23.75,17.75c0,0,3.5-2,4.875,0.625c0,0,0.5-7.75-4.875-3.375V17.75z"/>
	<path fill="#414042" d="M23.375,43.625c0,0-1.375-3.125-2.625-2.5c0,0-3.875,5.75,2.375,7c0,0,5.5,0.5,3.75-5
		C26.875,43.125,25.125,45.75,23.375,43.625z"/>
	<path fill="#FFFFFF" stroke="#414042" stroke-width="0.75" stroke-miterlimit="10" d="M62.5,37.625l0.125-14.5
		c0,0,0.125-3-2.5-3.125c0,0-1.75,0-1.75,3.25l-0.125,6.875V16.25c0,0,0-3.625-2.75-3.5c0,0-2.5,0.125-2.375,3.5v14
		c0,0,0.75-16.875-0.25-17.25c0,0-3.125-4-5.125,0.375L47.875,16v14l-0.25-14.875c0,0-3.625-5.375-5.25,1V34.5
		c0,0,0-7.125-0.75-8.375c0,0-4.5-2.875-4.625,8.125c0,0-1.5,15.625,10.625,16.375c0,0,6.875,1.125,12.125-4.25
		C59.75,46.375,62.875,42.625,62.5,37.625z"/>
	<path fill="#414042" d="M37.125,31.375c0,0,2-0.875,2.375,1.125c0,0,2.5,2,2.625-3.625c0,0,0.5-3.5-2.875-2.75
		C39.25,26.125,36.625,28.125,37.125,31.375z"/>
	<path fill="#414042" d="M42.625,19.375l4.625-0.25c0,0,1.75-5.75-2.75-6C44.5,13.125,41.875,14.875,42.625,19.375z"/>
	<path fill="#414042" d="M48.125,20.75c0,0,0,4.625,2.375,2.875c0,0-0.125-3.875,1.125-2.125c0,0,1.25,2,1.375,0.125
		c0,0,1.125-7.875-0.875-9.25c0,0-2.125-2.75-4.125,0.75L48.125,20.75z"/>
	<path fill="#414042" d="M53.5,17.25c0,0,2.625-0.75,3.25,1.75c0,0,1.5,0.875,1.5-2.75c0,0-0.875-4.5-3.5-3.125
		C54.75,13.125,53.125,12.75,53.5,17.25z"/>
	<path fill="#414042" d="M58.375,25.25l4.375-0.75c0,0,0.25-4.125-2.375-4.375s-0.125-0.5-0.125-0.5S58.125,20.375,58.375,25.25z"/>
	<path fill="#414042" d="M55.125,49.375c0,0-4.25-9.625,5.625-5.25C60.75,44.125,62.875,45.75,55.125,49.375z"/>
	<path fill="#414042" d="M55.625,43.5c0,0-1.5-2.25,2-4.5c0,0,3-0.125,2.875-2.625c0,0,2-4.125,2,1.25c0,0-0.25,5.5-1.25,6.375
		S55.625,43.5,55.625,43.5z"/>
	<path fill="#414042" d="M57.381,46.997c0,0-3.065-1.915-7.131,0.378l-4.77,2.785C45.48,50.16,56.25,51.625,57.381,46.997z"/>
</g>
</svg>
