<?xml version="1.0" encoding="utf-8"?>
<!-- Generator: Adobe Illustrator 16.0.0, SVG Export Plug-In . SVG Version: 6.00 Build 0)  -->
<!DOCTYPE svg PUBLIC "-//W3C//DTD SVG 1.1//EN" "http://www.w3.org/Graphics/SVG/1.1/DTD/svg11.dtd">
<svg version="1.1" id="Layer_1" xmlns="http://www.w3.org/2000/svg" xmlns:xlink="http://www.w3.org/1999/xlink" x="0px" y="0px"
	 width="72px" height="72px" viewBox="0 0 72 72" enable-background="new 0 0 72 72" xml:space="preserve">
<path fill="none" stroke="#414042" stroke-width="3" stroke-miterlimit="10" d="M16.333,56l0.333-36.667
	C16.666,19.333,16,8,31,4.666c0,0,18.666-1.999,20.666,13.667v39.333C51.666,57.667,34.333,73,16.333,56z"/>
<polygon fill="#FFFFFF" stroke="#414042" stroke-miterlimit="10" points="15.666,53.667 8.333,58.667 16.333,62.667 17.333,59.667 
	"/>
<path fill="#414042" d="M17,57.334c0,1,13.666,5.333,13.666,5.333l-11,3l-2.333-6l9.334-3l1,3l5,3.667"/>
<polyline fill="#414042" points="24.333,67.334 30,68.667 30.666,62.667 26,63 23,66.667 "/>
<polyline fill="#414042" points="14.667,58 14.123,59.243 12.333,63.334 16,64.334 21,62 15.666,53.667 10,56.667 8,50.334 
	16,50.334 "/>
<polygon fill="#414042" points="10,65 12.667,66.334 8.667,67.667 "/>
<polygon fill="#414042" points="28,68.667 42.667,68.334 43.333,61.667 29.667,63.667 "/>
<polygon fill="#FFFFFF" stroke="#414042" stroke-miterlimit="10" points="30,61.334 35.667,59 43.333,61.667 32.667,63.334 "/>
<polygon fill="#FFFFFF" stroke="#414042" stroke-miterlimit="10" points="43.333,60.333 48,60.333 48,67.333 42.333,68 "/>
<polygon fill="#414042" points="51.334,54 59,54 58.667,59.667 50.334,61.333 "/>
<polygon fill="#414042" points="45,58.333 49.666,57 51.999,59 47.333,63.333 "/>
<polygon fill="#414042" points="46.333,55.667 52.333,59.334 49.333,65.667 42.333,61.667 "/>
<polygon fill="#FFFFFF" stroke="#414042" stroke-miterlimit="10" points="52.334,58.667 57.667,63 53,64 49,64 "/>
<polygon fill="#414042" points="59,67.667 63,66.667 60.667,63.667 "/>
<path fill="#414042" d="M30,29.833c0,1.013-0.821,1.833-1.834,1.833l0,0c-1.012,0-1.833-0.821-1.833-1.833v-8
	c0-1.013,0.821-1.833,1.833-1.833l0,0C29.179,20,30,20.821,30,21.833V29.833z"/>
<path fill="#414042" d="M41.666,29.833c0,1.013-0.821,1.833-1.834,1.833l0,0c-1.012,0-1.833-0.821-1.833-1.833v-8
	c0-1.013,0.821-1.833,1.833-1.833l0,0c1.013,0,1.834,0.821,1.834,1.833V29.833z"/>
<path fill="none" stroke="#414042" stroke-width="2" stroke-linecap="round" stroke-miterlimit="10" d="M26.001,39.334
	c0,0,8.999,4.667,15.666-1"/>
</svg>
