<?xml version="1.0" encoding="utf-8"?>
<!-- Generator: Adobe Illustrator 16.0.0, SVG Export Plug-In . SVG Version: 6.00 Build 0)  -->
<!DOCTYPE svg PUBLIC "-//W3C//DTD SVG 1.1//EN" "http://www.w3.org/Graphics/SVG/1.1/DTD/svg11.dtd">
<svg version="1.1" id="Layer_1" xmlns="http://www.w3.org/2000/svg" xmlns:xlink="http://www.w3.org/1999/xlink" x="0px" y="0px"
	 width="72px" height="72px" viewBox="0 0 72 72" enable-background="new 0 0 72 72" xml:space="preserve">
<path fill="#FFFFFF" stroke="#414042" stroke-width="2" stroke-miterlimit="10" d="M12.115,43.395l-0.114-13.235
	c0,0-0.114-2.738,2.282-2.852c0,0,1.597,0,1.597,2.966l0.114,6.275V23.884c0,0,0-3.308,2.51-3.194c0,0,2.282,0.114,2.168,3.194
	v12.778c0,0-0.685-15.402,0.229-15.744c0,0,2.852-3.651,4.677,0.342l-0.113,2.396v12.778l0.229-13.577c0,0,3.308-4.906,4.791,0.913
	v16.771c0,0,0-6.503,0.685-7.644c0,0,3.994-4.108,4.107,5.932c0,0,1.482,15.744-9.583,16.43c0,0-6.275,1.027-11.067-3.879
	C14.625,51.381,11.773,47.957,12.115,43.395z"/>
<path fill="#414042" d="M12.343,31.985c0,0,2.167-0.114,2.396,2.282c0,0,0.913,1.825,0.913-2.738c0,0,0.342-6.731-3.423-2.739
	L12.343,31.985z"/>
<path fill="#414042" d="M15.994,26.281c0,0,0.456,5.59,1.825,3.08c0,0-0.114-3.422,1.826-2.51c0,0,0.228,4.563,0.456,3.537
	s1.368-8.785-0.799-9.127C19.303,21.261,15.88,18.522,15.994,26.281z"/>
<path fill="#414042" d="M21.014,25.253c0,0,2.853,0.229,3.423,1.712c0,0,1.141,1.825,1.027-2.739c0,0,1.026-4.792-2.511-4.792
	C22.953,19.435,19.074,20.918,21.014,25.253z"/>
<path fill="#414042" d="M25.92,24.683c0,0,3.195-1.826,4.449,0.57c0,0,0.457-7.073-4.449-3.081V24.683z"/>
<path fill="#414042" d="M25.577,48.299c0,0-1.254-2.852-2.396-2.281c0,0-3.536,5.248,2.168,6.391c0,0,5.02,0.457,3.423-4.564
	C28.772,47.844,27.175,50.24,25.577,48.299z"/>
<path fill="#FFFFFF" stroke="#414042" stroke-width="2" stroke-miterlimit="10" d="M61.288,42.824l0.114-13.235
	c0,0,0.113-2.738-2.282-2.852c0,0-1.597,0-1.597,2.966l-0.115,6.275V23.314c0,0,0-3.309-2.509-3.194c0,0-2.282,0.114-2.169,3.194
	v12.778c0,0,0.686-15.401-0.228-15.744c0,0-2.853-3.651-4.678,0.342l0.114,2.396v12.778l-0.228-13.577c0,0-3.31-4.906-4.792,0.913
	v16.771c0,0,0-6.502-0.686-7.644c0,0-4.107-2.624-4.221,7.416c0,0-1.369,14.261,9.698,14.946c0,0,6.274,1.027,11.065-3.879
	C58.777,50.811,61.631,47.387,61.288,42.824z"/>
<path fill="#414042" d="M38.127,37.119c0,0,1.826-0.799,2.169,1.027c0,0,2.282,1.824,2.396-3.309c0,0,0.456-3.195-2.624-2.51
	C40.067,32.327,37.671,34.153,38.127,37.119z"/>
<path fill="#414042" d="M43.147,26.167l4.222-0.228c0,0,1.597-5.248-2.511-5.477C44.858,20.462,42.463,22.059,43.147,26.167z"/>
<path fill="#414042" d="M48.168,27.421c0,0,0,4.221,2.167,2.624c0,0-0.114-3.537,1.026-1.939c0,0,1.142,1.825,1.256,0.114
	c0,0,1.026-7.188-0.799-8.443c0,0-1.939-2.51-3.765,0.685L48.168,27.421z"/>
<path fill="#414042" d="M53.074,24.227c0,0,2.396-0.685,2.966,1.598c0,0,1.368,0.799,1.368-2.51c0,0-0.798-4.107-3.193-2.852
	C54.215,20.462,52.73,20.12,53.074,24.227z"/>
<path fill="#414042" d="M57.523,31.529l3.992-0.685c0,0,0.229-3.765-2.167-3.993s-0.114-0.457-0.114-0.457
	S57.295,27.079,57.523,31.529z"/>
<path fill="#414042" d="M54.557,53.549c0,0-3.88-8.785,5.134-4.793C59.69,48.756,61.631,50.24,54.557,53.549z"/>
<path fill="#414042" d="M55.013,48.186c0,0-1.369-2.053,1.826-4.107c0,0,2.738-0.115,2.623-2.395c0,0,1.826-3.766,1.826,1.141
	c0,0-0.229,5.02-1.142,5.818C59.234,49.441,55.013,48.186,55.013,48.186z"/>
<path fill="#414042" d="M56.615,51.377c0,0-2.798-1.746-6.508,0.346l-4.354,2.543C45.754,54.266,55.584,55.604,56.615,51.377z"/>
</svg>
