<?xml version="1.0" encoding="utf-8"?>
<!-- Generator: Adobe Illustrator 16.0.0, SVG Export Plug-In . SVG Version: 6.00 Build 0)  -->
<!DOCTYPE svg PUBLIC "-//W3C//DTD SVG 1.1//EN" "http://www.w3.org/Graphics/SVG/1.1/DTD/svg11.dtd">
<svg version="1.1" id="Layer_1" xmlns="http://www.w3.org/2000/svg" xmlns:xlink="http://www.w3.org/1999/xlink" x="0px" y="0px"
	 width="72px" height="72px" viewBox="0 0 72 72" enable-background="new 0 0 72 72" xml:space="preserve">
<path fill="none" stroke="#414042" stroke-miterlimit="10" d="M1170.332,57.917c0,6.627-5.373,12-12,12h-37.333
	c-6.628,0-12-5.373-12-12V13.584c0-6.627,5.372-12,12-12h37.333c6.627,0,12,5.373,12,12V57.917z"/>
<path fill="none" stroke="#414042" stroke-miterlimit="10" d="M1262.332,57.917c0,6.627-5.373,12-12,12h-37.333
	c-6.628,0-12-5.373-12-12V13.584c0-6.627,5.372-12,12-12h37.333c6.627,0,12,5.373,12,12V57.917z"/>
<path fill="none" stroke="#414042" stroke-miterlimit="10" d="M1353.999,57.917c0,6.627-5.373,12-12,12h-37.333
	c-6.628,0-12-5.373-12-12V13.584c0-6.627,5.372-12,12-12h37.333c6.627,0,12,5.373,12,12V57.917z"/>
<path fill="none" stroke="#414042" stroke-miterlimit="10" d="M1446.333,57.917c0,6.627-5.373,12-12,12H1397
	c-6.628,0-12-5.373-12-12V13.584c0-6.627,5.372-12,12-12h37.333c6.627,0,12,5.373,12,12V57.917z"/>
<path fill="none" stroke="#414042" stroke-miterlimit="10" d="M1538,57.917c0,6.627-5.373,12-12,12h-37.333c-6.628,0-12-5.373-12-12
	V13.584c0-6.627,5.372-12,12-12H1526c6.627,0,12,5.373,12,12V57.917z"/>
<path fill="#424143" d="M-170.337,43.96c0,0-6.064-15.365,16.174-22.643c0,0,12.736-4.852,19.003,8.896
	c0,0,13.546,17.993-12.736,26.484c0,0-12.332,2.021-17.588-5.863c0,0,5.66-3.032,2.021-7.479
	C-163.463,43.354-165.282,40.725-170.337,43.96z"/>
<path fill="#F2643E" d="M710.332,57.917c0,6.627-5.373,12-12,12h-37.333c-6.628,0-12-5.373-12-12V13.584c0-6.627,5.372-12,12-12
	h37.333c6.627,0,12,5.373,12,12V57.917z"/>
<g>
	<defs>
		<rect id="SVGID_1_" x="-1178.797" y="13.74" width="38.278" height="47.111"/>
	</defs>
	<clipPath id="SVGID_2_">
		<use xlink:href="#SVGID_1_"  overflow="visible"/>
	</clipPath>
	<path clip-path="url(#SVGID_2_)" fill="#414042" d="M-1159.658,16.685c-8.929,0-16.194,7.266-16.194,16.194
		c0,13.322,12.925,22.623,16.193,24.761c3.268-2.143,16.195-11.467,16.195-24.761C-1143.464,23.951-1150.729,16.685-1159.658,16.685
		 M-1159.658,60.852c-0.255,0-0.513-0.066-0.741-0.199c-0.75-0.438-18.397-10.926-18.397-27.773
		c0-10.553,8.586-19.139,19.139-19.139c10.554,0,19.14,8.586,19.14,19.139c0,16.847-17.647,27.335-18.398,27.773
		C-1159.145,60.785-1159.402,60.852-1159.658,60.852"/>
	<path clip-path="url(#SVGID_2_)" fill="#414042" d="M-1159.658,37.295c-2.438,0-4.417-1.977-4.417-4.416
		c0-2.439,1.979-4.417,4.417-4.417c2.438,0,4.417,1.977,4.417,4.417C-1155.241,35.318-1157.221,37.295-1159.658,37.295"/>
	<g id="Arrow_x5F_Left_x5F_2" clip-path="url(#SVGID_2_)">
		<g>
			<path d="M-1052.875,32.014h-13c-0.18,0-0.299-0.093-0.356-0.15c-0.093-0.093-0.144-0.217-0.144-0.35
				c0-0.18,0.092-0.299,0.16-0.367l4.167-4.332c0.756-0.755,1.172-1.76,1.172-2.828s-0.416-2.072-1.172-2.828
				c-0.755-0.756-1.759-1.172-2.828-1.172c-1.068,0-2.072,0.416-2.816,1.16l-11.718,11.332c-0.944,0.943-1.465,2.199-1.465,3.535
				s0.521,2.592,1.465,3.536c0.051,0.051,0.106,0.095,0.165,0.132l11.541,11.16c0.756,0.756,1.76,1.172,2.828,1.172
				c1.069,0,2.073-0.416,2.828-1.172c0.756-0.755,1.172-1.76,1.172-2.828s-0.416-2.073-1.158-2.814l-4.194-4.359
				c-0.055-0.055-0.146-0.173-0.146-0.354c0-0.133,0.051-0.257,0.146-0.353c0.055-0.055,0.174-0.147,0.354-0.147h13
				c2.196,0,3.99-1.786,4-3.99v-0.037C-1048.904,33.78-1050.691,32.014-1052.875,32.014z M-1052.875,37.986h-13
				c-0.67,0-1.3,0.263-1.771,0.736c-0.471,0.47-0.729,1.097-0.729,1.764c0,0.668,0.26,1.295,0.719,1.754l4.194,4.359
				c0.378,0.378,0.586,0.88,0.586,1.414s-0.208,1.036-0.586,1.414c-0.756,0.756-2.061,0.768-2.84-0.012l-11.706-11.32
				c-0.036-0.035-0.074-0.067-0.115-0.095c-0.486-0.549-0.752-1.248-0.752-1.987c0-0.801,0.312-1.555,0.867-2.109l11.718-11.332
				c0.756-0.756,2.072-0.756,2.828,0c0.378,0.378,0.586,0.88,0.586,1.414s-0.208,1.036-0.6,1.428l-4.167,4.332
				c-0.473,0.472-0.732,1.1-0.732,1.768c0,0.667,0.259,1.294,0.727,1.762c0.474,0.476,1.104,0.738,1.773,0.738h13
				c1.098,0,1.995,0.893,2,1.982C-1050.88,37.093-1051.777,37.986-1052.875,37.986z"/>
		</g>
	</g>
</g>
<g id="Arrow_x5F_Left_x5F_2_2_">
	<g>
		<path fill="#3F3F3F" d="M-1054.5,31.639h-13c-0.18,0-0.299-0.093-0.356-0.15c-0.093-0.093-0.144-0.217-0.144-0.35
			c0-0.18,0.092-0.299,0.16-0.367l4.167-4.332c0.756-0.755,1.172-1.76,1.172-2.828s-0.416-2.072-1.172-2.828
			c-0.755-0.756-1.759-1.172-2.828-1.172c-1.068,0-2.072,0.416-2.816,1.16l-11.718,11.332c-0.944,0.943-1.465,2.199-1.465,3.535
			s0.521,2.592,1.465,3.536c0.051,0.051,0.106,0.095,0.165,0.132l11.541,11.16c0.756,0.756,1.76,1.172,2.828,1.172
			c1.069,0,2.073-0.416,2.828-1.172c0.756-0.755,1.172-1.76,1.172-2.828s-0.416-2.073-1.158-2.814l-4.194-4.359
			c-0.055-0.055-0.146-0.173-0.146-0.354c0-0.133,0.051-0.257,0.146-0.353c0.055-0.055,0.174-0.147,0.354-0.147h13
			c2.196,0,3.99-1.786,4-3.99v-0.037C-1050.529,33.405-1052.316,31.639-1054.5,31.639z M-1054.5,37.611h-13
			c-0.67,0-1.3,0.263-1.771,0.736c-0.471,0.47-0.729,1.097-0.729,1.764c0,0.668,0.26,1.295,0.719,1.754l4.194,4.359
			c0.378,0.378,0.586,0.88,0.586,1.414s-0.208,1.036-0.586,1.414c-0.756,0.756-2.061,0.768-2.84-0.012l-11.706-11.32
			c-0.036-0.035-0.074-0.067-0.115-0.095c-0.486-0.549-0.752-1.248-0.752-1.987c0-0.801,0.312-1.555,0.867-2.109l11.718-11.332
			c0.756-0.756,2.072-0.756,2.828,0c0.378,0.378,0.586,0.88,0.586,1.414s-0.208,1.036-0.6,1.428l-4.167,4.332
			c-0.473,0.472-0.732,1.1-0.732,1.768c0,0.667,0.259,1.294,0.727,1.762c0.474,0.476,1.104,0.738,1.773,0.738h13
			c1.098,0,1.995,0.893,2,1.982C-1052.505,36.718-1053.402,37.611-1054.5,37.611z"/>
	</g>
</g>
<g id="Arrow_x5F_Left_x5F_2_4_">
	<g>
		<path fill="#FFFFFF" d="M-958.875,33.389h-13c-0.18,0-0.299-0.093-0.356-0.15c-0.093-0.093-0.144-0.217-0.144-0.35
			c0-0.18,0.092-0.299,0.16-0.367l4.167-4.332c0.756-0.755,1.172-1.76,1.172-2.828s-0.416-2.072-1.172-2.828
			c-0.755-0.756-1.759-1.172-2.828-1.172c-1.068,0-2.072,0.416-2.816,1.16l-11.718,11.332c-0.944,0.943-1.465,2.199-1.465,3.535
			s0.521,2.592,1.465,3.536c0.051,0.051,0.106,0.095,0.165,0.132l11.541,11.16c0.756,0.756,1.76,1.172,2.828,1.172
			c1.069,0,2.073-0.416,2.828-1.172c0.756-0.755,1.172-1.76,1.172-2.828s-0.416-2.073-1.158-2.814l-4.194-4.359
			c-0.055-0.055-0.146-0.173-0.146-0.354c0-0.133,0.051-0.257,0.146-0.353c0.055-0.055,0.174-0.147,0.354-0.147h13
			c2.196,0,3.99-1.786,4-3.99v-0.037C-954.904,35.155-956.691,33.389-958.875,33.389z M-958.875,39.361h-13
			c-0.67,0-1.3,0.263-1.771,0.736c-0.471,0.47-0.729,1.097-0.729,1.764c0,0.668,0.26,1.295,0.719,1.754l4.194,4.359
			c0.378,0.378,0.586,0.88,0.586,1.414s-0.208,1.036-0.586,1.414c-0.756,0.756-2.061,0.768-2.84-0.012l-11.706-11.32
			c-0.036-0.035-0.074-0.067-0.115-0.095c-0.486-0.549-0.752-1.248-0.752-1.987c0-0.801,0.312-1.555,0.867-2.109l11.718-11.332
			c0.756-0.756,2.072-0.756,2.828,0c0.378,0.378,0.586,0.88,0.586,1.414s-0.208,1.036-0.6,1.428l-4.167,4.332
			c-0.473,0.472-0.732,1.1-0.732,1.768c0,0.667,0.259,1.294,0.727,1.762c0.474,0.476,1.104,0.738,1.773,0.738h13
			c1.098,0,1.995,0.893,2,1.982C-956.88,38.468-957.777,39.361-958.875,39.361z"/>
	</g>
</g>
<g>
	<defs>
		<rect id="SVGID_3_" x="-899.25" y="21.873" width="31.997" height="32.002"/>
	</defs>
	<clipPath id="SVGID_4_">
		<use xlink:href="#SVGID_3_"  overflow="visible"/>
	</clipPath>
	<path clip-path="url(#SVGID_4_)" fill="#414042" d="M-877.252,51.873v-7.007c0-1.104-0.896-2.002-2-2.002h-8
		c-1.103,0-2,0.898-2,2.002v7.007h-4V39.103l10-10.01l10,10.01v12.771H-877.252z M-868.131,35.736l-13-13.013
		c-1.133-1.135-3.107-1.135-4.242,0l-13,13.013c-1.17,1.171-1.17,3.075,0,4.246c0.568,0.566,1.32,0.88,2.121,0.88
		c0.349,0,0.683-0.069,1-0.182v11.192c0,1.104,0.897,2.002,2,2.002h4c1.104,0,2-0.898,2-2.002v-7.007h8v7.007
		c0,1.104,0.897,2.002,2,2.002h4c1.104,0,2-0.898,2-2.002V40.681c0.318,0.112,0.652,0.182,1,0.182c0.802,0,1.555-0.313,2.121-0.88
		C-866.961,38.812-866.961,36.907-868.131,35.736"/>
</g>
<g>
	<defs>
		<rect id="SVGID_5_" x="-810.625" y="14.55" width="40.056" height="42.2"/>
	</defs>
	<clipPath id="SVGID_6_">
		<use xlink:href="#SVGID_5_"  overflow="visible"/>
	</clipPath>
	<path clip-path="url(#SVGID_6_)" fill="#BCBEC0" d="M-784.965,42.244c-6.557,0-11.891-5.62-11.891-12.528
		s5.334-12.528,11.891-12.528c6.559,0,11.893,5.62,11.893,12.528S-778.406,42.244-784.965,42.244 M-805.984,53.726
		c-0.32,0.336-0.692,0.388-0.885,0.388c-0.193,0-0.566-0.052-0.887-0.388c-0.318-0.336-0.365-0.727-0.365-0.932
		c0-0.204,0.047-0.596,0.365-0.931l11.773-12.406c0.539,0.675,1.132,1.298,1.771,1.866L-805.984,53.726z M-784.965,14.55
		c-7.938,0-14.395,6.802-14.395,15.166c0,2.747,0.707,5.318,1.925,7.544l-12.091,12.737c-1.467,1.544-1.467,4.05,0,5.594
		c0.732,0.773,1.695,1.159,2.656,1.159s1.922-0.386,2.279-1.034l12.09-12.737c2.486,1.157,4.928,1.902,7.535,1.902
		c7.938,0,14.396-6.802,14.396-15.165C-770.568,21.352-777.027,14.55-784.965,14.55"/>
</g>
<g>
	<defs>
		<rect id="SVGID_7_" x="-711.625" y="21.592" width="28.854" height="28.783"/>
	</defs>
	<clipPath id="SVGID_8_">
		<use xlink:href="#SVGID_7_"  overflow="visible"/>
	</clipPath>
	<path clip-path="url(#SVGID_8_)" fill="#414042" d="M-691.36,41.819c-4.437,4.425-7.985,5.685-10.498,5.685
		c-1.94,0-3.262-0.751-3.888-1.378c-0.006-0.006,4.309-4.314,4.309-4.314l0.428,0.428c0.281,0.279,0.647,0.421,1.018,0.421
		c0.368,0,0.736-0.142,1.018-0.421l8.037-8.021c0.562-0.561,0.562-1.469,0-2.029l-0.429-0.428l4.317-4.307
		C-685.606,28.897-683.499,33.972-691.36,41.819L-691.36,41.819z M-685.008,25.429l-2.582-2.575
		c-0.813-0.813-1.899-1.262-3.051-1.262c-1.152,0-2.236,0.448-3.052,1.262l-2.282,2.278c-1.684,1.68-1.684,4.411,0,6.091l1.984,1.98
		l-6.002,5.991l-1.984-1.98c-0.815-0.814-1.899-1.263-3.052-1.263c-1.153,0-2.237,0.448-3.052,1.263l-2.282,2.277
		c-1.685,1.68-1.685,4.411,0,6.091l2.581,2.575c0.669,0.668,2.584,2.218,5.921,2.218c3.978,0,8.192-2.196,12.534-6.525
		C-680.342,34.881-682.385,28.052-685.008,25.429L-685.008,25.429z"/>
</g>
<path fill="none" stroke="#414042" stroke-width="3" stroke-miterlimit="10" d="M-602.987,48.257
	c-1.703,3.265-5.119,5.493-9.056,5.493c-5.639,0-10.209-4.57-10.209-10.208c0-4.149,2.476-7.721,6.031-9.318"/>
<path fill="#414042" d="M-613.502,40.5V29c0,0-0.417-3.083,2.667-3.083c0,0,3.333-0.5,3.25,2.583l0.954,9.714l9.629,1.036
	c0,0,2.5-0.334,3.667,3.999l3.833,8.417c0,0,1.167,2.167-1.583,2.833c-2.004,0.485-1.75,0.667-7.25-10.166l-10.917-0.5
	C-609.252,43.833-613.502,44.249-613.502,40.5z"/>
<circle fill="#414042" cx="-610.834" cy="20.999" r="3.833"/>
<rect x="-445.834" y="-40.5" fill="none" width="47.5" height="31.833"/>
<text transform="matrix(1 0 0 1 -445.834 -31.98)"><tspan x="0" y="0" font-family="'MyriadPro-Regular'" font-size="12">arts and </tspan><tspan x="0" y="14.4" font-family="'MyriadPro-Regular'" font-size="12">culture</tspan></text>
<rect x="-347.001" y="-32" fill="none" width="47.5" height="31.833"/>
<text transform="matrix(1 0 0 1 -347.001 -23.48)"><tspan x="0" y="0" font-family="'MyriadPro-Regular'" font-size="12">Science </tspan><tspan x="0" y="14.4" font-family="'MyriadPro-Regular'" font-size="12">and tech</tspan></text>
<rect x="-257.834" y="-49.833" fill="none" width="47.5" height="31.833"/>
<text transform="matrix(1 0 0 1 -257.834 -41.313)" font-family="'MyriadPro-Regular'" font-size="12">wifi</text>
<rect x="-220.166" y="-135.5" fill="none" width="47.5" height="31.833"/>
<text transform="matrix(1 0 0 1 -220.166 -126.981)"><tspan x="0" y="0" font-family="'MyriadPro-Regular'" font-size="12">ticket </tspan><tspan x="0" y="14.4" font-family="'MyriadPro-Regular'" font-size="12">icon</tspan></text>
<g>
	<defs>
		<rect id="SVGID_9_" x="103.898" y="13.767" width="50.002" height="49.132"/>
	</defs>
	<clipPath id="SVGID_10_">
		<use xlink:href="#SVGID_9_"  overflow="visible"/>
	</clipPath>
	<path clip-path="url(#SVGID_10_)" fill="#333333" d="M117.961,26.05c-0.861,0-1.561-0.688-1.561-1.536v-6.142
		c0-0.847,0.699-1.535,1.561-1.535h6.252c0.861,0,1.562,0.688,1.562,1.535v6.142c0,0.848-0.701,1.536-1.562,1.536H117.961z
		 M107.023,21.443c0-0.847,0.701-1.535,1.562-1.535h4.689v3.07h-4.689C107.725,22.979,107.023,22.291,107.023,21.443
		 M150.775,21.443c0,0.848-0.7,1.535-1.562,1.535H128.9v-3.07h20.312C150.075,19.908,150.775,20.597,150.775,21.443 M128.613,26.05
		h20.6c2.584,0,4.688-2.067,4.688-4.606c0-2.54-2.104-4.606-4.688-4.606h-20.6c-0.648-1.782-2.367-3.07-4.4-3.07h-6.252
		c-2.033,0-3.752,1.288-4.398,3.07h-4.977c-2.584,0-4.688,2.066-4.688,4.606c0,2.539,2.104,4.606,4.688,4.606h4.977
		c0.646,1.782,2.365,3.071,4.398,3.071h6.252C126.246,29.121,127.965,27.832,128.613,26.05"/>
	<path clip-path="url(#SVGID_10_)" fill="#333333" d="M124.211,59.828c-0.859,0-1.561-0.688-1.561-1.535V52.15
		c0-0.847,0.701-1.535,1.561-1.535h6.252c0.861,0,1.562,0.688,1.562,1.535v6.143c0,0.847-0.701,1.535-1.562,1.535H124.211z
		 M107.023,55.222c0-0.848,0.701-1.536,1.562-1.536h10.939v3.071h-10.939C107.725,56.757,107.023,56.068,107.023,55.222
		 M150.775,55.222c0,0.847-0.7,1.535-1.562,1.535H135.15v-3.071h14.062C150.075,53.686,150.775,54.374,150.775,55.222
		 M134.863,59.828h14.35c2.586,0,4.688-2.066,4.688-4.606s-2.102-4.606-4.688-4.606h-14.35c-0.648-1.782-2.367-3.07-4.4-3.07h-6.252
		c-2.033,0-3.752,1.288-4.398,3.07h-11.227c-2.584,0-4.688,2.066-4.688,4.606s2.104,4.606,4.688,4.606h11.227
		c0.646,1.782,2.365,3.07,4.398,3.07h6.252C132.496,62.898,134.215,61.61,134.863,59.828"/>
	<path clip-path="url(#SVGID_10_)" fill="#333333" d="M107.023,38.333c0-0.848,0.701-1.536,1.562-1.536h23.439v3.071h-23.439
		C107.725,39.868,107.023,39.18,107.023,38.333 M150.775,38.333c0,0.847-0.7,1.535-1.562,1.535h-1.562v-3.071h1.562
		C150.075,36.797,150.775,37.485,150.775,38.333 M147.362,42.938h1.851c2.586,0,4.688-2.066,4.688-4.605
		c0-2.541-2.102-4.606-4.688-4.606h-1.851c-0.647-1.783-2.365-3.07-4.399-3.07h-6.25c-2.035,0-3.752,1.287-4.398,3.07h-23.729
		c-2.584,0-4.686,2.065-4.686,4.606c0,2.539,2.102,4.605,4.686,4.605h23.727c0.648,1.782,2.365,3.07,4.4,3.07h6.25
		C144.997,46.009,146.715,44.721,147.362,42.938"/>
</g>
<path fill="#424143" d="M219.084,14.917c0,0-3.658-2.637-4.927-4.712c0,0-0.577-3.921,0.346-4.267c0,0,3.69-2.305,6.112-2.19
	c0,0,5.303,0.692,5.994,2.652c0,0,1.385,3.229-2.768,6.918c0,0-2.092,1.343-2.092,2.265l-3.212-1.112"/>
<path fill="#424143" d="M221.883,21.735c0,0.828-0.671,1.499-1.499,1.499l0,0c-0.827,0-1.499-0.671-1.499-1.499v-7.61
	c0-0.828,0.672-1.499,1.499-1.499l0,0c0.828,0,1.499,0.671,1.499,1.499V21.735z"/>
<polygon fill="#424143" points="192.711,45.258 211.16,44.104 211.16,45.488 192.25,46.986 "/>
<polyline fill="#424143" points="192.826,43.527 210.812,42.49 210.122,40.991 193.172,41.566 192.596,42.951 "/>
<polygon fill="#424143" points="193.979,39.723 209.084,39.146 208.623,37.532 194.21,38.225 "/>
<polygon fill="#424143" points="194.672,36.148 207.7,35.803 207.7,34.188 195.018,34.765 "/>
<polygon fill="#424143" points="195.594,32.805 206.895,32.228 206.895,31.075 196.285,31.075 "/>
<polygon fill="#424143" points="196.747,29.46 206.434,29.576 207.009,29.46 207.009,28.077 197.208,27.962 "/>
<polygon fill="#424143" points="198.016,25.655 206.087,25.771 207.124,27.039 207.354,26.347 206.316,24.618 204.703,24.272 
	198.822,23.926 "/>
<path fill="#424143" d="M200.091,21.851c0,0,6.687-0.922,7.494,3.69l0.462-0.577c0,0-0.923-4.958-6.919-5.073L200.091,21.851z"/>
<polygon fill="#424143" points="205.395,15.855 206.663,15.509 210.122,23.35 209.314,23.811 "/>
<polygon fill="#424143" points="208.277,13.548 209.893,12.511 212.428,22.082 211.044,22.658 "/>
<polygon fill="#424143" points="211.967,11.704 213.812,11.243 214.965,21.159 213.812,21.504 "/>
<path fill="#FFFFFF" d="M218.654,6.284c0,0,0.691-1.499-0.807-1.614C217.848,4.67,216.348,5.477,218.654,6.284z"/>
<path fill="#FFFFFF" d="M223.365,4.786c0,0,1.594,0.807-0.856,1.614C222.509,6.4,221.771,4.901,223.365,4.786"/>
<path fill="#FFFFFF" d="M220.039,10.806c0,0,0.576,3.665-0.116,4.385l0.692-0.72l0.346,0.982l-0.23-4.843L220.039,10.806z"/>
<path fill="#424143" d="M223.982,20.467l0.668-6.572c0,0-1.42,1.038-1.42,1.845l-0.336,5.073L223.982,20.467z"/>
<polygon fill="#424143" points="224.996,21.39 226.38,21.966 228.34,11.704 226.38,11.358 "/>
<polygon fill="#424143" points="227.302,22.196 228.34,22.773 231.684,13.664 230.186,12.626 "/>
<polygon fill="#424143" points="229.725,23.119 230.531,23.926 234.451,15.97 233.184,15.163 "/>
<path fill="#424143" d="M232.029,25.195c0,0,1.385-4.151,7.841-3.575l-0.576-1.614C239.294,20.006,232.953,19.199,232.029,25.195z"
	/>
<path fill="#424143" d="M232.837,27.27c0,0,0.748-2.312,8.647-1.615l-0.461-1.383c0,0-6.979-1.189-8.765,2.191L232.837,27.27z"/>
<polygon fill="#424143" points="232.723,28.077 242.868,28.192 243.1,29.807 233.298,29.576 "/>
<polygon fill="#424143" points="232.837,31.882 244.252,32.689 243.791,31.421 232.837,30.614 "/>
<polygon fill="#424143" points="232.029,34.188 245.059,34.765 245.059,36.494 232.029,35.803 "/>
<polygon fill="#424143" points="230.762,37.532 230.531,39.377 246.098,39.723 245.866,38.568 "/>
<polygon fill="#424143" points="228.686,42.029 246.673,43.412 246.673,42.259 229.725,40.761 "/>
<polygon fill="#424143" points="228.34,43.297 247.25,45.258 247.25,46.986 228.686,45.025 "/>
<path fill="#424143" d="M217.368,48.195c0,0-1.255-1.742,1.614-1.959c1.178-0.09,2.363-0.172,2.363-0.172l1.34,0.172
	c0,0,2.032,0.304,0.908,1.99l-0.923,18.648l-3.92,0.346l-1.269-18.562"/>
<path fill="#424143" d="M217.15,20.697l-0.571-6.572c0,0,1.213,1.038,1.213,1.845l0.286,5.073L217.15,20.697z"/>
<path fill="#424143" d="M209.546,31.194l2.308-1.241c0,0,3.688-4.41,6.688,1.378c0,0-3.689,0.688-6.111-0.551
	C212.43,30.781,209.662,30.918,209.546,31.194z"/>
<path fill="#FFFFFF" d="M212.023,30.469c0,0,2.769-4.267,5.881,0.346C217.904,30.815,212.945,31.045,212.023,30.469z"/>
<ellipse fill="#424143" cx="214.938" cy="29.663" rx="1.699" ry="1.067"/>
<path fill="#424143" d="M231.166,30.935l-2.307-1.24c0,0-3.689-4.41-6.688,1.378c0,0,3.69,0.688,6.111-0.551
	C228.283,30.521,231.051,30.659,231.166,30.935z"/>
<path fill="#FFFFFF" d="M228.688,30.21c0,0-2.768-4.267-5.881,0.346C222.807,30.556,227.766,30.786,228.688,30.21z"/>
<path fill="#424143" d="M209.025,29c0,0,0.521-4.151,6.228-3.113c0,0,2.335,1.297,2.681,1.297c0,0,1.299-0.605,0.692-1.124
	c0,0-5.103-2.421-6.919-1.038C211.707,25.022,208.768,26.665,209.025,29z"/>
<path fill="#424143" d="M231.051,29.259c0,0-0.52-4.151-6.227-3.113c0,0-2.336,1.297-2.682,1.297c0,0-1.297-0.605-0.691-1.125
	c0,0,5.104-2.421,6.918-1.038C228.369,25.281,231.311,26.924,231.051,29.259z"/>
<path fill="#424143" d="M216.377,40.674c0,0,2.596-1.21,3.459-0.691c0,0,1.902-1.123,3.633,0.778L216.377,40.674z"/>
<path fill="#424143" d="M216.975,41.62c0,0,3.545,0.864,6.053-0.086C223.025,41.534,220.691,44.301,216.975,41.62z"/>
<path fill="#424143" d="M223.596,66.948c0,0.979-0.795,1.772-1.773,1.772H219.4c-0.979,0-1.773-0.794-1.773-1.772l0,0
	c0-0.979,0.794-1.772,1.773-1.772h2.42C222.801,65.176,223.596,65.971,223.596,66.948L223.596,66.948z"/>
<path fill="none" stroke="#424143" stroke-width="0.75" stroke-linecap="round" stroke-linejoin="round" stroke-miterlimit="10" d="
	M217.285,36.178c0,0,0.691,0.389,1.297-0.303c0,0,0.995-0.173,0.995,0.303c0,0,1.254,0.648,1.6-0.26c0,0,0.562-0.346,0.778,0
	c0,0,1.038,0.433,1.211,0.13"/>
<path fill="#FFFFFF" d="M216.621,6.977c0,0,0.016,1.008,1.054,1.571c0,0,1.644,0.735,1.687,1.254c0,0,1.211,0.648,2.031,0.216
	c0,0,0.26-0.778,0.865-0.951c0,0,1.643-0.519,2.292-2.075c0,0,0.043,1.383-1.471,2.551c0,0-1.341,0.476-1.601,1.125
	c0,0-1.687,0.432-2.074,0c0,0-0.822-0.778-1.471-1.125C217.934,9.542,216.605,7.438,216.621,6.977z"/>
<ellipse fill="#424143" cx="225.775" cy="29.374" rx="1.701" ry="1.067"/>
<path fill="#F2643E" d="M342.004,58.25c0,6.627-5.373,12-12,12h-37.333c-6.628,0-12-5.373-12-12V13.917c0-6.627,5.372-12,12-12
	h37.333c6.627,0,12,5.373,12,12V58.25z"/>
<path fill="#FFFFFF" d="M310.167,15.775c0,0-2.812-1.623-4.004-3.571c0,0-0.541-3.68,0.324-4.004c0,0,3.464-2.163,5.736-2.056
	c0,0,4.977,0.649,5.627,2.489c0,0,1.299,3.03-2.598,6.493c0,0-1.939,1.196-1.939,2.062l-2.348-0.18"/>
<path fill="#FFFFFF" d="M313.414,23.026c0,0.776-0.63,1.406-1.407,1.406l0,0c-0.775,0-1.406-0.63-1.406-1.406v-7.142
	c0-0.777,0.631-1.407,1.406-1.407l0,0c0.777,0,1.407,0.63,1.407,1.407V23.026z"/>
<polygon fill="#FFFFFF" points="286.036,45.102 303.351,44.02 303.351,45.316 285.604,46.725 "/>
<polyline fill="#FFFFFF" points="286.146,43.479 303.026,42.506 302.377,41.098 286.47,41.639 285.931,42.938 "/>
<polygon fill="#FFFFFF" points="287.228,39.906 301.401,39.367 300.97,37.852 287.442,38.5 "/>
<polygon fill="#FFFFFF" points="287.877,36.552 300.104,36.228 300.104,34.713 288.201,35.253 "/>
<polygon fill="#FFFFFF" points="288.742,33.416 299.349,32.874 299.349,31.792 289.392,31.792 "/>
<polygon fill="#FFFFFF" points="289.825,30.275 298.914,30.385 299.454,30.275 299.454,28.978 290.257,28.87 "/>
<polygon fill="#FFFFFF" points="291.015,26.706 298.591,26.813 299.563,28.003 299.778,27.354 298.806,25.731 297.292,25.408 
	291.772,25.082 "/>
<path fill="#FFFFFF" d="M292.963,23.134c0,0,6.274-0.865,7.033,3.462l0.433-0.541c0,0-0.865-4.653-6.492-4.761L292.963,23.134z"/>
<polygon fill="#FFFFFF" points="297.94,17.507 299.222,16.821 302.467,24.18 301.661,24.326 "/>
<polygon fill="#FFFFFF" points="300.646,15.342 302.161,14.37 304.541,23.352 303.242,23.892 "/>
<polygon fill="#FFFFFF" points="304.108,13.612 305.839,13.18 306.922,22.484 305.839,22.81 "/>
<path fill="#F2643E" d="M310.384,8.525c0,0,0.65-1.406-0.758-1.514C309.626,7.012,308.22,7.769,310.384,8.525z"/>
<path fill="#F2643E" d="M314.806,7.12c0,0,1.496,0.758-0.805,1.515C314.001,8.634,313.312,7.228,314.806,7.12"/>
<path fill="#F2643E" d="M311.685,12.77c0,0,0.539,3.44-0.109,4.115l0.648-0.675l0.325,0.922l-0.217-4.545L311.685,12.77z"/>
<path fill="#FFFFFF" d="M315.146,21.835l0.867-6.168c0,0-1.162,0.854-1.162,1.612l-0.541,4.788L315.146,21.835z"/>
<polygon fill="#FFFFFF" points="316.336,22.702 317.635,23.243 319.476,13.612 317.635,13.288 "/>
<polygon fill="#FFFFFF" points="318.499,23.458 319.476,24 322.612,15.452 321.205,14.478 "/>
<polygon fill="#FFFFFF" points="320.772,24.326 321.53,25.082 325.21,17.616 324.019,16.858 "/>
<path fill="#FFFFFF" d="M322.937,26.272c0,0,1.301-3.895,7.357-3.354l-0.541-1.516C329.753,21.402,323.804,20.646,322.937,26.272z"
	/>
<path fill="#FFFFFF" d="M323.694,28.221c0,0,1.015-2.095,8.115-1.515l-0.435-1.298c0,0-6.376-1.032-8.224,2.056L323.694,28.221z"/>
<polygon fill="#FFFFFF" points="323.587,28.978 333.108,29.085 333.325,30.602 324.127,30.385 "/>
<polygon fill="#FFFFFF" points="323.694,32.548 334.407,33.307 333.976,32.116 323.694,31.358 "/>
<polygon fill="#FFFFFF" points="322.937,34.713 335.164,35.253 335.164,36.877 322.937,36.228 "/>
<polygon fill="#FFFFFF" points="321.746,37.852 321.53,39.582 336.138,39.906 335.922,38.824 "/>
<polygon fill="#FFFFFF" points="319.8,42.07 336.679,43.369 336.679,42.287 320.772,40.881 "/>
<polygon fill="#FFFFFF" points="319.476,43.262 337.222,45.102 337.222,46.725 319.8,44.883 "/>
<path fill="#FFFFFF" d="M309.179,47.857c0,0-1.179-1.635,1.514-1.838c1.106-0.084,2.219-0.162,2.219-0.162l1.259,0.162
	c0,0,1.906,0.283,0.853,1.867l-0.865,17.502l-3.68,0.324l-1.19-17.42"/>
<path fill="#FFFFFF" d="M308.974,22.051l-0.537-6.168c0,0,1.139,0.974,1.139,1.731l0.271,4.761L308.974,22.051z"/>
<path fill="#FFFFFF" d="M301.836,31.903l2.165-1.165c0,0,3.463-4.138,6.275,1.293c0,0-3.463,0.646-5.734-0.518
	C304.542,31.515,301.944,31.645,301.836,31.903z"/>
<path fill="#F2643E" d="M304.163,31.224c0,0,2.597-4.004,5.52,0.324C309.683,31.546,305.026,31.763,304.163,31.224z"/>
<ellipse fill="#FFFFFF" cx="306.896" cy="30.465" rx="1.597" ry="1.001"/>
<path fill="#FFFFFF" d="M322.126,31.66l-2.165-1.164c0,0-3.462-4.139-6.274,1.292c0,0,3.463,0.646,5.735-0.517
	C319.422,31.271,322.019,31.4,322.126,31.66z"/>
<path fill="#F2643E" d="M319.8,30.979c0,0-2.596-4.003-5.52,0.325C314.28,31.305,318.935,31.521,319.8,30.979z"/>
<path fill="#FFFFFF" d="M301.349,29.843c0,0,0.487-3.896,5.844-2.921c0,0,2.19,1.217,2.517,1.217c0,0,1.218-0.568,0.649-1.055
	c0,0-4.789-2.272-6.494-0.974C303.862,26.11,301.104,27.652,301.349,29.843z"/>
<path fill="#FFFFFF" d="M322.019,30.087c0,0-0.488-3.896-5.845-2.922c0,0-2.19,1.217-2.516,1.217c0,0-1.218-0.568-0.649-1.055
	c0,0,4.79-2.272,6.493-0.974C319.502,26.354,322.261,27.896,322.019,30.087z"/>
<path fill="#FFFFFF" d="M308.246,40.799c0,0,2.437-1.135,3.247-0.648c0,0,1.785-1.055,3.408,0.73L308.246,40.799z"/>
<path fill="#FFFFFF" d="M308.885,41.848c0,0,3.327,0.812,5.681-0.08C314.565,41.768,312.374,44.363,308.885,41.848z"/>
<path fill="#FFFFFF" d="M315.021,65.457c0,0.92-0.744,1.664-1.664,1.664h-2.271c-0.92,0-1.664-0.744-1.664-1.664l0,0
	c0-0.918,0.744-1.664,1.664-1.664h2.271C314.274,63.793,315.021,64.539,315.021,65.457L315.021,65.457z"/>
<path fill="none" stroke="#FFFFFF" stroke-width="0.75" stroke-linecap="round" stroke-linejoin="round" stroke-miterlimit="10" d="
	M309.099,36.58c0,0,0.65,0.364,1.217-0.283c0,0,0.937-0.163,0.937,0.283c0,0,1.177,0.608,1.501-0.243c0,0,0.527-0.325,0.729,0
	c0,0,0.976,0.406,1.138,0.121"/>
<path fill="#F2643E" d="M308.476,9.176c0,0,0.017,0.946,0.99,1.474c0,0,1.541,0.689,1.582,1.176c0,0,1.137,0.608,1.906,0.202
	c0,0,0.244-0.729,0.812-0.892c0,0,1.541-0.486,2.149-1.947c0,0,0.041,1.298-1.379,2.394c0,0-1.259,0.445-1.502,1.055
	c0,0-1.583,0.406-1.947,0c0,0-0.772-0.73-1.38-1.055C309.708,11.583,308.462,9.608,308.476,9.176z"/>
<ellipse fill="#FFFFFF" cx="317.065" cy="30.195" rx="1.597" ry="1.001"/>
<g>
	<path fill="none" stroke="#424143" stroke-width="3" stroke-miterlimit="10" d="M-73-103.501l0.333-36.667
		c0,0-0.666-11.333,14.334-14.667c0,0,18.666-1.999,20.666,13.667v39.333C-37.667-101.834-55-86.501-73-103.501z"/>
	<polygon fill="#FFFFFF" stroke="#424143" stroke-miterlimit="10" points="-73.667,-105.834 -81,-100.834 -73,-96.834 -72,-99.834 	
		"/>
	<path fill="#424143" d="M-72.333-102.167c0,1,13.666,5.333,13.666,5.333l-11,3l-2.333-6l9.334-3l1,3l5,3.667"/>
	<polyline fill="#424143" points="-65,-92.167 -59.333,-90.834 -58.667,-96.834 -63.333,-96.501 -66.333,-92.834 	"/>
	<polyline fill="#424143" points="-74.666,-101.501 -75.21,-100.258 -77,-96.167 -73.333,-95.167 -68.333,-97.501 -73.667,-105.834 
		-79.333,-102.834 -81.333,-109.167 -73.333,-109.167 	"/>
	<polygon fill="#424143" points="-79.333,-94.501 -76.666,-93.167 -80.666,-91.834 	"/>
	<polygon fill="#424143" points="-61.333,-90.834 -46.666,-91.167 -46,-97.834 -59.666,-95.834 	"/>
	<polygon fill="#FFFFFF" stroke="#424143" stroke-miterlimit="10" points="-59.333,-98.167 -53.666,-100.501 -46,-97.834 
		-56.666,-96.167 	"/>
	<polygon fill="#FFFFFF" stroke="#424143" stroke-miterlimit="10" points="-46,-99.168 -41.333,-99.168 -41.333,-92.168 
		-47,-91.501 	"/>
	<polygon fill="#424143" points="-37.999,-105.501 -30.333,-105.501 -30.666,-99.834 -38.999,-98.168 	"/>
	<polygon fill="#424143" points="-44.333,-101.168 -39.667,-102.501 -37.334,-100.501 -42,-96.168 	"/>
	<polygon fill="#424143" points="-43,-103.834 -37,-100.167 -40,-93.834 -47,-97.834 	"/>
	<polygon fill="#FFFFFF" stroke="#424143" stroke-miterlimit="10" points="-36.999,-100.834 -31.666,-96.501 -36.333,-95.501 
		-40.333,-95.501 	"/>
	<path fill="#424143" d="M-59.333-129.668c0,1.013-0.82,1.833-1.834,1.833l0,0c-1.012,0-1.833-0.821-1.833-1.833v-8
		c0-1.013,0.821-1.833,1.833-1.833l0,0c1.014,0,1.834,0.821,1.834,1.833V-129.668z"/>
	<path fill="#424143" d="M-47.667-129.668c0,1.013-0.82,1.833-1.834,1.833l0,0c-1.012,0-1.833-0.821-1.833-1.833v-8
		c0-1.013,0.821-1.833,1.833-1.833l0,0c1.014,0,1.834,0.821,1.834,1.833V-129.668z"/>
	<path fill="none" stroke="#424143" stroke-width="2" stroke-linecap="round" stroke-miterlimit="10" d="M-63.332-120.167
		c0,0,8.999,4.667,15.666-1"/>
</g>
<path fill="#F2643E" d="M-125.997-111.333c0,6.627-5.373,12-12,12h-37.333c-6.628,0-12-5.373-12-12v-44.333c0-6.628,5.372-12,12-12
	h37.333c6.627,0,12,5.372,12,12V-111.333z"/>
<path fill="#FFFFFF" d="M-179.549-146.175c0,0,11.29,1.947,20.438-2.725c0,0,7.592,19.271-3.894,23.163c0,0-4.087,1.752-8.953,0
	C-171.957-125.737-179.159-127.684-179.549-146.175z"/>
<path fill="#F2643E" d="M-175.268-137.804c0,0,2.533-2.467,4.867-0.584C-170.4-138.388-172.932-142.865-175.268-137.804z"/>
<path fill="#F2643E" d="M-166.047-139.458c0,0,2.852-2.176,4.9-0.014C-161.146-139.472-163.139-144.212-166.047-139.458z"/>
<path fill="#F2643E" d="M-172.932-132.744c0,0,6.425,0.39,10.9-1.751c0,0,2.727,3.698-5.449,5.061
	C-167.48-129.436-172.932-129.045-172.932-132.744z"/>
<path fill="#FFFFFF" d="M-150.379-143.282c0,0,9.176,7.619,19.038,7.923c0,0-3.128,20.474-15.013,18.063c0,0-4.414-0.541-7.74-4.502
	C-154.094-121.797-159.34-127.102-150.379-143.282z"/>
<path fill="#F2643E" d="M-138.377-128.315c0,0-3.525,0.27-4.107-2.674C-142.484-130.989-143.414-125.932-138.377-128.315z"/>
<path fill="#F2643E" d="M-146.512-132.961c0,0-3.581-0.158-3.768-3.133C-150.279-136.094-151.791-131.176-146.512-132.961z"/>
<path fill="#F2643E" d="M-144.965-121.879c0,0-2.661-3.662-7.271-3.559c0,0-0.072-3.367,5.402-0.729
	C-146.834-126.167-143.4-124.098-144.965-121.879z"/>
<path fill="#424143" d="M-273.666-128.525c0,0,11.29,1.946,20.438-2.725c0,0,7.592,19.271-3.894,23.164c0,0-4.087,1.752-8.953,0
	C-266.075-108.086-273.275-110.034-273.666-128.525z"/>
<path fill="#FFFFFF" d="M-269.384-120.155c0,0,2.532-2.467,4.866-0.584C-264.518-120.739-267.048-125.216-269.384-120.155z"/>
<path fill="#FFFFFF" d="M-260.164-121.808c0,0,2.852-2.176,4.9-0.014C-255.264-121.822-257.256-126.563-260.164-121.808z"/>
<path fill="#FFFFFF" d="M-267.048-115.094c0,0,6.424,0.389,10.899-1.752c0,0,2.727,3.698-5.449,5.061
	C-261.598-111.786-267.048-111.397-267.048-115.094z"/>
<path fill="#424143" d="M-244.496-125.632c0,0,9.176,7.619,19.038,7.922c0,0-3.128,20.473-15.013,18.063c0,0-4.414-0.541-7.74-4.502
	C-248.211-104.147-253.457-109.452-244.496-125.632z"/>
<path fill="#FFFFFF" d="M-232.494-110.667c0,0-3.525,0.27-4.107-2.672C-236.602-113.338-237.531-108.282-232.494-110.667z"/>
<path fill="#FFFFFF" d="M-240.629-115.312c0,0-3.581-0.158-3.768-3.133C-244.396-118.444-245.908-113.527-240.629-115.312z"/>
<path fill="#FFFFFF" d="M-239.082-104.231c0,0-2.661-3.66-7.271-3.557c0,0-0.071-3.367,5.402-0.73
	C-240.951-108.518-237.52-106.448-239.082-104.231z"/>
<g>
	<circle fill="#424143" cx="-433.438" cy="26.69" r="12.937"/>
	<circle fill="#424143" cx="-420.281" cy="20.989" r="14.69"/>
	<circle fill="#424143" cx="-424.667" cy="34.584" r="12.938"/>
	<path fill="#424143" d="M-426.201,59.25c0,0.908-0.736,1.646-1.645,1.646l0,0c-0.908,0-1.646-0.738-1.646-1.646V47.191
		c0-0.908,0.736-1.646,1.646-1.646l0,0c0.906,0,1.645,0.736,1.645,1.646V59.25z"/>
	<path fill="#424143" d="M-417.465,64.371c0,1.352-0.969,2.443-2.159,2.443l0,0c-1.19,0-2.158-1.094-2.158-2.443V46.455
		c0-1.35,0.968-2.443,2.158-2.443l0,0c1.19,0,2.159,1.094,2.159,2.443V64.371z"/>
	<path fill="#424143" d="M-406.062,43.105c0,1.348-0.967,2.441-2.158,2.441l0,0c-1.191,0-2.158-1.094-2.158-2.441v-17.92
		c0-1.349,0.967-2.442,2.158-2.442l0,0c1.191,0,2.158,1.094,2.158,2.442V43.105z"/>
	<circle fill="#424143" cx="-444.729" cy="44.12" r="5.153"/>
	<circle fill="#424143" cx="-399.342" cy="21.317" r="2.96"/>
	<circle fill="#424143" cx="-399.232" cy="38.312" r="1.206"/>
</g>
<path fill="#F2643E" d="M-485.498,58c0,6.627-5.373,12-12,12h-37.333c-6.628,0-12-5.373-12-12V13.667c0-6.627,5.372-12,12-12h37.333
	c6.627,0,12,5.373,12,12V58z"/>
<g>
	<circle fill="#FFFFFF" cx="-525.772" cy="27.688" r="12.937"/>
	<circle fill="#FFFFFF" cx="-512.614" cy="21.987" r="14.69"/>
	<circle fill="#FFFFFF" cx="-517.001" cy="35.582" r="12.937"/>
	<path fill="#FFFFFF" d="M-518.535,60.249c0,0.907-0.737,1.645-1.646,1.645l0,0c-0.907,0-1.645-0.736-1.645-1.645V48.188
		c0-0.907,0.736-1.645,1.645-1.645l0,0c0.908,0,1.646,0.736,1.646,1.645V60.249z"/>
	<path fill="#FFFFFF" d="M-509.799,65.37c0,1.35-0.968,2.443-2.159,2.443l0,0c-1.191,0-2.158-1.094-2.158-2.443V47.453
		c0-1.351,0.967-2.443,2.158-2.443l0,0c1.191,0,2.159,1.095,2.159,2.443V65.37z"/>
	<path fill="#FFFFFF" d="M-498.397,44.103c0,1.35-0.967,2.442-2.158,2.442l0,0c-1.19,0-2.157-1.094-2.157-2.442V26.184
		c0-1.349,0.967-2.442,2.157-2.442l0,0c1.191,0,2.158,1.094,2.158,2.442V44.103z"/>
	<circle fill="#FFFFFF" cx="-537.063" cy="45.119" r="5.153"/>
	<circle fill="#FFFFFF" cx="-491.676" cy="22.316" r="2.96"/>
	<circle fill="#FFFFFF" cx="-491.565" cy="39.311" r="1.206"/>
</g>
<path fill="#424143" d="M-406.042-151.947c0-10.24,8.301-18.541,18.54-18.541s18.54,8.301,18.54,18.541"/>
<rect x="-406.409" y="-150.296" fill="#424143" width="37.814" height="9.547"/>
<path fill="#424143" d="M-397.704-167.429c0.562,0.717,0.438,1.756-0.277,2.32l0,0c-0.718,0.563-1.756,0.439-2.32-0.277
	l-9.303-11.833c-0.565-0.716-0.44-1.756,0.275-2.32l0,0c0.717-0.563,1.756-0.439,2.32,0.277L-397.704-167.429z"/>
<path fill="#424143" d="M-376.052-164.985c-0.627,0.663-1.672,0.691-2.336,0.064l0,0c-0.662-0.626-0.69-1.672-0.064-2.336
	l10.344-10.936c0.625-0.664,1.672-0.692,2.334-0.065l0,0c0.664,0.627,0.692,1.672,0.066,2.336L-376.052-164.985z"/>
<circle fill="#FFFFFF" cx="-387.502" cy="-160.575" r="5.323"/>
<circle fill="#FFFFFF" cx="-393.56" cy="-145.155" r="1.837"/>
<circle fill="#FFFFFF" cx="-387.687" cy="-145.155" r="1.837"/>
<circle fill="#FFFFFF" cx="-381.812" cy="-145.155" r="1.835"/>
<path fill="none" stroke="#424143" stroke-miterlimit="10" d="M-402.556-172.323c0,0,9.729-11.014,11.199-0.918v3.488"/>
<path fill="none" stroke="#424143" stroke-miterlimit="10" d="M-374.651-162.044c0,0,17.807-1.651,4.039,8.078"/>
<circle fill="#424143" cx="-387.501" cy="-160.575" r="3.671"/>
<path fill="#F2643E" d="M70.67-71.999c0,6.627-5.373,12-12,12H21.337c-6.628,0-12-5.373-12-12v-44.333c0-6.627,5.372-12,12-12H58.67
	c6.627,0,12,5.373,12,12V-71.999z"/>
<path fill="#FFFFFF" d="M21.124-87.778c0-10.241,8.301-18.542,18.54-18.542s18.54,8.301,18.54,18.542"/>
<rect x="20.757" y="-86.129" fill="#FFFFFF" width="37.814" height="9.547"/>
<path fill="#FFFFFF" d="M29.462-103.261c0.562,0.717,0.438,1.756-0.277,2.32l0,0c-0.718,0.563-1.756,0.439-2.32-0.277l-9.303-11.833
	c-0.565-0.716-0.44-1.756,0.275-2.32l0,0c0.717-0.563,1.756-0.439,2.32,0.277L29.462-103.261z"/>
<path fill="#FFFFFF" d="M51.114-100.818c-0.627,0.663-1.672,0.691-2.336,0.064l0,0c-0.662-0.626-0.69-1.672-0.064-2.336
	l10.344-10.936c0.625-0.664,1.672-0.692,2.334-0.065l0,0c0.664,0.627,0.692,1.672,0.066,2.336L51.114-100.818z"/>
<circle fill="#F2643E" cx="39.664" cy="-96.408" r="5.323"/>
<circle fill="#F2643E" cx="33.606" cy="-80.988" r="1.836"/>
<circle fill="#F2643E" cx="39.479" cy="-80.988" r="1.836"/>
<circle fill="#F2643E" cx="45.354" cy="-80.988" r="1.835"/>
<path fill="none" stroke="#FFFFFF" stroke-miterlimit="10" d="M24.61-108.156c0,0,9.729-11.014,11.199-0.918v3.488"/>
<path fill="none" stroke="#FFFFFF" stroke-miterlimit="10" d="M52.515-97.876c0,0,17.807-1.652,4.039,8.078"/>
<circle fill="#FFFFFF" cx="39.665" cy="-96.408" r="3.671"/>
<g id="WIFI">
	<g>
		<path fill="#404040" d="M403.719,49.156c-2.119,0-3.844,1.725-3.844,3.844s1.725,3.845,3.844,3.845
			c2.12,0,3.844-1.726,3.844-3.845S405.839,49.156,403.719,49.156z M423.626,21.635c-5.956-3.788-12.839-5.79-19.907-5.79
			s-13.951,2.002-19.906,5.79c-0.598,0.38-0.772,1.171-0.394,1.77c0.381,0.595,1.169,0.772,1.771,0.393
			c5.543-3.526,11.949-5.39,18.529-5.39s12.987,1.863,18.53,5.39c0.214,0.136,0.452,0.2,0.688,0.2c0.424,0,0.838-0.21,1.082-0.593
			C424.398,22.806,424.223,22.015,423.626,21.635z M411.184,41.062c-4.498-2.818-10.43-2.818-14.93,0
			c-0.6,0.375-0.779,1.166-0.404,1.766c0.377,0.6,1.166,0.781,1.767,0.406c3.682-2.309,8.526-2.309,12.207,0
			c0.212,0.133,0.446,0.195,0.68,0.195c0.427,0,0.843-0.214,1.087-0.603C411.965,42.228,411.783,41.437,411.184,41.062z
			 M417.292,31.29c-4.071-2.561-8.765-3.914-13.573-3.914c-4.808,0-9.502,1.354-13.572,3.914c-0.601,0.376-0.779,1.166-0.402,1.766
			c0.377,0.602,1.169,0.779,1.768,0.403c3.661-2.304,7.883-3.521,12.209-3.521c4.324,0,8.547,1.217,12.209,3.521
			c0.211,0.132,0.447,0.196,0.682,0.196c0.425,0,0.842-0.211,1.086-0.6C418.07,32.456,417.893,31.666,417.292,31.29z"/>
	</g>
</g>
<rect x="654.661" y="28.333" fill="none" width="74.667" height="48.333"/>
<text transform="matrix(1 0 0 1 654.6611 38.8281)" fill="#FFFFFF" font-family="'Oswald-Regular'" font-size="12">Manhattan</text>
<path fill="#F2643E" d="M802.332,57.917c0,6.627-5.373,12-12,12h-37.333c-6.628,0-12-5.373-12-12V13.584c0-6.627,5.372-12,12-12
	h37.333c6.627,0,12,5.373,12,12V57.917z"/>
<rect x="757.327" y="28.667" fill="none" width="34.999" height="22"/>
<text transform="matrix(1 0 0 1 757.3271 39.1602)" fill="#FFFFFF" font-family="'Oswald-Regular'" font-size="12">Bronx</text>
<path fill="#F2643E" d="M893.999,57.917c0,6.627-5.373,12-12,12h-37.333c-6.628,0-12-5.373-12-12V13.584c0-6.627,5.372-12,12-12
	h37.333c6.627,0,12,5.373,12,12V57.917z"/>
<rect x="841.994" y="28.667" fill="none" width="48.998" height="26"/>
<text transform="matrix(1 0 0 1 841.9941 39.1602)" fill="#FFFFFF" font-family="'Oswald-Regular'" font-size="12">Brooklyn</text>
<path fill="#F2643E" d="M986.333,57.917c0,6.627-5.373,12-12,12H937c-6.628,0-12-5.373-12-12V13.584c0-6.627,5.372-12,12-12h37.333
	c6.627,0,12,5.373,12,12V57.917z"/>
<rect x="937.328" y="28.667" fill="none" width="48.998" height="26"/>
<text transform="matrix(1 0 0 1 937.3281 39.1602)" fill="#FFFFFF" font-family="'Oswald-Regular'" font-size="12">Queens</text>
<path fill="#F2643E" d="M1078,57.917c0,6.627-5.373,12-12,12h-37.333c-6.628,0-12-5.373-12-12V13.584c0-6.627,5.372-12,12-12H1066
	c6.627,0,12,5.373,12,12V57.917z"/>
<rect x="1023.662" y="23.667" fill="none" width="48.998" height="26.001"/>
<text transform="matrix(1 0 0 1 1032.3936 34.1611)"><tspan x="0" y="0" fill="#FFFFFF" font-family="'Oswald-Regular'" font-size="12">Staten </tspan><tspan x="1.412" y="14.4" fill="#FFFFFF" font-family="'Oswald-Regular'" font-size="12">Island</tspan></text>
<path fill="none" stroke="#404040" stroke-width="2" stroke-miterlimit="10" d="M479.199,43.108c0,0-3.942-1.38-4.14,2.562
	c0,0-1.578,6.9,1.576,8.083l8.871,0.197c0,0,6.112,5.52,8.478,5.717c0,0,12.223,0.001,14.392-0.788c0,0,6.702-6.112,8.674-13.012
	c0,0,0.788-6.111-6.309,1.972c0,0-1.972,2.562-5.717,1.183c0,0-6.506,0.788-8.478-1.183c0,0-5.52-7.491-11.04-6.111
	C485.507,41.729,479.791,41.926,479.199,43.108z"/>
<path fill="none" stroke="#404040" stroke-width="2" stroke-linecap="round" stroke-miterlimit="10" d="M488.662,48.825
	c0,0,4.731,2.957,6.702,3.746c0,0,11.829,2.957,12.223-1.183l-0.197-1.774"/>
<path fill="#404040" d="M492.144,42.358c0,0,6.702-3.547,7.885-3.35l-0.394-8.083l0.788-4.14L502,30.334l0.197,8.083
	c0,0,5.521,4.336,6.506,4.336c0,0,4.731,1.381,4.731,2.564c0,0-10.41,10.92-22.08-2.959"/>
<path fill="none" stroke="#404040" stroke-width="2" stroke-miterlimit="10" d="M500.293,28.915c0,0,0-11.631-18.137-8.477
	c0,0-2.957,13.603,17.742,11.237L500.293,28.915z"/>
<path fill="none" stroke="#404040" stroke-width="2" stroke-miterlimit="10" d="M501.261,27.304c0,0,4.182-8.995,15.862-0.599
	c0,0-2.801,11.49-16.575,2.863L501.261,27.304z"/>
<path fill="none" stroke="#404040" stroke-width="0.75" stroke-linecap="round" stroke-miterlimit="10" d="M488.268,24.578
	c0,0,8.788-0.666,11.294,6.37"/>
<path fill="none" stroke="#404040" stroke-width="0.75" stroke-linecap="round" stroke-miterlimit="10" d="M511.137,28.125
	c0,0-5.127-1.576-9.553,1.023"/>
<path fill="#F2643E" d="M618.671,57.916c0,6.627-5.373,12-12,12h-37.333c-6.628,0-12-5.373-12-12V13.584c0-6.627,5.372-12,12-12
	h37.333c6.627,0,12,5.373,12,12V57.916z"/>
<path fill="none" stroke="#FFFFFF" stroke-width="2" stroke-miterlimit="10" d="M570.199,38.441c0,0-3.942-1.379-4.14,2.562
	c0,0-1.578,6.9,1.576,8.084l8.871,0.197c0,0,6.112,5.52,8.478,5.717c0,0,12.223,0,14.392-0.789c0,0,6.702-6.111,8.674-13.012
	c0,0,0.788-6.111-6.309,1.973c0,0-1.972,2.562-5.717,1.182c0,0-6.506,0.789-8.478-1.182c0,0-5.52-7.492-11.04-6.111
	C576.507,37.062,570.791,37.26,570.199,38.441z"/>
<path fill="none" stroke="#FFFFFF" stroke-linecap="round" stroke-miterlimit="10" d="M579.662,44.158c0,0,4.731,2.957,6.702,3.746
	c0,0,11.829,2.957,12.223-1.182l-0.197-1.775"/>
<path fill="#FFFFFF" d="M583.144,37.691c0,0,6.702-3.546,7.885-3.349l-0.394-8.083l0.788-4.14L593,25.667l0.197,8.083
	c0,0,5.521,4.335,6.506,4.335c0,0,4.731,1.381,4.731,2.564c0,0-10.41,10.92-22.08-2.959"/>
<path fill="none" stroke="#FFFFFF" stroke-width="2" stroke-miterlimit="10" d="M591.293,24.248c0,0,0-11.631-18.137-8.477
	c0,0-2.957,13.603,17.742,11.237L591.293,24.248z"/>
<path fill="none" stroke="#FFFFFF" stroke-width="2" stroke-miterlimit="10" d="M592.261,22.638c0,0,4.182-8.995,15.862-0.599
	c0,0-2.801,11.49-16.575,2.863L592.261,22.638z"/>
<path fill="none" stroke="#FFFFFF" stroke-width="0.75" stroke-linecap="round" stroke-miterlimit="10" d="M579.268,19.911
	c0,0,8.788-0.666,11.294,6.37"/>
<path fill="none" stroke="#FFFFFF" stroke-width="0.75" stroke-linecap="round" stroke-miterlimit="10" d="M602.137,23.458
	c0,0-5.127-1.576-9.553,1.023"/>
<path fill="#414042" d="M-227.5,147.75h-8.25c0,0-4.25,2,0.25,4.25c0,0,4,0.75,2.25,6l-9.25,23.25c0,0-1.5,6.25,6,6.75h18.25
	c0,0,8-1.5,5-7.25L-222,158.5c0,0-2-6.25,1.5-6.75c0,0,5.25-3.25-1.5-4H-227.5z"/>
<circle fill="#414042" cx="-226.75" cy="134.25" r="4.25"/>
<circle fill="#414042" cx="-232.5" cy="140.75" r="1.25"/>
<circle fill="#414042" cx="-224.375" cy="142.625" r="2.625"/>
<path fill="#414042" d="M-333.75,23.25H-342c0,0-4.25,2,0.25,4.25c0,0,4,0.75,2.25,6l-9.25,23.25c0,0-1.5,6.25,6,6.75h18.25
	c0,0,8-1.5,5-7.25L-328.25,34c0,0-2-6.25,1.5-6.75c0,0,5.25-3.25-1.5-4H-333.75z"/>
<circle fill="#414042" cx="-333" cy="9.75" r="4.25"/>
<circle fill="#414042" cx="-338.75" cy="16.25" r="1.25"/>
<circle fill="#414042" cx="-330.625" cy="18.125" r="2.625"/>
<path fill="#F2643E" d="M-208.998,57.75c0,6.627-5.373,12-12,12h-37.333c-6.628,0-12-5.373-12-12V13.417c0-6.627,5.372-12,12-12
	h37.333c6.627,0,12,5.373,12,12V57.75z"/>
<path fill="#FFFFFF" d="M-240.25,23.75h-8.25c0,0-4.25,2,0.25,4.25c0,0,4,0.75,2.25,6l-9.25,23.25c0,0-1.5,6.25,6,6.75H-231
	c0,0,8-1.5,5-7.25l-8.75-22.25c0,0-2-6.25,1.5-6.75c0,0,5.25-3.25-1.5-4H-240.25z"/>
<circle fill="#FFFFFF" cx="-239.5" cy="10.25" r="4.25"/>
<circle fill="#FFFFFF" cx="-245.25" cy="16.75" r="1.25"/>
<circle fill="#FFFFFF" cx="-237.125" cy="18.625" r="2.625"/>
<circle fill="#FFFFFF" cx="-162.452" cy="34.256" r="2.83"/>
<circle fill="#FFFFFF" cx="-153.153" cy="29.808" r="3.437"/>
<circle fill="#FFFFFF" cx="-143.752" cy="30.313" r="2.932"/>
<path fill="#FFFFFF" stroke="#424143" stroke-miterlimit="10" d="M-163.059,61.144c0,0,4.043-12.13,7.885-10.513
	c0,0,4.447,1.415,2.628,4.448C-152.546,55.079-154.365,61.346-163.059,61.144z"/>
<path fill="#FFFFFF" stroke="#424143" stroke-miterlimit="10" d="M-152.95,49.62c0,0,10.513-13.141,17.79-19.61
	c0,0,12.332-10.917,12.535-6.671c0,0,0.201,2.426-4.853,8.289c0,0-20.823,20.823-22.845,21.025
	C-150.322,52.652-153.152,53.058-152.95,49.62z"/>
<path fill="#F2643E" d="M-25.997,58.001c0,6.627-5.373,12-12,12H-75.33c-6.628,0-12-5.373-12-12V13.668c0-6.628,5.372-12,12-12
	h37.333c6.627,0,12,5.372,12,12V58.001z"/>
<path fill="#FFFFFF" d="M-77.337,40.21c0,0-6.064-15.365,16.174-22.643c0,0,12.736-4.852,19.003,8.896
	c0,0,13.546,17.993-12.736,26.484c0,0-12.332,2.021-17.588-5.863c0,0,5.66-3.032,2.021-7.479
	C-70.463,39.604-72.282,36.975-77.337,40.21z"/>
<circle fill="#F2643E" cx="-69.452" cy="30.506" r="2.83"/>
<circle fill="#F2643E" cx="-60.153" cy="26.058" r="3.437"/>
<circle fill="#F2643E" cx="-50.752" cy="26.563" r="2.932"/>
<path fill="#F2643E" stroke="#FFFFFF" stroke-miterlimit="10" d="M-70.059,57.394c0,0,4.043-12.13,7.885-10.513
	c0,0,4.447,1.415,2.628,4.448C-59.546,51.329-61.365,57.596-70.059,57.394z"/>
<path fill="#F2643E" stroke="#FFFFFF" stroke-miterlimit="10" d="M-59.95,45.87c0,0,10.513-13.141,17.79-19.61
	c0,0,12.332-10.917,12.535-6.671c0,0,0.201,2.426-4.853,8.289c0,0-20.823,20.823-22.845,21.025
	C-57.322,48.902-60.152,49.308-59.95,45.87z"/>
<g>
	<path fill="#FFFFFF" stroke="#414042" stroke-width="0.75" stroke-miterlimit="10" d="M12.125,159.25L12,144.75
		c0,0-0.125-3,2.5-3.125c0,0,1.75,0,1.75,3.25l0.125,6.875v-13.875c0,0,0-3.625,2.75-3.5c0,0,2.5,0.125,2.375,3.5v14
		c0,0-0.75-16.875,0.25-17.25c0,0,3.125-4,5.125,0.375l-0.125,2.625v14L27,136.75c0,0,3.625-5.375,5.25,1v18.375
		c0,0,0-7.125,0.75-8.375c0,0,4.375-4.5,4.5,6.5c0,0,1.625,17.25-10.5,18c0,0-6.875,1.125-12.125-4.25
		C14.875,168,11.75,164.25,12.125,159.25z"/>
	<path fill="#414042" d="M12.375,146.75c0,0,2.375-0.125,2.625,2.5c0,0,1,2,1-3c0,0,0.375-7.375-3.75-3L12.375,146.75z"/>
	<path fill="#414042" d="M16.375,140.5c0,0,0.5,6.125,2,3.375c0,0-0.125-3.75,2-2.75c0,0,0.25,5,0.5,3.875s1.5-9.625-0.875-10
		C20,135,16.25,132,16.375,140.5z"/>
	<path fill="#414042" d="M21.875,139.375c0,0,3.125,0.25,3.75,1.875c0,0,1.25,2,1.125-3c0,0,1.125-5.25-2.75-5.25
		C24,133,19.75,134.625,21.875,139.375z"/>
	<path fill="#414042" d="M27.25,138.75c0,0,3.5-2,4.875,0.625c0,0,0.5-7.75-4.875-3.375V138.75z"/>
	<path fill="#414042" d="M26.875,164.625c0,0-1.375-3.125-2.625-2.5c0,0-3.875,5.75,2.375,7c0,0,5.5,0.5,3.75-5
		C30.375,164.125,28.625,166.75,26.875,164.625z"/>
	<path fill="#FFFFFF" stroke="#414042" stroke-width="0.75" stroke-miterlimit="10" d="M66,158.625l0.125-14.5
		c0,0,0.125-3-2.5-3.125c0,0-1.75,0-1.75,3.25l-0.125,6.875V137.25c0,0,0-3.625-2.75-3.5c0,0-2.5,0.125-2.375,3.5v14
		c0,0,0.75-16.875-0.25-17.25c0,0-3.125-4-5.125,0.375L51.375,137v14l-0.25-14.875c0,0-3.625-5.375-5.25,1V155.5
		c0,0,0-7.125-0.75-8.375c0,0-4.5-2.875-4.625,8.125c0,0-1.5,15.625,10.625,16.375c0,0,6.875,1.125,12.125-4.25
		C63.25,167.375,66.375,163.625,66,158.625z"/>
	<path fill="#414042" d="M40.625,152.375c0,0,2-0.875,2.375,1.125c0,0,2.5,2,2.625-3.625c0,0,0.5-3.5-2.875-2.75
		C42.75,147.125,40.125,149.125,40.625,152.375z"/>
	<path fill="#414042" d="M46.125,140.375l4.625-0.25c0,0,1.75-5.75-2.75-6C48,134.125,45.375,135.875,46.125,140.375z"/>
	<path fill="#414042" d="M51.625,141.75c0,0,0,4.625,2.375,2.875c0,0-0.125-3.875,1.125-2.125c0,0,1.25,2,1.375,0.125
		c0,0,1.125-7.875-0.875-9.25c0,0-2.125-2.75-4.125,0.75L51.625,141.75z"/>
	<path fill="#414042" d="M57,138.25c0,0,2.625-0.75,3.25,1.75c0,0,1.5,0.875,1.5-2.75c0,0-0.875-4.5-3.5-3.125
		C58.25,134.125,56.625,133.75,57,138.25z"/>
	<path fill="#414042" d="M61.875,146.25l4.375-0.75c0,0,0.25-4.125-2.375-4.375s-0.125-0.5-0.125-0.5S61.625,141.375,61.875,146.25z
		"/>
	<path fill="#414042" d="M58.625,170.375c0,0-4.25-9.625,5.625-5.25C64.25,165.125,66.375,166.75,58.625,170.375z"/>
	<path fill="#414042" d="M59.125,164.5c0,0-1.5-2.25,2-4.5c0,0,3-0.125,2.875-2.625c0,0,2-4.125,2,1.25c0,0-0.25,5.5-1.25,6.375
		S59.125,164.5,59.125,164.5z"/>
	<path fill="#414042" d="M60.881,167.997c0,0-3.065-1.915-7.131,0.378l-4.77,2.785C48.98,171.16,59.75,172.625,60.881,167.997z"/>
</g>
<path fill="#FFFFFF" stroke="#414042" stroke-width="2" stroke-miterlimit="10" d="M14.277,27.989l-0.104-12.063
	c0,0-0.104-2.496,2.08-2.6c0,0,1.455,0,1.455,2.704l0.104,5.72V10.206c0,0,0-3.016,2.288-2.912c0,0,2.08,0.104,1.976,2.912v11.647
	c0,0-0.624-14.039,0.208-14.351c0,0,2.6-3.328,4.264,0.312l-0.104,2.184v11.647L26.653,9.27c0,0,3.016-4.472,4.367,0.832v15.288
	c0,0,0-5.928,0.624-6.968c0,0,3.641-3.744,3.744,5.408c0,0,1.352,14.351-8.735,14.976c0,0-5.72,0.936-10.088-3.536
	C16.565,35.269,13.966,32.149,14.277,27.989z"/>
<path fill="#414042" d="M14.485,17.589c0,0,1.976-0.104,2.185,2.08c0,0,0.832,1.664,0.832-2.496c0,0,0.312-6.136-3.12-2.496
	L14.485,17.589z"/>
<path fill="#414042" d="M17.813,12.39c0,0,0.416,5.096,1.664,2.808c0,0-0.104-3.12,1.664-2.288c0,0,0.208,4.16,0.416,3.224
	s1.247-8.007-0.729-8.319C20.829,7.814,17.709,5.318,17.813,12.39z"/>
<path fill="#414042" d="M22.389,11.454c0,0,2.601,0.208,3.12,1.56c0,0,1.04,1.664,0.937-2.496c0,0,0.936-4.368-2.288-4.368
	C24.157,6.15,20.621,7.502,22.389,11.454z"/>
<path fill="#414042" d="M26.861,10.934c0,0,2.912-1.664,4.056,0.52c0,0,0.416-6.448-4.056-2.808V10.934z"/>
<path fill="#414042" d="M26.549,32.46c0,0-1.144-2.6-2.184-2.08c0,0-3.224,4.784,1.976,5.825c0,0,4.576,0.416,3.12-4.161
	C29.461,32.044,28.005,34.229,26.549,32.46z"/>
<path fill="#FFFFFF" stroke="#414042" stroke-width="2" stroke-miterlimit="10" d="M59.1,27.469l0.104-12.063
	c0,0,0.104-2.496-2.08-2.6c0,0-1.456,0-1.456,2.704l-0.104,5.72V9.686c0,0,0-3.016-2.287-2.912c0,0-2.08,0.104-1.977,2.912v11.647
	c0,0,0.624-14.039-0.208-14.351c0,0-2.6-3.328-4.264,0.312l0.104,2.184v11.647L46.725,8.75c0,0-3.017-4.472-4.368,0.832v15.288
	c0,0,0-5.928-0.624-6.968c0,0-3.744-2.392-3.848,6.76c0,0-1.248,12.999,8.84,13.624c0,0,5.72,0.936,10.087-3.537
	C56.812,34.749,59.412,31.628,59.1,27.469z"/>
<path fill="#414042" d="M37.988,22.269c0,0,1.664-0.728,1.977,0.936c0,0,2.08,1.664,2.184-3.016c0,0,0.416-2.912-2.392-2.288
	C39.757,17.901,37.572,19.565,37.988,22.269z"/>
<path fill="#414042" d="M42.564,12.286l3.848-0.208c0,0,1.456-4.784-2.288-4.992C44.124,7.086,41.94,8.542,42.564,12.286z"/>
<path fill="#414042" d="M47.141,13.43c0,0,0,3.848,1.976,2.392c0,0-0.104-3.224,0.936-1.768c0,0,1.04,1.664,1.145,0.104
	c0,0,0.936-6.552-0.729-7.696c0,0-1.768-2.288-3.432,0.624L47.141,13.43z"/>
<path fill="#414042" d="M51.612,10.518c0,0,2.184-0.624,2.704,1.456c0,0,1.247,0.728,1.247-2.288c0,0-0.728-3.744-2.911-2.6
	C52.652,7.086,51.3,6.774,51.612,10.518z"/>
<path fill="#414042" d="M55.668,17.173l3.64-0.624c0,0,0.208-3.432-1.976-3.64s-0.104-0.416-0.104-0.416S55.46,13.118,55.668,17.173
	z"/>
<path fill="#414042" d="M52.964,37.244c0,0-3.536-8.007,4.68-4.368C57.644,32.876,59.412,34.229,52.964,37.244z"/>
<path fill="#414042" d="M53.38,32.357c0,0-1.248-1.872,1.664-3.744c0,0,2.496-0.104,2.392-2.184c0,0,1.664-3.432,1.664,1.04
	c0,0-0.208,4.576-1.04,5.304C57.228,33.5,53.38,32.357,53.38,32.357z"/>
<path fill="#414042" d="M54.841,35.266c0,0-2.551-1.593-5.933,0.314l-3.968,2.318C44.94,37.898,53.9,39.117,54.841,35.266z"/>
<rect x="1114.661" y="28.334" fill="none" width="74.667" height="48.332"/>
<text transform="matrix(1 0 0 1 1114.6611 38.8281)" fill="#414042" font-family="'Oswald-Regular'" font-size="12">Manhattan</text>
<rect x="1217.327" y="28.666" fill="none" width="34.999" height="22.001"/>
<text transform="matrix(1 0 0 1 1217.3271 39.1602)" fill="#414042" font-family="'Oswald-Regular'" font-size="12">Bronx</text>
<rect x="1301.994" y="28.666" fill="none" width="48.998" height="26.001"/>
<text transform="matrix(1 0 0 1 1301.9941 39.1602)" fill="#414042" font-family="'Oswald-Regular'" font-size="12">Brooklyn</text>
<rect x="1397.328" y="28.666" fill="none" width="48.998" height="26.001"/>
<text transform="matrix(1 0 0 1 1397.3281 39.1602)" fill="#414042" font-family="'Oswald-Regular'" font-size="12">Queens</text>
<rect x="1483.662" y="23.667" fill="none" width="48.998" height="26.001"/>
<text transform="matrix(1 0 0 1 1492.3936 34.1611)"><tspan x="0" y="0" fill="#414042" font-family="'Oswald-Regular'" font-size="12">Staten </tspan><tspan x="1.412" y="14.4" fill="#414042" font-family="'Oswald-Regular'" font-size="12">Island</tspan></text>
<rect x="-0.658" y="44.023" fill="none" width="72.658" height="24.088"/>
<text transform="matrix(1 0 0 1 11.0557 51.6113)"><tspan x="0" y="0" font-family="'OpenSans-Bold'" font-size="9.9836">Hands-On</tspan><tspan x="5.545" y="11.98" font-family="'OpenSans-Bold'" font-size="9.9836">Activity</tspan></text>
</svg>
