<?xml version="1.0" encoding="utf-8"?>
<!-- Generator: Adobe Illustrator 16.0.0, SVG Export Plug-In . SVG Version: 6.00 Build 0)  -->
<!DOCTYPE svg PUBLIC "-//W3C//DTD SVG 1.1//EN" "http://www.w3.org/Graphics/SVG/1.1/DTD/svg11.dtd">
<svg version="1.1" id="Layer_1" xmlns="http://www.w3.org/2000/svg" xmlns:xlink="http://www.w3.org/1999/xlink" x="0px" y="0px"
	 width="72px" height="72px" viewBox="0 0 72 72" enable-background="new 0 0 72 72" xml:space="preserve">
<g>
	<defs>
		<rect id="SVGID_3_" x="16.75" y="17.5" width="36.869" height="36.875"/>
	</defs>
	<clipPath id="SVGID_2_">
		<use xlink:href="#SVGID_3_"  overflow="visible"/>
	</clipPath>
	<path clip-path="url(#SVGID_2_)" fill="#414042" d="M42.098,52.068v-8.074c0-1.271-1.033-2.307-2.305-2.307h-9.218
		c-1.271,0-2.305,1.035-2.305,2.307v8.074h-4.609V37.354l11.523-11.534l11.522,11.534v14.715H42.098z M52.607,33.474L37.628,18.48
		c-1.305-1.308-3.58-1.308-4.888,0L17.761,33.474c-1.349,1.349-1.349,3.543,0,4.893c0.654,0.652,1.521,1.014,2.443,1.014
		c0.402,0,0.787-0.08,1.152-0.209v12.896c0,1.271,1.034,2.307,2.305,2.307h4.609c1.271,0,2.305-1.035,2.305-2.307v-8.074h9.218
		v8.074c0,1.271,1.034,2.307,2.305,2.307h4.609c1.271,0,2.305-1.035,2.305-2.307V39.172c0.366,0.129,0.751,0.209,1.152,0.209
		c0.924,0,1.791-0.361,2.443-1.014C53.956,37.018,53.956,34.823,52.607,33.474"/>
</g>
</svg>
