<?xml version="1.0" encoding="utf-8"?>
<!-- Generator: Adobe Illustrator 16.0.0, SVG Export Plug-In . SVG Version: 6.00 Build 0)  -->
<!DOCTYPE svg PUBLIC "-//W3C//DTD SVG 1.1//EN" "http://www.w3.org/Graphics/SVG/1.1/DTD/svg11.dtd">
<svg version="1.1" id="Layer_1" xmlns="http://www.w3.org/2000/svg" xmlns:xlink="http://www.w3.org/1999/xlink" x="0px" y="0px"
	 width="72px" height="72px" viewBox="0 0 72 72" enable-background="new 0 0 72 72" xml:space="preserve">
<path fill="#F2643E" d="M66.332,57.917c0,6.627-5.373,12-12,12H16.999c-6.628,0-12-5.373-12-12V13.584c0-6.627,5.372-12,12-12
	h37.333c6.627,0,12,5.373,12,12V57.917z"/>
<g>
	<path fill="#FFFFFF" d="M11.411,38.828v-10.5h2.074l1.488,8.039l1.488-8.039h2.074v10.5h-1.5v-8.286l-1.5,8.286h-1.125l-1.5-8.286
		v8.286H11.411z"/>
	<path fill="#FFFFFF" d="M21.278,38.934c-0.418,0-0.772-0.182-1.063-0.543s-0.437-0.768-0.437-1.221
		c0-0.364,0.062-0.694,0.185-0.991s0.253-0.534,0.39-0.712s0.365-0.361,0.686-0.551s0.562-0.319,0.727-0.39s0.449-0.186,0.855-0.346
		c0.07-0.027,0.123-0.049,0.158-0.064v-0.539c0-0.379-0.053-0.673-0.158-0.882s-0.303-0.313-0.592-0.313
		c-0.258,0-0.442,0.089-0.554,0.267s-0.175,0.423-0.19,0.735c-0.004,0.043-0.006,0.107-0.006,0.193h-1.5
		c0.008-0.719,0.209-1.291,0.604-1.717s0.943-0.639,1.646-0.639c0.699,0,1.249,0.216,1.649,0.647s0.601,1.001,0.601,1.708v3.375
		c0,0.782,0.064,1.407,0.193,1.875h-1.494l-0.199-1.125c-0.078,0.156-0.142,0.277-0.19,0.363s-0.12,0.191-0.214,0.318
		s-0.188,0.225-0.281,0.293s-0.211,0.129-0.352,0.18S21.446,38.934,21.278,38.934z M22.028,37.703c0.105,0,0.208-0.031,0.308-0.094
		s0.175-0.123,0.226-0.182s0.113-0.137,0.188-0.234c0.012-0.02,0.021-0.033,0.029-0.041v-2.075
		c-0.062,0.043-0.166,0.109-0.311,0.199s-0.26,0.163-0.346,0.22s-0.189,0.135-0.311,0.234s-0.215,0.195-0.281,0.287
		s-0.125,0.204-0.176,0.337s-0.076,0.271-0.076,0.416C21.278,37.393,21.528,37.703,22.028,37.703z"/>
	<path fill="#FFFFFF" d="M25.567,38.828v-7.5h1.5v0.809c0.223-0.203,0.404-0.358,0.545-0.466s0.335-0.209,0.583-0.305
		s0.513-0.144,0.794-0.144c0.32,0,0.58,0.117,0.779,0.352s0.299,0.521,0.299,0.861v6.393h-1.5v-5.625
		c0-0.262-0.037-0.452-0.111-0.571s-0.225-0.179-0.451-0.179c-0.129,0-0.257,0.026-0.384,0.079s-0.222,0.102-0.284,0.146
		s-0.152,0.116-0.27,0.214v5.936H25.567z"/>
	<path fill="#FFFFFF" d="M31.38,38.828v-10.5h1.5v3.809c0.223-0.203,0.404-0.358,0.545-0.466s0.335-0.209,0.583-0.305
		s0.513-0.144,0.794-0.144c0.32,0,0.58,0.117,0.779,0.352s0.299,0.521,0.299,0.861v6.393h-1.5v-5.625
		c0-0.258-0.032-0.447-0.097-0.568s-0.204-0.182-0.419-0.182c-0.305,0-0.633,0.146-0.984,0.439v5.936H31.38z"/>
	<path fill="#FFFFFF" d="M38.499,38.934c-0.418,0-0.772-0.182-1.063-0.543s-0.437-0.768-0.437-1.221
		c0-0.364,0.062-0.694,0.185-0.991s0.253-0.534,0.39-0.712s0.365-0.361,0.686-0.551s0.562-0.319,0.727-0.39s0.449-0.186,0.855-0.346
		c0.07-0.027,0.123-0.049,0.158-0.064v-0.539c0-0.379-0.053-0.673-0.158-0.882s-0.303-0.313-0.592-0.313
		c-0.258,0-0.442,0.089-0.554,0.267s-0.175,0.423-0.19,0.735c-0.004,0.043-0.006,0.107-0.006,0.193h-1.5
		c0.008-0.719,0.209-1.291,0.604-1.717s0.943-0.639,1.646-0.639c0.699,0,1.249,0.216,1.649,0.647s0.601,1.001,0.601,1.708v3.375
		c0,0.782,0.064,1.407,0.193,1.875h-1.494l-0.199-1.125c-0.078,0.156-0.142,0.277-0.19,0.363s-0.12,0.191-0.214,0.318
		s-0.188,0.225-0.281,0.293s-0.211,0.129-0.352,0.18S38.667,38.934,38.499,38.934z M39.249,37.703c0.105,0,0.208-0.031,0.308-0.094
		s0.175-0.123,0.226-0.182s0.113-0.137,0.188-0.234c0.012-0.02,0.021-0.033,0.029-0.041v-2.075
		c-0.062,0.043-0.166,0.109-0.311,0.199s-0.26,0.163-0.346,0.22s-0.189,0.135-0.311,0.234s-0.215,0.195-0.281,0.287
		s-0.125,0.204-0.176,0.337s-0.076,0.271-0.076,0.416C38.499,37.393,38.749,37.703,39.249,37.703z"/>
	<path fill="#FFFFFF" d="M44.669,38.934c-0.59,0-1.019-0.15-1.286-0.451s-0.405-0.756-0.413-1.365v-4.665h-0.75v-1.125h0.75v-2.625
		h1.5v2.625h1.125v1.125H44.47v4.377c0,0.301,0.041,0.522,0.123,0.663s0.248,0.211,0.498,0.211c0.109,0,0.277-0.02,0.504-0.059
		v1.219C45.22,38.91,44.911,38.934,44.669,38.934z"/>
	<path fill="#FFFFFF" d="M48.771,38.934c-0.59,0-1.019-0.15-1.286-0.451s-0.405-0.756-0.413-1.365v-4.665h-0.75v-1.125h0.75v-2.625
		h1.5v2.625h1.125v1.125h-1.125v4.377c0,0.301,0.041,0.522,0.123,0.663s0.248,0.211,0.498,0.211c0.109,0,0.277-0.02,0.504-0.059
		v1.219C49.321,38.91,49.013,38.934,48.771,38.934z"/>
	<path fill="#FFFFFF" d="M52.099,38.934c-0.418,0-0.772-0.182-1.063-0.543s-0.437-0.768-0.437-1.221
		c0-0.364,0.062-0.694,0.185-0.991s0.253-0.534,0.39-0.712s0.365-0.361,0.686-0.551s0.562-0.319,0.727-0.39s0.449-0.186,0.855-0.346
		c0.07-0.027,0.123-0.049,0.158-0.064v-0.539c0-0.379-0.053-0.673-0.158-0.882s-0.303-0.313-0.592-0.313
		c-0.258,0-0.442,0.089-0.554,0.267s-0.175,0.423-0.19,0.735c-0.004,0.043-0.006,0.107-0.006,0.193h-1.5
		c0.008-0.719,0.209-1.291,0.604-1.717s0.943-0.639,1.646-0.639c0.699,0,1.249,0.216,1.649,0.647s0.601,1.001,0.601,1.708v3.375
		c0,0.782,0.064,1.407,0.193,1.875h-1.494l-0.199-1.125c-0.078,0.156-0.142,0.277-0.19,0.363s-0.12,0.191-0.214,0.318
		s-0.188,0.225-0.281,0.293s-0.211,0.129-0.352,0.18S52.267,38.934,52.099,38.934z M52.849,37.703c0.105,0,0.208-0.031,0.308-0.094
		s0.175-0.123,0.226-0.182s0.113-0.137,0.188-0.234c0.012-0.02,0.021-0.033,0.029-0.041v-2.075
		c-0.062,0.043-0.166,0.109-0.311,0.199s-0.26,0.163-0.346,0.22s-0.189,0.135-0.311,0.234s-0.215,0.195-0.281,0.287
		s-0.125,0.204-0.176,0.337s-0.076,0.271-0.076,0.416C52.099,37.393,52.349,37.703,52.849,37.703z"/>
	<path fill="#FFFFFF" d="M56.388,38.828v-7.5h1.5v0.809c0.223-0.203,0.404-0.358,0.545-0.466s0.335-0.209,0.583-0.305
		s0.513-0.144,0.794-0.144c0.32,0,0.58,0.117,0.779,0.352s0.299,0.521,0.299,0.861v6.393h-1.5v-5.625
		c0-0.262-0.037-0.452-0.111-0.571s-0.225-0.179-0.451-0.179c-0.129,0-0.257,0.026-0.384,0.079s-0.222,0.102-0.284,0.146
		s-0.152,0.116-0.27,0.214v5.936H56.388z"/>
</g>
</svg>
