<?xml version="1.0" encoding="utf-8"?>
<!-- Generator: Adobe Illustrator 16.0.0, SVG Export Plug-In . SVG Version: 6.00 Build 0)  -->
<!DOCTYPE svg PUBLIC "-//W3C//DTD SVG 1.1//EN" "http://www.w3.org/Graphics/SVG/1.1/DTD/svg11.dtd">
<svg version="1.1" id="Layer_1" xmlns="http://www.w3.org/2000/svg" xmlns:xlink="http://www.w3.org/1999/xlink" x="0px" y="0px"
	 width="72px" height="72px" viewBox="0 0 72 72" enable-background="new 0 0 72 72" xml:space="preserve">
<path fill="none" stroke="#404040" stroke-width="2" stroke-miterlimit="10" d="M19.199,43.108c0,0-3.942-1.38-4.14,2.562
	c0,0-1.578,6.9,1.576,8.083l8.871,0.197c0,0,6.112,5.52,8.478,5.717c0,0,12.223,0.001,14.392-0.788c0,0,6.702-6.112,8.674-13.012
	c0,0,0.788-6.111-6.309,1.972c0,0-1.972,2.562-5.717,1.183c0,0-6.506,0.788-8.478-1.183c0,0-5.52-7.491-11.04-6.111
	C25.507,41.729,19.791,41.926,19.199,43.108z"/>
<path fill="none" stroke="#404040" stroke-width="2" stroke-linecap="round" stroke-miterlimit="10" d="M28.662,48.825
	c0,0,4.731,2.957,6.702,3.746c0,0,11.829,2.957,12.223-1.183l-0.197-1.774"/>
<path fill="#404040" d="M32.144,42.358c0,0,6.702-3.547,7.885-3.35l-0.394-8.083l0.788-4.14L42,30.334l0.197,8.083
	c0,0,5.521,4.336,6.506,4.336c0,0,4.731,1.381,4.731,2.564c0,0-10.41,10.92-22.08-2.959"/>
<path fill="none" stroke="#404040" stroke-width="2" stroke-miterlimit="10" d="M40.293,28.915c0,0,0-11.631-18.137-8.477
	c0,0-2.957,13.603,17.742,11.237L40.293,28.915z"/>
<path fill="none" stroke="#404040" stroke-width="2" stroke-miterlimit="10" d="M41.261,27.304c0,0,4.182-8.995,15.862-0.599
	c0,0-2.801,11.49-16.575,2.863L41.261,27.304z"/>
<path fill="none" stroke="#404040" stroke-width="0.75" stroke-linecap="round" stroke-miterlimit="10" d="M28.268,24.578
	c0,0,8.788-0.666,11.294,6.37"/>
<path fill="none" stroke="#404040" stroke-width="0.75" stroke-linecap="round" stroke-miterlimit="10" d="M51.137,28.125
	c0,0-5.127-1.576-9.553,1.023"/>
</svg>
