<?xml version="1.0" encoding="utf-8"?>
<!-- Generator: Adobe Illustrator 16.0.0, SVG Export Plug-In . SVG Version: 6.00 Build 0)  -->
<!DOCTYPE svg PUBLIC "-//W3C//DTD SVG 1.1//EN" "http://www.w3.org/Graphics/SVG/1.1/DTD/svg11.dtd">
<svg version="1.1" id="Layer_1" xmlns="http://www.w3.org/2000/svg" xmlns:xlink="http://www.w3.org/1999/xlink" x="0px" y="0px"
	 width="72px" height="72px" viewBox="0 0 72 72" enable-background="new 0 0 72 72" xml:space="preserve">
<path fill="#F2643E" d="M66.671,57.916c0,6.627-5.373,12-12,12H17.338c-6.628,0-12-5.373-12-12V13.584c0-6.627,5.372-12,12-12
	h37.333c6.627,0,12,5.373,12,12V57.916z"/>
<path fill="none" stroke="#FFFFFF" stroke-width="2" stroke-miterlimit="10" d="M18.199,38.441c0,0-3.942-1.379-4.14,2.562
	c0,0-1.578,6.9,1.576,8.084l8.871,0.197c0,0,6.112,5.52,8.478,5.717c0,0,12.223,0,14.392-0.789c0,0,6.702-6.111,8.674-13.012
	c0,0,0.788-6.111-6.309,1.973c0,0-1.972,2.562-5.717,1.182c0,0-6.506,0.789-8.478-1.182c0,0-5.52-7.492-11.04-6.111
	C24.507,37.062,18.791,37.26,18.199,38.441z"/>
<path fill="none" stroke="#FFFFFF" stroke-linecap="round" stroke-miterlimit="10" d="M27.662,44.158c0,0,4.731,2.957,6.702,3.746
	c0,0,11.829,2.957,12.223-1.182l-0.197-1.775"/>
<path fill="#FFFFFF" d="M31.144,37.691c0,0,6.702-3.546,7.885-3.349l-0.394-8.083l0.788-4.14L41,25.667l0.197,8.083
	c0,0,5.521,4.335,6.506,4.335c0,0,4.731,1.381,4.731,2.564c0,0-10.41,10.92-22.08-2.959"/>
<path fill="none" stroke="#FFFFFF" stroke-width="2" stroke-miterlimit="10" d="M39.293,24.248c0,0,0-11.631-18.137-8.477
	c0,0-2.957,13.603,17.742,11.237L39.293,24.248z"/>
<path fill="none" stroke="#FFFFFF" stroke-width="2" stroke-miterlimit="10" d="M40.261,22.638c0,0,4.182-8.995,15.862-0.599
	c0,0-2.801,11.49-16.575,2.863L40.261,22.638z"/>
<path fill="none" stroke="#FFFFFF" stroke-width="0.75" stroke-linecap="round" stroke-miterlimit="10" d="M27.268,19.911
	c0,0,8.788-0.666,11.294,6.37"/>
<path fill="none" stroke="#FFFFFF" stroke-width="0.75" stroke-linecap="round" stroke-miterlimit="10" d="M50.137,23.458
	c0,0-5.127-1.576-9.553,1.023"/>
</svg>
