<?xml version="1.0" encoding="utf-8"?>
<!-- Generator: Adobe Illustrator 16.0.0, SVG Export Plug-In . SVG Version: 6.00 Build 0)  -->
<!DOCTYPE svg PUBLIC "-//W3C//DTD SVG 1.1//EN" "http://www.w3.org/Graphics/SVG/1.1/DTD/svg11.dtd">
<svg version="1.1" id="Layer_1" xmlns="http://www.w3.org/2000/svg" xmlns:xlink="http://www.w3.org/1999/xlink" x="0px" y="0px"
	 width="72px" height="72px" viewBox="0 0 72 72" enable-background="new 0 0 72 72" xml:space="preserve">
<path fill="#F2633E" d="M67.003,57.501c0,6.627-5.373,12-12,12H17.67c-6.628,0-12-5.373-12-12V13.168c0-6.627,5.372-12,12-12h37.333
	c6.627,0,12,5.373,12,12V57.501z"/>
<g>
	<circle fill="#FFFFFF" cx="26.729" cy="27.189" r="12.937"/>
	<circle fill="#FFFFFF" cx="39.886" cy="21.488" r="14.69"/>
	<circle fill="#FFFFFF" cx="35.5" cy="35.083" r="12.937"/>
	<path fill="#FFFFFF" d="M33.966,59.75c0,0.907-0.737,1.645-1.645,1.645l0,0c-0.908,0-1.645-0.737-1.645-1.645V47.69
		c0-0.908,0.736-1.645,1.645-1.645l0,0c0.907,0,1.645,0.736,1.645,1.645V59.75z"/>
	<path fill="#FFFFFF" d="M42.702,64.871c0,1.35-0.968,2.443-2.159,2.443l0,0c-1.191,0-2.158-1.094-2.158-2.443V46.954
		c0-1.35,0.967-2.443,2.158-2.443l0,0c1.191,0,2.159,1.094,2.159,2.443V64.871z"/>
	<path fill="#FFFFFF" d="M54.104,43.604c0,1.349-0.967,2.442-2.158,2.442l0,0c-1.191,0-2.158-1.094-2.158-2.442V25.685
		c0-1.349,0.967-2.442,2.158-2.442l0,0c1.191,0,2.158,1.094,2.158,2.442V43.604z"/>
	<circle fill="#FFFFFF" cx="15.438" cy="44.62" r="5.153"/>
	<circle fill="#FFFFFF" cx="60.825" cy="21.817" r="2.96"/>
	<circle fill="#FFFFFF" cx="60.935" cy="38.811" r="1.206"/>
</g>
</svg>
