<?xml version="1.0" encoding="utf-8"?>
<!-- Generator: Adobe Illustrator 16.0.0, SVG Export Plug-In . SVG Version: 6.00 Build 0)  -->
<!DOCTYPE svg PUBLIC "-//W3C//DTD SVG 1.1//EN" "http://www.w3.org/Graphics/SVG/1.1/DTD/svg11.dtd">
<svg version="1.1" id="Layer_1" xmlns="http://www.w3.org/2000/svg" xmlns:xlink="http://www.w3.org/1999/xlink" x="0px" y="0px"
	 width="72px" height="72px" viewBox="0 0 72 72" enable-background="new 0 0 72 72" xml:space="preserve">
<g>
	<defs>
		<rect id="SVGID_7_" x="24.375" y="21.592" width="28.854" height="28.783"/>
	</defs>
	<clipPath id="SVGID_2_">
		<use xlink:href="#SVGID_7_"  overflow="visible"/>
	</clipPath>
	<path clip-path="url(#SVGID_2_)" fill="#414042" d="M44.64,41.819c-4.437,4.425-7.985,5.685-10.498,5.685
		c-1.94,0-3.262-0.751-3.888-1.378c-0.006-0.006,4.309-4.314,4.309-4.314l0.428,0.428c0.281,0.279,0.647,0.421,1.018,0.421
		c0.368,0,0.736-0.142,1.018-0.421l8.037-8.021c0.562-0.561,0.562-1.469,0-2.029l-0.429-0.428l4.317-4.307
		C50.394,28.897,52.501,33.972,44.64,41.819L44.64,41.819z M50.992,25.429l-2.582-2.575c-0.813-0.813-1.899-1.262-3.051-1.262
		c-1.152,0-2.236,0.448-3.052,1.262l-2.282,2.278c-1.684,1.68-1.684,4.411,0,6.091l1.984,1.98l-6.002,5.991l-1.984-1.98
		c-0.815-0.814-1.899-1.263-3.052-1.263c-1.153,0-2.237,0.448-3.052,1.263l-2.282,2.277c-1.685,1.68-1.685,4.411,0,6.091
		l2.581,2.575c0.669,0.668,2.584,2.218,5.921,2.218c3.978,0,8.192-2.196,12.534-6.525C55.658,34.881,53.615,28.052,50.992,25.429
		L50.992,25.429z"/>
</g>
</svg>
