<?xml version="1.0" encoding="utf-8"?>
<!-- Generator: Adobe Illustrator 16.0.0, SVG Export Plug-In . SVG Version: 6.00 Build 0)  -->
<!DOCTYPE svg PUBLIC "-//W3C//DTD SVG 1.1//EN" "http://www.w3.org/Graphics/SVG/1.1/DTD/svg11.dtd">
<svg version="1.1" id="Layer_1" xmlns="http://www.w3.org/2000/svg" xmlns:xlink="http://www.w3.org/1999/xlink" x="0px" y="0px"
	 width="72px" height="72px" viewBox="0 0 72 72" enable-background="new 0 0 72 72" xml:space="preserve">
<path fill="none" stroke="#414042" stroke-miterlimit="10" d="M66.834,58.244c0,6.627-5.373,12-12,12H17.501
	c-6.628,0-12-5.373-12-12V13.912c0-6.627,5.372-12,12-12h37.333c6.627,0,12,5.373,12,12V58.244z"/>
<g>
	<path fill="#414042" d="M23.557,41.66c-0.426,0-0.849-0.148-1.269-0.445s-0.726-0.627-0.917-0.99
		c-0.168,0.027-0.363,0.041-0.586,0.041c-0.527,0-0.979-0.08-1.356-0.24s-0.677-0.395-0.899-0.703s-0.385-0.67-0.486-1.086
		s-0.152-0.9-0.152-1.451v-3.809c0-0.551,0.051-1.031,0.152-1.441s0.264-0.767,0.486-1.069s0.522-0.53,0.899-0.683
		s0.829-0.229,1.356-0.229c1.023,0,1.762,0.293,2.215,0.879s0.68,1.434,0.68,2.543v3.809c0,1.546-0.42,2.576-1.26,3.087
		c0.113,0.164,0.284,0.299,0.513,0.402s0.437,0.154,0.624,0.154V41.66z M19.692,38.561c0.201,0.316,0.565,0.475,1.093,0.475
		s0.892-0.158,1.093-0.475s0.302-0.783,0.302-1.4v-4.558c0-0.609-0.1-1.064-0.299-1.365s-0.564-0.451-1.096-0.451
		s-0.896,0.15-1.096,0.451s-0.299,0.756-0.299,1.365v4.558C19.391,37.777,19.491,38.244,19.692,38.561z"/>
	<path fill="#414042" d="M26,40.266c-0.328,0-0.592-0.115-0.791-0.348s-0.299-0.521-0.299-0.865v-6.392h1.5v5.935
		c0,0.156,0.048,0.283,0.144,0.381s0.22,0.146,0.372,0.146c0.082,0,0.162-0.01,0.24-0.029s0.155-0.053,0.231-0.102
		s0.136-0.088,0.179-0.117s0.104-0.08,0.185-0.15s0.13-0.113,0.149-0.129v-5.935h1.5v7.5h-1.5v-0.809
		c-0.148,0.129-0.257,0.223-0.325,0.281s-0.173,0.139-0.313,0.238s-0.265,0.172-0.372,0.217s-0.241,0.086-0.401,0.123
		S26.172,40.266,26,40.266z"/>
	<path fill="#414042" d="M32.832,40.266c-0.363,0-0.679-0.062-0.946-0.188s-0.48-0.287-0.639-0.488s-0.286-0.459-0.384-0.773
		s-0.165-0.629-0.202-0.943s-0.06-0.682-0.067-1.099c-0.012-0.328-0.012-0.656,0-0.984c0.012-0.391,0.038-0.737,0.079-1.04
		s0.112-0.597,0.214-0.882s0.233-0.52,0.396-0.703s0.375-0.331,0.639-0.442s0.571-0.167,0.923-0.167c0.32,0,0.603,0.042,0.847,0.126
		s0.447,0.211,0.609,0.381s0.297,0.358,0.404,0.565s0.188,0.458,0.243,0.753s0.093,0.585,0.114,0.87s0.032,0.613,0.032,0.984v0.176
		h-3v0.375c0,0.051,0,0.131,0,0.24c-0.008,0.145-0.009,0.295-0.003,0.449s0.013,0.305,0.021,0.453s0.029,0.291,0.064,0.426
		s0.078,0.252,0.129,0.354s0.122,0.182,0.214,0.24s0.2,0.088,0.325,0.088c0.156,0,0.285-0.029,0.387-0.09s0.177-0.152,0.226-0.273
		s0.083-0.242,0.103-0.363s0.031-0.273,0.035-0.457v-0.316h1.488v0.299c-0.035,0.801-0.232,1.406-0.592,1.816
		S33.578,40.266,32.832,40.266z M32.094,35.661h1.488v-0.451c-0.004-0.199-0.016-0.373-0.035-0.521s-0.054-0.297-0.103-0.445
		s-0.124-0.262-0.226-0.34s-0.227-0.117-0.375-0.117c-0.152,0-0.28,0.041-0.384,0.123s-0.18,0.2-0.229,0.354
		s-0.083,0.306-0.103,0.454s-0.031,0.326-0.035,0.533V35.661z"/>
	<path fill="#414042" d="M38.299,40.266c-0.363,0-0.679-0.062-0.946-0.188s-0.48-0.287-0.639-0.488s-0.286-0.459-0.384-0.773
		s-0.165-0.629-0.202-0.943s-0.06-0.682-0.067-1.099c-0.012-0.328-0.012-0.656,0-0.984c0.012-0.391,0.038-0.737,0.079-1.04
		s0.112-0.597,0.214-0.882s0.233-0.52,0.396-0.703s0.375-0.331,0.639-0.442s0.571-0.167,0.923-0.167c0.32,0,0.603,0.042,0.847,0.126
		s0.447,0.211,0.609,0.381s0.297,0.358,0.404,0.565s0.188,0.458,0.243,0.753s0.093,0.585,0.114,0.87s0.032,0.613,0.032,0.984v0.176
		h-3v0.375c0,0.051,0,0.131,0,0.24c-0.008,0.145-0.009,0.295-0.003,0.449s0.013,0.305,0.021,0.453s0.029,0.291,0.064,0.426
		s0.078,0.252,0.129,0.354s0.122,0.182,0.214,0.24s0.2,0.088,0.325,0.088c0.156,0,0.285-0.029,0.387-0.09s0.177-0.152,0.226-0.273
		s0.083-0.242,0.103-0.363s0.031-0.273,0.035-0.457v-0.316h1.488v0.299c-0.035,0.801-0.232,1.406-0.592,1.816
		S39.045,40.266,38.299,40.266z M37.561,35.661h1.488v-0.451c-0.004-0.199-0.016-0.373-0.035-0.521s-0.054-0.297-0.103-0.445
		s-0.124-0.262-0.226-0.34s-0.227-0.117-0.375-0.117c-0.152,0-0.28,0.041-0.384,0.123s-0.18,0.2-0.229,0.354
		s-0.083,0.306-0.103,0.454s-0.031,0.326-0.035,0.533V35.661z"/>
	<path fill="#414042" d="M41.645,40.16v-7.5h1.5v0.809c0.223-0.203,0.404-0.358,0.545-0.466s0.335-0.209,0.583-0.305
		s0.513-0.144,0.794-0.144c0.32,0,0.58,0.117,0.779,0.352s0.299,0.521,0.299,0.861v6.392h-1.5v-5.625
		c0-0.262-0.037-0.452-0.111-0.571s-0.225-0.179-0.451-0.179c-0.129,0-0.257,0.026-0.384,0.079s-0.222,0.102-0.284,0.146
		s-0.152,0.116-0.27,0.214v5.935H41.645z"/>
	<path fill="#414042" d="M49.426,40.266c-0.617,0-1.112-0.184-1.485-0.551s-0.628-0.844-0.765-1.43l1.125-0.375
		c0.27,0.75,0.645,1.125,1.125,1.125c0.238,0,0.423-0.064,0.554-0.195s0.196-0.316,0.196-0.555c0-0.348-0.125-0.637-0.375-0.867
		l-1.5-1.125c-0.168-0.113-0.309-0.22-0.422-0.319s-0.229-0.222-0.346-0.366s-0.206-0.307-0.267-0.486s-0.091-0.375-0.091-0.586
		c0-0.641,0.204-1.131,0.612-1.471s0.954-0.51,1.638-0.51c0.324,0,0.617,0.052,0.879,0.155s0.481,0.249,0.659,0.437
		s0.324,0.396,0.439,0.624s0.206,0.483,0.272,0.765l-1.125,0.375c-0.055-0.148-0.109-0.276-0.164-0.384s-0.128-0.224-0.22-0.349
		s-0.2-0.222-0.325-0.29s-0.264-0.103-0.416-0.103c-0.238,0-0.423,0.065-0.554,0.196s-0.196,0.315-0.196,0.554
		c0,0.234,0.125,0.445,0.375,0.633l1.5,1.125c0.168,0.133,0.312,0.261,0.431,0.384s0.235,0.266,0.349,0.428
		c0.113,0.162,0.199,0.342,0.258,0.541s0.088,0.412,0.088,0.639c0,0.641-0.204,1.131-0.612,1.471S50.109,40.266,49.426,40.266z"/>
</g>
</svg>
