<?xml version="1.0" encoding="utf-8"?>
<!-- Generator: Adobe Illustrator 16.0.0, SVG Export Plug-In . SVG Version: 6.00 Build 0)  -->
<!DOCTYPE svg PUBLIC "-//W3C//DTD SVG 1.1//EN" "http://www.w3.org/Graphics/SVG/1.1/DTD/svg11.dtd">
<svg version="1.1" id="Layer_1" xmlns="http://www.w3.org/2000/svg" xmlns:xlink="http://www.w3.org/1999/xlink" x="0px" y="0px"
	 width="72px" height="72px" viewBox="0 0 72 72" enable-background="new 0 0 72 72" xml:space="preserve">
<path fill="#F2643E" d="M67.002,57.75c0,6.627-5.373,12-12,12H17.669c-6.628,0-12-5.373-12-12V13.417c0-6.627,5.372-12,12-12h37.333
	c6.627,0,12,5.373,12,12V57.75z"/>
<path fill="#FFFFFF" d="M35.75,23.75H27.5c0,0-4.25,2,0.25,4.25c0,0,4,0.75,2.25,6l-9.25,23.25c0,0-1.5,6.25,6,6.75H45
	c0,0,8-1.5,5-7.25L41.25,34.5c0,0-2-6.25,1.5-6.75c0,0,5.25-3.25-1.5-4H35.75z"/>
<circle fill="#FFFFFF" cx="36.5" cy="10.25" r="4.25"/>
<circle fill="#FFFFFF" cx="30.75" cy="16.75" r="1.25"/>
<circle fill="#FFFFFF" cx="38.875" cy="18.625" r="2.625"/>
</svg>
