<?xml version="1.0" encoding="utf-8"?>
<!-- Generator: Adobe Illustrator 16.0.0, SVG Export Plug-In . SVG Version: 6.00 Build 0)  -->
<!DOCTYPE svg PUBLIC "-//W3C//DTD SVG 1.1//EN" "http://www.w3.org/Graphics/SVG/1.1/DTD/svg11.dtd">
<svg version="1.1" id="Layer_1" xmlns="http://www.w3.org/2000/svg" xmlns:xlink="http://www.w3.org/1999/xlink" x="0px" y="0px"
	 width="72px" height="72px" viewBox="0 0 72 72" enable-background="new 0 0 72 72" xml:space="preserve">
<g>
	<defs>
		<rect id="SVGID_5_" x="17.375" y="14.55" width="40.056" height="42.2"/>
	</defs>
	<clipPath id="SVGID_2_">
		<use xlink:href="#SVGID_5_"  overflow="visible"/>
	</clipPath>
	<path clip-path="url(#SVGID_2_)" fill="#BCBEC0" d="M43.035,42.244c-6.557,0-11.891-5.62-11.891-12.528s5.334-12.528,11.891-12.528
		c6.559,0,11.893,5.62,11.893,12.528S49.594,42.244,43.035,42.244 M22.016,53.726c-0.32,0.336-0.692,0.388-0.885,0.388
		c-0.193,0-0.566-0.052-0.887-0.388c-0.318-0.336-0.365-0.727-0.365-0.932c0-0.204,0.047-0.596,0.365-0.931l11.773-12.406
		c0.539,0.675,1.132,1.298,1.771,1.866L22.016,53.726z M43.035,14.55c-7.938,0-14.395,6.802-14.395,15.166
		c0,2.747,0.707,5.318,1.925,7.544L18.475,49.997c-1.467,1.544-1.467,4.05,0,5.594c0.732,0.773,1.695,1.159,2.656,1.159
		s1.922-0.386,2.279-1.034L35.5,42.979c2.486,1.157,4.928,1.902,7.535,1.902c7.938,0,14.396-6.802,14.396-15.165
		C57.432,21.352,50.973,14.55,43.035,14.55"/>
</g>
</svg>
