<?xml version="1.0" encoding="utf-8"?>
<!-- Generator: Adobe Illustrator 15.1.0, SVG Export Plug-In . SVG Version: 6.00 Build 0)  -->
<!DOCTYPE svg PUBLIC "-//W3C//DTD SVG 1.1//EN" "http://www.w3.org/Graphics/SVG/1.1/DTD/svg11.dtd">
<svg version="1.1" id="Layer_1" xmlns="http://www.w3.org/2000/svg" xmlns:xlink="http://www.w3.org/1999/xlink" x="0px" y="0px"
	 width="72px" height="72px" viewBox="0 0 72 72" enable-background="new 0 0 72 72" xml:space="preserve">
<path fill="none" stroke="#FFFFFF" stroke-width="2" stroke-miterlimit="10" d="M30.431,38.784h-4.857
	c-2.537,0-4.59,2.054-4.59,4.589v7.268c0,1.902,6.693,3.447,15.016,3.488c8.326-0.041,15.016-1.586,15.016-3.488v-7.268
	c0-2.535-2.054-4.589-4.59-4.589h-4.857c-1.094,0-1.473-0.925-1.262-1.882c0.244-1.121,1.273-1.809,1.999-2.624
	c1.757-1.97,3.099-4.314,3.099-7.021c0-5.184-4.204-9.387-9.386-9.387c-0.008,0-0.011,0-0.019,0s-0.012,0-0.02,0
	c-5.183,0-9.386,4.204-9.386,9.387c0,2.707,1.343,5.048,3.098,7.021c0.727,0.815,1.752,1.503,2.001,2.624
	C31.898,37.859,31.525,38.784,30.431,38.784z"/>
</svg>
