<?xml version="1.0" encoding="utf-8"?>
<!-- Generator: Adobe Illustrator 16.0.0, SVG Export Plug-In . SVG Version: 6.00 Build 0)  -->
<!DOCTYPE svg PUBLIC "-//W3C//DTD SVG 1.1//EN" "http://www.w3.org/Graphics/SVG/1.1/DTD/svg11.dtd">
<svg version="1.1" id="Layer_1" xmlns="http://www.w3.org/2000/svg" xmlns:xlink="http://www.w3.org/1999/xlink" x="0px" y="0px"
	 width="72px" height="72px" viewBox="0 0 72 72" enable-background="new 0 0 72 72" xml:space="preserve">
<path fill="none" stroke="#414042" stroke-width="3" stroke-miterlimit="10" d="M41.013,48.257
	c-1.703,3.265-5.119,5.493-9.056,5.493c-5.639,0-10.209-4.57-10.209-10.208c0-4.149,2.476-7.721,6.031-9.318"/>
<path fill="#414042" d="M30.498,40.5V29c0,0-0.417-3.083,2.667-3.083c0,0,3.333-0.5,3.25,2.583l0.954,9.714l9.629,1.036
	c0,0,2.5-0.334,3.667,3.999l3.833,8.417c0,0,1.167,2.167-1.583,2.833c-2.004,0.485-1.75,0.667-7.25-10.166l-10.917-0.5
	C34.748,43.833,30.498,44.249,30.498,40.5z"/>
<circle fill="#414042" cx="33.166" cy="20.999" r="3.833"/>
</svg>
