<?xml version="1.0" encoding="utf-8"?>
<!-- Generator: Adobe Illustrator 16.0.0, SVG Export Plug-In . SVG Version: 6.00 Build 0)  -->
<!DOCTYPE svg PUBLIC "-//W3C//DTD SVG 1.1//EN" "http://www.w3.org/Graphics/SVG/1.1/DTD/svg11.dtd">
<svg version="1.1" id="Layer_1" xmlns="http://www.w3.org/2000/svg" xmlns:xlink="http://www.w3.org/1999/xlink" x="0px" y="0px"
	 width="72px" height="72px" viewBox="0 0 72 72" enable-background="new 0 0 72 72" xml:space="preserve">
<g id="WIFI">
	<g>
		<path fill="#3F3F3F" d="M35.719,49.323c-2.119,0-3.844,1.725-3.844,3.844s1.725,3.844,3.844,3.844c2.12,0,3.844-1.725,3.844-3.844
			S37.839,49.323,35.719,49.323z M55.626,21.802c-5.956-3.788-12.839-5.79-19.907-5.79s-13.951,2.002-19.907,5.79
			c-0.597,0.38-0.772,1.171-0.393,1.77c0.381,0.595,1.169,0.772,1.77,0.393c5.543-3.526,11.95-5.39,18.53-5.39
			s12.987,1.863,18.53,5.39c0.214,0.136,0.452,0.2,0.688,0.2c0.424,0,0.838-0.21,1.082-0.593
			C56.399,22.973,56.223,22.182,55.626,21.802z M43.184,41.228c-4.499-2.818-10.43-2.818-14.93,0c-0.6,0.375-0.78,1.166-0.405,1.766
			c0.377,0.6,1.166,0.781,1.767,0.406c3.682-2.308,8.526-2.308,12.207,0c0.212,0.133,0.446,0.195,0.68,0.195
			c0.427,0,0.843-0.213,1.087-0.602C43.965,42.394,43.783,41.603,43.184,41.228z M49.292,31.457
			c-4.071-2.561-8.765-3.914-13.573-3.914s-9.502,1.354-13.573,3.914c-0.6,0.376-0.779,1.166-0.402,1.766
			c0.377,0.602,1.169,0.779,1.767,0.403c3.662-2.304,7.884-3.521,12.209-3.521s8.547,1.217,12.21,3.521
			c0.211,0.132,0.447,0.196,0.681,0.196c0.425,0,0.842-0.211,1.086-0.6C50.071,32.623,49.892,31.833,49.292,31.457z"/>
	</g>
</g>
</svg>
