<?xml version="1.0" encoding="utf-8"?>
<!-- Generator: Adobe Illustrator 16.0.0, SVG Export Plug-In . SVG Version: 6.00 Build 0)  -->
<!DOCTYPE svg PUBLIC "-//W3C//DTD SVG 1.1//EN" "http://www.w3.org/Graphics/SVG/1.1/DTD/svg11.dtd">
<svg version="1.1" id="Layer_1" xmlns="http://www.w3.org/2000/svg" xmlns:xlink="http://www.w3.org/1999/xlink" x="0px" y="0px"
	 width="72px" height="72px" viewBox="0 0 72 72" enable-background="new 0 0 72 72" xml:space="preserve">
<path fill="#F2633E" d="M65.337,57.834c0,6.627-5.373,12-12,12H16.004c-6.628,0-12-5.373-12-12V13.501c0-6.628,5.372-12,12-12
	h37.333c6.627,0,12,5.372,12,12V57.834z"/>
<path fill="#FFFFFF" d="M11.785,22.991c0,0,11.29,1.947,20.438-2.725c0,0,7.591,19.271-3.894,23.163c0,0-4.087,1.752-8.953,0
	C19.377,43.43,12.175,41.483,11.785,22.991z"/>
<path fill="#F2633E" d="M16.067,31.362c0,0,2.532-2.467,4.866-0.584C20.934,30.778,18.403,26.301,16.067,31.362z"/>
<path fill="#F2633E" d="M25.287,29.708c0,0,2.851-2.176,4.901-0.014C30.188,29.694,28.195,24.954,25.287,29.708z"/>
<path fill="#F2633E" d="M18.403,36.423c0,0,6.424,0.389,10.9-1.752c0,0,2.726,3.698-5.45,5.061
	C23.854,39.731,18.403,40.121,18.403,36.423z"/>
<path fill="#FFFFFF" d="M40.955,25.884c0,0,9.176,7.619,19.038,7.923c0,0-3.128,20.474-15.013,18.064c0,0-4.414-0.541-7.74-4.502
	C37.24,47.369,31.994,42.064,40.955,25.884z"/>
<path fill="#F2633E" d="M52.957,40.851c0,0-3.525,0.27-4.107-2.673C48.85,38.178,47.92,43.235,52.957,40.851z"/>
<path fill="#F2633E" d="M44.822,36.205c0,0-3.581-0.158-3.768-3.133C41.055,33.072,39.543,37.989,44.822,36.205z"/>
<path fill="#F2633E" d="M46.369,47.286c0,0-2.661-3.661-7.272-3.558c0,0-0.071-3.367,5.403-0.729
	C44.5,43,47.933,45.069,46.369,47.286z"/>
</svg>
