<?xml version="1.0" encoding="utf-8"?>
<!-- Generator: Adobe Illustrator 16.0.0, SVG Export Plug-In . SVG Version: 6.00 Build 0)  -->
<!DOCTYPE svg PUBLIC "-//W3C//DTD SVG 1.1//EN" "http://www.w3.org/Graphics/SVG/1.1/DTD/svg11.dtd">
<svg version="1.1" id="Layer_1" xmlns="http://www.w3.org/2000/svg" xmlns:xlink="http://www.w3.org/1999/xlink" x="0px" y="0px"
	 width="72px" height="72px" viewBox="0 0 72 72" enable-background="new 0 0 72 72" xml:space="preserve">
<path fill="#414042" d="M13,20.975c0,0,11.29,1.946,20.438-2.725c0,0,7.591,19.271-3.894,23.163c0,0-4.087,1.752-8.953,0
	C20.592,41.413,13.39,39.467,13,20.975z"/>
<path fill="#FFFFFF" d="M17.282,29.345c0,0,2.532-2.467,4.866-0.584C22.148,28.761,19.618,24.284,17.282,29.345z"/>
<path fill="#FFFFFF" d="M26.502,27.692c0,0,2.851-2.176,4.901-0.014C31.403,27.678,29.41,22.937,26.502,27.692z"/>
<path fill="#FFFFFF" d="M19.618,34.406c0,0,6.424,0.389,10.9-1.752c0,0,2.726,3.698-5.45,5.061
	C25.068,37.715,19.618,38.104,19.618,34.406z"/>
<path fill="#414042" d="M42.17,23.868c0,0,9.176,7.619,19.038,7.922c0,0-3.128,20.474-15.013,18.064c0,0-4.414-0.541-7.74-4.502
	C38.455,45.353,33.209,40.048,42.17,23.868z"/>
<path fill="#FFFFFF" d="M54.172,38.834c0,0-3.525,0.27-4.107-2.673C50.064,36.161,49.135,41.219,54.172,38.834z"/>
<path fill="#FFFFFF" d="M46.037,34.188c0,0-3.581-0.158-3.768-3.133C42.27,31.056,40.758,35.973,46.037,34.188z"/>
<path fill="#FFFFFF" d="M47.584,45.27c0,0-2.661-3.661-7.272-3.558c0,0-0.071-3.367,5.403-0.729
	C45.715,40.983,49.147,43.053,47.584,45.27z"/>
</svg>
