<?xml version="1.0" encoding="utf-8"?>
<!-- Generator: Adobe Illustrator 16.0.0, SVG Export Plug-In . SVG Version: 6.00 Build 0)  -->
<!DOCTYPE svg PUBLIC "-//W3C//DTD SVG 1.1//EN" "http://www.w3.org/Graphics/SVG/1.1/DTD/svg11.dtd">
<svg version="1.1" id="Layer_1" xmlns="http://www.w3.org/2000/svg" xmlns:xlink="http://www.w3.org/1999/xlink" x="0px" y="0px"
	 width="72px" height="72px" viewBox="0 0 72 72" enable-background="new 0 0 72 72" xml:space="preserve">
<path fill="#F2633E" d="M66.337,58.084c0,6.627-5.373,12-12,12H17.004c-6.628,0-12-5.373-12-12V13.751c0-6.627,5.372-12,12-12
	h37.333c6.627,0,12,5.373,12,12V58.084z"/>
<path fill="#FFFFFF" d="M34.5,15.609c0,0-2.812-1.623-4.004-3.571c0,0-0.541-3.68,0.325-4.004c0,0,3.463-2.163,5.735-2.056
	c0,0,4.977,0.649,5.628,2.489c0,0,1.298,3.03-2.598,6.493c0,0-1.939,1.196-1.939,2.062l-2.348-0.18"/>
<path fill="#FFFFFF" d="M37.747,22.86c0,0.776-0.63,1.406-1.407,1.406l0,0c-0.775,0-1.406-0.63-1.406-1.406v-7.142
	c0-0.777,0.631-1.407,1.406-1.407l0,0c0.777,0,1.407,0.63,1.407,1.407V22.86z"/>
<polygon fill="#FFFFFF" points="10.369,44.936 27.684,43.853 27.684,45.151 9.938,46.558 "/>
<polyline fill="#FFFFFF" points="10.479,43.312 27.359,42.339 26.71,40.931 10.803,41.472 10.263,42.771 "/>
<polygon fill="#FFFFFF" points="11.561,39.739 25.735,39.2 25.303,37.685 11.776,38.333 "/>
<polygon fill="#FFFFFF" points="12.21,36.386 24.438,36.061 24.438,34.547 12.534,35.087 "/>
<polygon fill="#FFFFFF" points="13.075,33.249 23.681,32.707 23.681,31.625 13.725,31.625 "/>
<polygon fill="#FFFFFF" points="14.158,30.109 23.247,30.219 23.787,30.109 23.787,28.811 14.59,28.703 "/>
<polygon fill="#FFFFFF" points="15.347,26.539 22.924,26.647 23.896,27.837 24.112,27.188 23.139,25.565 21.625,25.241 
	16.105,24.915 "/>
<path fill="#FFFFFF" d="M17.296,22.968c0,0,6.274-0.865,7.033,3.462l0.433-0.541c0,0-0.865-4.653-6.492-4.761L17.296,22.968z"/>
<polygon fill="#FFFFFF" points="22.273,17.341 23.555,16.655 26.8,24.013 25.994,24.159 "/>
<polygon fill="#FFFFFF" points="24.979,15.176 26.494,14.203 28.874,23.185 27.575,23.725 "/>
<polygon fill="#FFFFFF" points="28.441,13.446 30.172,13.013 31.255,22.318 30.172,22.643 "/>
<path fill="#F2633E" d="M34.717,8.359c0,0,0.65-1.406-0.758-1.514C33.959,6.845,32.553,7.602,34.717,8.359z"/>
<path fill="#F2633E" d="M39.138,6.953c0,0,1.497,0.758-0.804,1.515C38.334,8.468,37.644,7.061,39.138,6.953"/>
<path fill="#F2633E" d="M36.018,12.603c0,0,0.539,3.44-0.11,4.115l0.649-0.675l0.325,0.922l-0.217-4.545L36.018,12.603z"/>
<path fill="#FFFFFF" d="M39.479,21.669l0.866-6.168c0,0-1.161,0.854-1.161,1.612l-0.542,4.788L39.479,21.669z"/>
<polygon fill="#FFFFFF" points="40.669,22.535 41.968,23.076 43.808,13.446 41.968,13.121 "/>
<polygon fill="#FFFFFF" points="42.832,23.292 43.808,23.833 46.945,15.285 45.538,14.311 "/>
<polygon fill="#FFFFFF" points="45.105,24.159 45.863,24.915 49.543,17.449 48.352,16.692 "/>
<path fill="#FFFFFF" d="M47.27,26.106c0,0,1.3-3.895,7.357-3.354l-0.541-1.516C54.086,21.236,48.137,20.479,47.27,26.106z"/>
<path fill="#FFFFFF" d="M48.027,28.054c0,0,1.015-2.095,8.116-1.515l-0.435-1.298c0,0-6.376-1.032-8.224,2.056L48.027,28.054z"/>
<polygon fill="#FFFFFF" points="47.92,28.811 57.441,28.919 57.658,30.435 48.46,30.219 "/>
<polygon fill="#FFFFFF" points="48.027,32.382 58.74,33.14 58.309,31.949 48.027,31.192 "/>
<polygon fill="#FFFFFF" points="47.27,34.547 59.497,35.087 59.497,36.711 47.27,36.061 "/>
<polygon fill="#FFFFFF" points="46.079,37.685 45.863,39.416 60.471,39.739 60.255,38.658 "/>
<polygon fill="#FFFFFF" points="44.133,41.904 61.012,43.203 61.012,42.12 45.105,40.715 "/>
<polygon fill="#FFFFFF" points="43.808,43.095 61.554,44.936 61.554,46.558 44.133,44.717 "/>
<path fill="#FFFFFF" d="M33.511,47.691c0,0-1.178-1.634,1.515-1.838c1.106-0.083,2.218-0.162,2.218-0.162l1.259,0.163
	c0,0,1.906,0.283,0.852,1.867l-0.865,17.501l-3.68,0.324l-1.19-17.42"/>
<path fill="#FFFFFF" d="M33.306,21.885l-0.536-6.168c0,0,1.138,0.974,1.138,1.731l0.271,4.761L33.306,21.885z"/>
<path fill="#FFFFFF" d="M26.169,31.737l2.165-1.165c0,0,3.463-4.138,6.276,1.293c0,0-3.464,0.646-5.735-0.518
	C28.875,31.348,26.278,31.478,26.169,31.737z"/>
<path fill="#F2633E" d="M28.496,31.057c0,0,2.597-4.004,5.519,0.324C34.015,31.38,29.359,31.596,28.496,31.057z"/>
<ellipse fill="#FFFFFF" cx="31.229" cy="30.299" rx="1.596" ry="1.001"/>
<path fill="#FFFFFF" d="M46.459,31.493l-2.165-1.164c0,0-3.462-4.139-6.275,1.292c0,0,3.463,0.646,5.736-0.517
	C43.755,31.104,46.352,31.234,46.459,31.493z"/>
<path fill="#F2633E" d="M44.133,30.812c0,0-2.596-4.003-5.519,0.325C38.614,31.138,43.268,31.354,44.133,30.812z"/>
<path fill="#FFFFFF" d="M25.682,29.677c0,0,0.487-3.896,5.843-2.921c0,0,2.191,1.217,2.517,1.217c0,0,1.218-0.568,0.649-1.055
	c0,0-4.789-2.272-6.494-0.974C28.196,25.944,25.438,27.486,25.682,29.677z"/>
<path fill="#FFFFFF" d="M46.352,29.921c0,0-0.488-3.896-5.845-2.922c0,0-2.191,1.217-2.516,1.217c0,0-1.217-0.568-0.649-1.055
	c0,0,4.79-2.272,6.493-0.974C43.835,26.188,46.594,27.73,46.352,29.921z"/>
<path fill="#FFFFFF" d="M32.579,40.633c0,0,2.437-1.136,3.247-0.648c0,0,1.786-1.055,3.409,0.73L32.579,40.633z"/>
<path fill="#FFFFFF" d="M33.218,41.681c0,0,3.327,0.813,5.681-0.08C38.898,41.601,36.707,44.197,33.218,41.681z"/>
<path fill="#FFFFFF" d="M39.354,65.291c0,0.919-0.745,1.664-1.664,1.664h-2.271c-0.92,0-1.664-0.745-1.664-1.664l0,0
	c0-0.918,0.744-1.664,1.664-1.664h2.271C38.608,63.627,39.354,64.373,39.354,65.291L39.354,65.291z"/>
<path fill="none" stroke="#FFFFFF" stroke-width="0.75" stroke-linecap="round" stroke-linejoin="round" stroke-miterlimit="10" d="
	M33.432,36.413c0,0,0.65,0.364,1.217-0.283c0,0,0.936-0.163,0.936,0.283c0,0,1.176,0.608,1.501-0.243c0,0,0.527-0.325,0.729,0
	c0,0,0.975,0.406,1.137,0.121"/>
<path fill="#F2633E" d="M32.809,9.01c0,0,0.016,0.946,0.99,1.474c0,0,1.541,0.689,1.582,1.176c0,0,1.136,0.608,1.906,0.202
	c0,0,0.244-0.729,0.812-0.892c0,0,1.542-0.486,2.15-1.947c0,0,0.041,1.298-1.379,2.394c0,0-1.258,0.445-1.502,1.055
	c0,0-1.583,0.406-1.947,0c0,0-0.772-0.73-1.38-1.055C34.041,11.417,32.795,9.442,32.809,9.01z"/>
<ellipse fill="#FFFFFF" cx="41.399" cy="30.029" rx="1.596" ry="1.001"/>
</svg>
