<?xml version="1.0" encoding="utf-8"?>
<!-- Generator: Adobe Illustrator 16.0.0, SVG Export Plug-In . SVG Version: 6.00 Build 0)  -->
<!DOCTYPE svg PUBLIC "-//W3C//DTD SVG 1.1//EN" "http://www.w3.org/Graphics/SVG/1.1/DTD/svg11.dtd">
<svg version="1.1" id="Layer_1" xmlns="http://www.w3.org/2000/svg" xmlns:xlink="http://www.w3.org/1999/xlink" x="0px" y="0px"
	 width="72px" height="72px" viewBox="0 0 72 72" enable-background="new 0 0 72 72" xml:space="preserve">
<path fill="#414042" d="M18.125,43.553c0-10.24,8.301-18.541,18.54-18.541s18.54,8.301,18.54,18.541"/>
<rect x="17.758" y="45.204" fill="#414042" width="37.814" height="9.546"/>
<path fill="#414042" d="M26.463,28.071c0.563,0.717,0.438,1.756-0.278,2.32l0,0c-0.717,0.563-1.755,0.439-2.32-0.277l-9.303-11.833
	c-0.565-0.716-0.44-1.756,0.276-2.32l0,0c0.717-0.563,1.756-0.439,2.32,0.277L26.463,28.071z"/>
<path fill="#414042" d="M48.115,30.515c-0.626,0.663-1.672,0.691-2.336,0.064l0,0c-0.662-0.626-0.69-1.672-0.064-2.336
	l10.344-10.936c0.625-0.664,1.672-0.692,2.334-0.065l0,0c0.663,0.627,0.692,1.672,0.066,2.336L48.115,30.515z"/>
<circle fill="#FFFFFF" cx="36.665" cy="34.925" r="5.323"/>
<circle fill="#FFFFFF" cx="30.607" cy="50.345" r="1.836"/>
<circle fill="#FFFFFF" cx="36.481" cy="50.345" r="1.836"/>
<circle fill="#FFFFFF" cx="42.356" cy="50.345" r="1.835"/>
<path fill="none" stroke="#414042" stroke-miterlimit="10" d="M21.612,23.177c0,0,9.729-11.014,11.198-0.918v3.488"/>
<path fill="none" stroke="#414042" stroke-miterlimit="10" d="M49.515,33.456c0,0,17.807-1.652,4.039,8.077"/>
<circle fill="#414042" cx="36.666" cy="34.925" r="3.671"/>
</svg>
