<?xml version="1.0" encoding="utf-8"?>
<!-- Generator: Adobe Illustrator 16.0.0, SVG Export Plug-In . SVG Version: 6.00 Build 0)  -->
<!DOCTYPE svg PUBLIC "-//W3C//DTD SVG 1.1//EN" "http://www.w3.org/Graphics/SVG/1.1/DTD/svg11.dtd">
<svg version="1.1" id="Layer_1" xmlns="http://www.w3.org/2000/svg" xmlns:xlink="http://www.w3.org/1999/xlink" x="0px" y="0px"
	 width="72px" height="72px" viewBox="0 0 72 72" enable-background="new 0 0 72 72" xml:space="preserve">
<path fill="#F2633E" d="M66.837,57.334c0,6.627-5.373,12-12,12H17.504c-6.628,0-12-5.373-12-12V13.001c0-6.627,5.372-12,12-12
	h37.333c6.627,0,12,5.373,12,12V57.334z"/>
<path fill="#FFFFFF" d="M17.291,41.554c0-10.24,8.301-18.541,18.54-18.541s18.54,8.301,18.54,18.541"/>
<rect x="16.924" y="43.204" fill="#FFFFFF" width="37.814" height="9.547"/>
<path fill="#FFFFFF" d="M25.629,26.072c0.563,0.717,0.438,1.756-0.278,2.32l0,0c-0.717,0.563-1.755,0.439-2.32-0.277l-9.303-11.833
	c-0.565-0.716-0.44-1.756,0.276-2.32l0,0c0.717-0.563,1.756-0.439,2.32,0.277L25.629,26.072z"/>
<path fill="#FFFFFF" d="M47.281,28.515c-0.626,0.663-1.672,0.691-2.336,0.064l0,0c-0.662-0.626-0.69-1.672-0.064-2.336
	l10.344-10.936c0.625-0.664,1.672-0.692,2.334-0.065l0,0c0.663,0.627,0.692,1.672,0.066,2.336L47.281,28.515z"/>
<circle fill="#F2633E" cx="35.831" cy="32.925" r="5.323"/>
<circle fill="#F2633E" cx="29.773" cy="48.345" r="1.836"/>
<circle fill="#F2633E" cx="35.647" cy="48.345" r="1.836"/>
<circle fill="#F2633E" cx="41.522" cy="48.345" r="1.835"/>
<path fill="none" stroke="#FFFFFF" stroke-miterlimit="10" d="M20.778,21.177c0,0,9.729-11.014,11.198-0.918v3.488"/>
<path fill="none" stroke="#FFFFFF" stroke-miterlimit="10" d="M48.681,31.457c0,0,17.807-1.652,4.039,8.078"/>
<circle fill="#FFFFFF" cx="35.832" cy="32.925" r="3.671"/>
</svg>
